<svg width="205" height="218" viewBox="0 0 205 218" fill="none" xmlns="http://www.w3.org/2000/svg">
<g clip-path="url(#clip0_1101_5362)">
<mask id="mask0_1101_5362" style="mask-type:luminance" maskUnits="userSpaceOnUse" x="-32" y="0" width="237" height="218">
<path d="M205 0H-32V218H205V0Z" fill="white"/>
</mask>
<g mask="url(#mask0_1101_5362)">
<path d="M13.5261 22.7202C11.3661 22.4592 9.09514 23.0532 7.44314 24.5032L-1.65786 32.4952C-4.45586 34.9532 -9.03486 34.9532 -11.8339 32.4952L-22.8809 22.5752" stroke="#1B1B1B"/>
<path d="M166.349 188.652C164.962 188.937 163.441 188.607 162.366 187.662L156.99 182.941C155.336 181.489 152.631 181.489 150.978 182.941L145.601 187.662C143.948 189.114 141.243 189.114 139.59 187.662L133.064 181.802" stroke="#FD614E"/>
<path d="M143.098 59.8149V28.5049L171.633 42.5939L143.098 59.8149Z" fill="#85868F"/>
<path d="M53.5587 154.109L45.5367 146.904C43.5107 145.126 40.1977 145.126 38.1717 146.904L31.5867 152.687C30.4017 153.728 28.7737 154.16 27.2207 153.981" stroke="#4AC75D"/>
<path d="M98.3594 158.509V139.121L116.028 147.846L98.3594 158.509Z" fill="#D99509"/>
<path d="M194.606 41.8167C194.606 46.7807 194.606 51.6807 194.606 51.6807L176.264 42.6247L194.606 31.5547" stroke="#D08F0A"/>
<path d="M174.022 165.958V213.616L130.588 192.171L174.022 165.958Z" stroke="#333131"/>
<path d="M80.4082 14.6374L87.0414 10.635L80.4082 7.36035V14.6374Z" fill="#262525"/>
<path d="M49.7375 193.993L50.4473 186.385L57.0617 190.456L49.7375 193.993Z" fill="#25DA40"/>
<path d="M94.8559 70.7415L87.5304 72.9093L88.8496 65.2568L94.8559 70.7415Z" fill="#FD614E"/>
</g>
</g>
<defs>
<clipPath id="clip0_1101_5362">
<rect width="237" height="218" fill="white" transform="translate(-32)"/>
</clipPath>
</defs>
</svg>
