<svg width="25" height="24" viewBox="0 0 25 24" fill="none" xmlns="http://www.w3.org/2000/svg">
<g clip-path="url(#clip0_1020_572)">
<path d="M21.7192 8.18824C20.1201 9.17647 19.1324 10.8706 19.1324 12.7529C19.1324 14.8706 20.4023 16.8 22.3306 17.6C21.9543 18.8235 21.3899 19.9529 20.6845 20.9882C19.6498 22.4471 18.5681 23.9529 16.969 23.9529C15.3699 23.9529 14.8996 23.0118 13.0183 23.0118C11.1841 23.0118 10.5257 24 9.02066 24C7.51565 24 6.48096 22.6353 5.30517 20.9412C3.75313 18.5882 2.85953 15.8588 2.8125 12.9882C2.8125 8.32941 5.82252 5.83529 8.83253 5.83529C10.4316 5.83529 11.7485 6.87059 12.7361 6.87059C13.6768 6.87059 15.1818 5.78824 16.969 5.78824C18.8502 5.74118 20.6374 6.63529 21.7192 8.18824ZM16.1224 3.81176C16.9219 2.87059 17.3452 1.69412 17.3923 0.470588C17.3923 0.329412 17.3923 0.141176 17.3452 0C15.9813 0.141176 14.7115 0.8 13.8179 1.83529C13.0183 2.72941 12.548 3.85882 12.501 5.08235C12.501 5.22353 12.501 5.36471 12.548 5.50588C12.6421 5.50588 12.7832 5.55294 12.8772 5.55294C14.1471 5.45882 15.3229 4.8 16.1224 3.81176Z" fill="black"/>
</g>
<defs>
<clipPath id="clip0_1020_572">
<rect width="19.5181" height="24" fill="white" transform="translate(2.8125)"/>
</clipPath>
</defs>
</svg>
