<svg width="56" height="56" viewBox="0 0 56 56" fill="none" xmlns="http://www.w3.org/2000/svg">
<path d="M54.0386 23.6322C47.2626 22.2322 41.9986 16.9122 40.5986 10.1362C40.5426 9.80017 40.2626 9.57617 39.8706 9.57617C39.5346 9.57617 39.2546 9.80017 39.1426 10.1362C37.7426 16.9122 32.4226 22.2322 25.7026 23.6322C25.3666 23.6882 25.1426 23.9682 25.1426 24.3602C25.1426 24.6962 25.3666 24.9762 25.7026 25.0882C32.4786 26.4882 37.7426 31.8082 39.1426 38.5282C39.1986 38.8642 39.4786 39.0882 39.8706 39.0882C40.2066 39.0882 40.4866 38.8642 40.5986 38.5282C41.9986 31.7522 47.3186 26.4882 54.0386 25.0882C54.3746 25.0322 54.5986 24.7522 54.5986 24.3602C54.5986 23.9682 54.3746 23.6882 54.0386 23.6322Z" fill="#4B8BBE"/>
<path d="M31.4711 39.4233C26.0391 38.3033 21.7831 34.0473 20.6631 28.5593C20.6071 28.2793 20.3831 28.1113 20.1031 28.1113C19.8231 28.1113 19.5991 28.2793 19.5431 28.5593C18.4231 34.0473 14.1671 38.3033 8.73511 39.4233C8.45511 39.4793 8.28711 39.7033 8.28711 39.9833C8.28711 40.2633 8.45511 40.4873 8.73511 40.5433C14.1671 41.6633 18.4231 45.9193 19.5431 51.3513C19.5991 51.6313 19.8231 51.7993 20.1031 51.7993C20.3831 51.7993 20.6071 51.6313 20.6631 51.3513C21.7831 45.9193 26.0391 41.6633 31.4711 40.5433C31.7511 40.4873 31.9191 40.2633 31.9191 39.9833C31.9191 39.7033 31.7511 39.4793 31.4711 39.4233Z" fill="#4B8BBE"/>
<path d="M12.1511 26.5999C12.2631 26.9359 12.5431 27.1599 12.8791 27.1599C13.2151 27.1599 13.5511 26.9359 13.6071 26.5999C14.7831 21.6159 18.8151 17.6399 23.7431 16.4639C24.0791 16.3519 24.3031 16.0719 24.3031 15.7359C24.3031 15.3999 24.0791 15.0639 23.7431 15.0079C18.7031 13.7759 14.7831 9.85586 13.6071 4.81586C13.5511 4.47986 13.2151 4.25586 12.8791 4.25586C12.5431 4.25586 12.2071 4.47986 12.1511 4.81586C10.9191 9.85586 7.05508 13.7759 2.01508 15.0079C1.67908 15.1199 1.45508 15.3999 1.45508 15.7359C1.45508 16.0719 1.67908 16.4079 2.01508 16.4639C6.94308 17.6399 10.9191 21.6159 12.1511 26.5999Z" fill="#4B8BBE"/>
</svg>
