<svg width="24" height="25" viewBox="0 0 24 25" fill="none" xmlns="http://www.w3.org/2000/svg">
<path d="M15.8365 19.625L12.8221 16.6106M19.125 16.8846L15.8365 13.5962L12.8221 16.6106M12.8221 16.6106L8.16346 11.9519L5.42308 14.6923L4.875 15.2404M4.875 15.2404L4.875 7.56731C4.875 6.35653 5.85653 5.375 7.06731 5.375L16.9327 5.37502C18.1435 5.37502 19.125 6.35655 19.125 7.56733L19.125 17.4327C19.125 18.6435 18.1435 19.625 16.9327 19.625L7.06731 19.625C5.85653 19.625 4.875 18.6435 4.875 17.4327L4.875 15.2404ZM16.9327 9.21154C16.9327 10.1196 16.1965 10.8558 15.2885 10.8558C14.3804 10.8558 13.6442 10.1196 13.6442 9.21154C13.6442 8.30345 14.3804 7.5673 15.2885 7.5673C16.1965 7.5673 16.9327 8.30345 16.9327 9.21154Z" stroke="#4B8BBE" stroke-width="1.33333" stroke-linecap="round" stroke-linejoin="round"/>
</svg>
