<svg width="546" height="105" viewBox="0 0 546 105" fill="none" xmlns="http://www.w3.org/2000/svg">
<path d="M524.207 36.252L522.047 35.82C520.319 35.82 517.967 36.204 514.991 36.972C512.015 37.692 510.527 38.412 510.527 39.132C510.527 40.572 512.087 42.252 515.207 44.172C516.359 44.844 517.415 45.78 518.375 46.98C519.383 48.132 519.887 49.284 519.887 50.436C519.887 51.588 519.551 52.62 518.879 53.532C518.255 54.444 517.631 55.14 517.007 55.62C516.431 56.052 515.735 56.532 514.919 57.06C514.103 57.588 513.599 57.924 513.407 58.068C513.263 58.164 512.999 58.332 512.615 58.572L511.751 59.148C511.559 59.244 511.295 59.412 510.959 59.652C510.671 59.844 510.431 60.012 510.239 60.156C510.047 60.252 509.831 60.396 509.591 60.588C509.399 60.78 509.231 60.924 509.087 61.02C508.895 61.164 508.751 61.308 508.655 61.452C508.463 61.692 508.367 61.932 508.367 62.172C508.367 63.756 509.519 65.364 511.823 66.996C514.175 68.58 516.863 69.372 519.887 69.372C526.079 69.372 530.831 68.82 534.143 67.716C535.151 67.38 535.727 67.212 535.871 67.212C537.311 67.212 538.031 67.932 538.031 69.372C538.031 70.428 537.311 71.196 535.871 71.676C531.839 73.02 526.511 73.692 519.887 73.692C515.711 73.692 512.015 72.492 508.799 70.092C505.631 67.644 504.047 65.004 504.047 62.172C504.047 60.06 505.679 57.948 508.943 55.836C509.231 55.644 509.663 55.356 510.239 54.972C510.863 54.588 511.871 53.916 513.263 52.956C514.655 51.996 515.423 51.228 515.567 50.652C515.567 50.22 515.063 49.62 514.055 48.852C513.095 48.036 512.039 47.22 510.887 46.404C509.735 45.588 508.655 44.532 507.647 43.236C506.687 41.892 506.207 40.5 506.207 39.06C506.207 37.572 506.879 36.3 508.223 35.244C509.567 34.14 511.679 33.252 514.559 32.58C517.439 31.86 519.647 31.5 521.183 31.5C522.767 31.5 524.015 31.74 524.927 32.22C525.887 32.7 526.367 33.324 526.367 34.092C526.367 35.532 525.647 36.252 524.207 36.252Z" fill="white"/>
<path d="M483.413 69.372C486.725 69.372 489.461 68.22 491.621 65.916C493.829 63.612 494.933 61.596 494.933 59.868C494.933 58.332 492.293 57.324 487.013 56.844C485.045 56.652 483.221 56.004 481.541 54.9C479.909 53.796 479.093 52.188 479.093 50.076C479.093 49.356 479.477 47.508 480.245 44.532C481.013 41.508 481.397 39.54 481.397 38.628C481.397 37.716 481.373 37.14 481.325 36.9C481.325 36.66 481.205 36.42 480.965 36.18C480.725 35.94 480.389 35.82 479.957 35.82C478.901 35.82 477.773 37.572 476.573 41.076C475.373 44.58 474.773 47.58 474.773 50.076C474.773 52.572 475.397 56.316 476.645 61.308C476.741 61.596 476.789 61.884 476.789 62.172C476.789 63.612 476.069 64.332 474.629 64.332C473.477 64.332 472.709 63.612 472.325 62.172C471.077 57.18 470.453 53.148 470.453 50.076C470.453 47.292 471.125 43.692 472.469 39.276C473.141 37.068 474.125 35.22 475.421 33.732C476.765 32.244 478.349 31.5 480.173 31.5C481.997 31.5 483.365 32.1 484.277 33.3C485.237 34.5 485.717 36.084 485.717 38.052C485.717 39.972 485.333 42.42 484.565 45.396C483.797 48.324 483.413 49.884 483.413 50.076C483.413 51.612 486.053 52.62 491.333 53.1C493.301 53.292 495.101 53.94 496.733 55.044C498.413 56.148 499.253 57.756 499.253 59.868C499.253 62.796 497.741 65.844 494.717 69.012C491.741 72.132 487.973 73.692 483.413 73.692C481.205 73.692 479.189 73.068 477.365 71.82C475.541 70.572 474.629 69.516 474.629 68.652C474.629 67.212 475.349 66.492 476.789 66.492C477.125 66.492 477.965 66.972 479.309 67.932C480.701 68.892 482.069 69.372 483.413 69.372Z" fill="white"/>
<path d="M441.244 41.292C442.684 41.292 443.404 42.012 443.404 43.452C443.404 44.604 442.684 45.324 441.244 45.612C439.276 45.996 437.812 47.388 436.852 49.788C435.94 52.14 435.484 54.876 435.484 57.996C435.484 61.068 436.612 63.732 438.868 65.988C441.124 68.244 443.956 69.372 447.364 69.372C450.772 69.372 453.964 67.884 456.94 64.908C459.916 61.884 461.404 58.572 461.404 54.972C461.404 50.748 460.756 46.668 459.46 42.732C458.788 40.716 457.804 39.06 456.508 37.764C455.212 36.468 453.556 35.82 451.54 35.82C449.524 35.82 447.892 36.18 446.644 36.9C445.396 37.62 444.556 37.98 444.124 37.98C442.684 37.98 441.964 37.26 441.964 35.82C441.964 35.052 442.684 34.236 444.124 33.372C444.892 32.892 446.068 32.46 447.652 32.076C449.236 31.692 450.7 31.5 452.044 31.5C454.492 31.5 456.652 32.22 458.524 33.66C460.348 35.1 461.764 37.02 462.772 39.42C464.74 44.076 465.724 49.26 465.724 54.972C465.724 59.772 463.804 64.092 459.964 67.932C456.124 71.772 451.924 73.692 447.364 73.692C442.804 73.692 438.964 72.132 435.844 69.012C432.724 65.892 431.164 62.052 431.164 57.492C431.164 52.884 432.052 49.188 433.828 46.404C435.604 43.572 437.716 41.916 440.164 41.436C440.644 41.34 441.004 41.292 441.244 41.292Z" fill="white"/>
<path d="M397.169 73.692C396.641 73.692 396.185 73.452 395.801 72.972C395.417 72.444 395.153 71.964 395.009 71.532C393.857 66.924 393.281 61.404 393.281 54.972C393.281 51.228 394.025 47.604 395.513 44.1C397.001 40.596 399.329 37.62 402.497 35.172C405.665 32.724 409.265 31.5 413.297 31.5C417.377 31.5 420.569 32.46 422.873 34.38C425.225 36.252 426.401 39.036 426.401 42.732C426.401 50.892 421.121 54.972 410.561 54.972C416.465 58.668 421.025 62.364 424.241 66.06C425.681 67.788 426.401 68.892 426.401 69.372C426.401 70.812 425.681 71.532 424.241 71.532C423.665 71.532 423.185 71.34 422.801 70.956C422.417 70.572 421.937 70.044 421.361 69.372C419.345 67.02 417.185 64.956 414.881 63.18C412.625 61.404 408.785 58.86 403.361 55.548C401.921 54.636 401.201 53.724 401.201 52.812C401.201 51.372 401.921 50.652 403.361 50.652H410.561C414.545 50.652 417.449 50.076 419.273 48.924C421.145 47.772 422.081 45.876 422.081 43.236C422.081 40.548 421.385 38.652 419.993 37.548C418.649 36.396 416.585 35.82 413.801 35.82C411.017 35.82 408.593 36.396 406.529 37.548C404.417 38.748 402.737 40.308 401.489 42.228C398.897 46.164 397.601 50.412 397.601 54.972C397.601 60.924 398.129 66.084 399.185 70.452C399.281 70.74 399.329 71.1 399.329 71.532C399.329 72.972 398.609 73.692 397.169 73.692Z" fill="white"/>
<path d="M362.855 65.772C362.135 65.772 361.632 65.628 361.344 65.34C360.24 64.14 359.688 59.484 359.688 51.372C359.688 46.284 360.168 42.012 361.128 38.556C361.512 37.356 362.232 36.156 363.288 34.956C365.352 32.652 368.711 31.5 373.367 31.5C377.111 31.5 380.568 32.916 383.736 35.748C386.904 38.532 388.487 41.532 388.487 44.748C388.487 49.884 386.711 54.324 383.159 58.068C380.567 60.756 377.447 63.444 373.799 66.132C370.151 68.82 367.944 70.5 367.176 71.172C366.408 71.892 365.879 72.396 365.591 72.684L364.943 73.332C364.367 73.908 363.671 74.196 362.855 74.196C361.415 74.196 360.695 73.452 360.695 71.964C360.695 71.004 363.744 68.22 369.84 63.612C372.912 61.308 375.311 59.436 377.039 57.996C378.815 56.508 380.447 54.588 381.935 52.236C383.423 49.884 384.168 47.556 384.168 45.252C384.168 42.9 382.968 40.74 380.568 38.772C378.168 36.804 375.888 35.82 373.728 35.82C371.616 35.82 370.031 36.012 368.975 36.396C366.911 37.116 365.639 38.412 365.159 40.284C364.391 43.212 364.008 47.076 364.008 51.876C364.008 56.676 364.295 60.228 364.871 62.532C364.967 63.108 365.016 63.468 365.016 63.612C365.016 65.052 364.295 65.772 362.855 65.772Z" fill="white"/>
<path d="M325.693 73.692C325.165 73.692 324.709 73.452 324.325 72.972C323.941 72.444 323.677 71.964 323.533 71.532C322.381 66.924 321.805 61.404 321.805 54.972C321.805 51.228 322.549 47.604 324.037 44.1C325.525 40.596 327.853 37.62 331.021 35.172C334.189 32.724 337.789 31.5 341.821 31.5C345.901 31.5 349.093 32.46 351.397 34.38C353.749 36.252 354.925 39.036 354.925 42.732C354.925 50.892 349.645 54.972 339.085 54.972C344.989 58.668 349.549 62.364 352.765 66.06C354.205 67.788 354.925 68.892 354.925 69.372C354.925 70.812 354.205 71.532 352.765 71.532C352.189 71.532 351.709 71.34 351.325 70.956C350.941 70.572 350.461 70.044 349.885 69.372C347.869 67.02 345.709 64.956 343.405 63.18C341.149 61.404 337.309 58.86 331.885 55.548C330.445 54.636 329.725 53.724 329.725 52.812C329.725 51.372 330.445 50.652 331.885 50.652H339.085C343.069 50.652 345.973 50.076 347.797 48.924C349.669 47.772 350.605 45.876 350.605 43.236C350.605 40.548 349.909 38.652 348.517 37.548C347.173 36.396 345.109 35.82 342.325 35.82C339.541 35.82 337.117 36.396 335.053 37.548C332.941 38.748 331.261 40.308 330.013 42.228C327.421 46.164 326.125 50.412 326.125 54.972C326.125 60.924 326.653 66.084 327.709 70.452C327.805 70.74 327.853 71.1 327.853 71.532C327.853 72.972 327.133 73.692 325.693 73.692Z" fill="white"/>
<path d="M297.283 37.764C298.675 33.588 300.883 31.5 303.907 31.5C306.307 31.5 307.987 32.94 308.947 35.82C309.811 38.364 310.939 44.604 312.331 54.54C313.819 54.348 314.659 54.252 314.851 54.252C316.291 54.252 317.011 54.972 317.011 56.412C317.011 56.988 316.795 57.468 316.363 57.852C315.931 58.236 315.427 58.476 314.851 58.572L312.979 58.788C313.459 62.772 313.699 65.748 313.699 67.716C313.699 69.684 313.195 71.172 312.187 72.18C311.179 73.188 310.003 73.692 308.659 73.692C307.363 73.692 306.115 73.14 304.915 72.036C303.763 70.932 302.851 69.66 302.179 68.22C300.739 65.1 300.019 62.772 300.019 61.236C300.019 58.308 302.683 56.292 308.011 55.188C306.523 45.012 305.539 39.252 305.059 37.908C304.627 36.516 304.243 35.82 303.907 35.82C302.947 35.82 302.107 36.9 301.387 39.06C299.179 45.684 297.715 50.436 296.995 53.316C296.275 56.196 295.507 59.34 294.691 62.748C293.875 66.156 293.251 68.676 292.819 70.308C292.435 71.892 292.075 72.852 291.739 73.188C291.451 73.524 290.995 73.692 290.371 73.692C288.931 73.692 288.211 72.972 288.211 71.532L288.355 70.668C288.979 68.172 289.699 65.22 290.515 61.812C291.379 58.404 292.003 55.884 292.387 54.252C293.539 49.74 295.171 44.244 297.283 37.764ZM308.659 59.508C305.779 60.132 304.339 60.828 304.339 61.596C304.339 62.46 304.891 63.972 305.995 66.132C307.147 68.292 308.035 69.372 308.659 69.372C309.139 69.372 309.379 68.58 309.379 66.996C309.379 65.364 309.139 62.868 308.659 59.508Z" fill="white"/>
<path d="M237.535 39.132L237.391 38.268C237.391 38.172 237.391 38.076 237.391 37.98C237.391 36.54 238.111 35.82 239.551 35.82C240.847 35.82 241.567 36.468 241.711 37.764C242.383 43.716 243.727 50.484 245.743 58.068C247.759 65.604 249.295 69.372 250.351 69.372C250.831 69.372 251.311 67.692 251.791 64.332C252.319 60.972 252.823 57.204 253.303 53.028C253.831 48.804 254.263 46.092 254.599 44.892C255.463 42.012 257.047 40.572 259.351 40.572C260.743 40.572 261.775 40.956 262.447 41.724C263.023 42.444 263.431 43.14 263.671 43.812C263.959 44.436 264.199 44.964 264.391 45.396C264.631 45.828 265.279 48.156 266.335 52.38C269.119 63.708 270.991 69.372 271.951 69.372C272.335 69.372 272.863 67.428 273.535 63.54C274.207 59.604 275.047 54.564 276.055 48.42C277.111 42.276 277.927 38.1 278.503 35.892C279.127 33.636 279.583 32.34 279.871 32.004C280.207 31.668 280.687 31.5 281.311 31.5C282.751 31.5 283.471 32.22 283.471 33.66C283.471 34.092 283.423 34.5 283.327 34.884C282.127 39.108 280.807 45.756 279.367 54.828C277.975 63.9 277.039 68.94 276.559 69.948C276.079 70.956 275.719 71.652 275.479 72.036C275.287 72.372 274.879 72.732 274.255 73.116C273.631 73.5 272.863 73.692 271.951 73.692C269.551 73.692 267.775 72.252 266.623 69.372C265.807 67.452 264.871 64.404 263.815 60.228C262.807 56.004 261.895 52.404 261.079 49.428C260.311 46.404 259.735 44.892 259.351 44.892C258.967 44.892 258.535 46.596 258.055 50.004C257.623 53.364 257.143 57.132 256.615 61.308C256.135 65.436 255.703 68.004 255.319 69.012C254.935 70.02 254.623 70.764 254.383 71.244C254.143 71.676 253.639 72.204 252.871 72.828C252.151 73.404 251.335 73.692 250.423 73.692C249.559 73.692 248.815 73.572 248.191 73.332C247.615 73.092 247.087 72.684 246.607 72.108C246.127 71.484 245.431 70.308 244.519 68.58C243.655 66.852 242.407 62.796 240.775 56.412C239.191 50.028 238.111 44.268 237.535 39.132Z" fill="white"/>
<path d="M177.697 37.692L177.409 33.732C177.409 32.244 178.129 31.5 179.569 31.5C180.865 31.5 181.585 32.22 181.729 33.66C181.921 34.812 182.017 36.3 182.017 38.124C182.017 39.948 181.729 44.508 181.153 51.804C180.577 59.052 180.289 63.564 180.289 65.34C180.289 67.068 180.529 68.172 181.009 68.652C181.537 69.132 182.353 69.372 183.457 69.372C191.377 69.372 196.993 68.82 200.305 67.716C201.313 67.38 201.889 67.212 202.033 67.212C203.473 67.212 204.193 67.932 204.193 69.372C204.193 70.428 203.473 71.196 202.033 71.676C198.001 73.02 191.809 73.692 183.457 73.692C178.465 73.692 175.969 71.052 175.969 65.772C175.969 63.708 176.257 59.004 176.833 51.66C177.409 44.316 177.697 39.66 177.697 37.692Z" fill="white"/>
<path d="M151.447 37.764C152.839 33.588 155.047 31.5 158.071 31.5C160.471 31.5 162.151 32.94 163.111 35.82C163.975 38.364 165.103 44.604 166.495 54.54C167.983 54.348 168.823 54.252 169.015 54.252C170.455 54.252 171.175 54.972 171.175 56.412C171.175 56.988 170.959 57.468 170.527 57.852C170.095 58.236 169.591 58.476 169.015 58.572L167.143 58.788C167.623 62.772 167.863 65.748 167.863 67.716C167.863 69.684 167.359 71.172 166.351 72.18C165.343 73.188 164.167 73.692 162.823 73.692C161.527 73.692 160.279 73.14 159.079 72.036C157.927 70.932 157.015 69.66 156.343 68.22C154.903 65.1 154.183 62.772 154.183 61.236C154.183 58.308 156.847 56.292 162.175 55.188C160.687 45.012 159.703 39.252 159.223 37.908C158.791 36.516 158.407 35.82 158.071 35.82C157.111 35.82 156.271 36.9 155.551 39.06C153.343 45.684 151.879 50.436 151.159 53.316C150.439 56.196 149.671 59.34 148.855 62.748C148.039 66.156 147.415 68.676 146.983 70.308C146.599 71.892 146.239 72.852 145.903 73.188C145.615 73.524 145.159 73.692 144.535 73.692C143.095 73.692 142.375 72.972 142.375 71.532L142.519 70.668C143.143 68.172 143.863 65.22 144.679 61.812C145.543 58.404 146.167 55.884 146.551 54.252C147.703 49.74 149.335 44.244 151.447 37.764ZM162.823 59.508C159.943 60.132 158.503 60.828 158.503 61.596C158.503 62.46 159.055 63.972 160.159 66.132C161.311 68.292 162.199 69.372 162.823 69.372C163.303 69.372 163.543 68.58 163.543 66.996C163.543 65.364 163.303 62.868 162.823 59.508Z" fill="white"/>
<path d="M132.037 34.452L131.965 33.66C131.965 32.988 132.157 32.46 132.541 32.076C132.973 31.692 133.429 31.5 133.909 31.5C135.109 31.5 135.901 32.22 136.285 33.66C137.149 37.212 137.581 40.5 137.581 43.524C137.581 46.548 137.197 49.812 136.429 53.316C135.661 56.772 134.581 60.06 133.189 63.18C131.797 66.252 129.925 68.772 127.573 70.74C125.221 72.708 122.725 73.692 120.085 73.692C117.493 73.692 115.405 73.068 113.821 71.82C112.285 70.572 111.181 68.772 110.509 66.42C109.357 62.628 108.781 58.068 108.781 52.74C108.781 47.364 109.261 42.204 110.221 37.26C110.365 36.588 110.653 36.06 111.085 35.676C111.517 35.292 111.949 35.1 112.381 35.1C113.821 35.1 114.541 35.82 114.541 37.26L114.325 38.628C113.509 42.66 113.101 46.404 113.101 49.86C113.101 53.268 113.125 55.644 113.173 56.988C113.221 58.284 113.365 59.796 113.605 61.524C113.893 63.204 114.253 64.596 114.685 65.7C115.117 66.756 115.765 67.668 116.629 68.436C117.493 69.156 118.525 69.516 119.725 69.516C122.365 69.516 124.741 68.124 126.853 65.34C128.965 62.508 130.549 59.1 131.605 55.116C132.709 51.132 133.261 47.508 133.261 44.244C133.261 40.932 132.853 37.668 132.037 34.452Z" fill="white"/>
<path d="M77.3475 73.692C75.9075 73.692 75.1875 72.972 75.1875 71.532C75.1875 70.092 75.9075 69.372 77.3475 69.372C86.9475 69.372 93.5475 68.652 97.1475 67.212C98.8275 66.54 99.6675 65.844 99.6675 65.124C99.6675 64.404 99.0675 63.756 97.8675 63.18C96.7155 62.604 94.7475 61.86 91.9635 60.948C89.2275 60.036 87.1395 59.268 85.6995 58.644C78.6915 55.716 75.1875 51.276 75.1875 45.324C75.1875 41.436 76.8675 38.172 80.2275 35.532C83.5875 32.844 87.6195 31.5 92.3235 31.5C94.9155 31.5 97.0755 32.268 98.8035 33.804C100.58 35.34 101.468 37.188 101.468 39.348C101.468 41.508 100.628 43.428 98.9475 45.108C97.2675 46.788 96.1155 47.628 95.4915 47.628C94.0515 47.628 93.3315 46.908 93.3315 45.468C93.3315 44.844 93.9555 43.908 95.2035 42.66C96.4995 41.364 97.1475 40.38 97.1475 39.708C97.1475 38.556 96.6915 37.62 95.7795 36.9C94.9155 36.18 93.7875 35.82 92.3955 35.82C88.8435 35.82 85.7955 36.732 83.2515 38.556C80.7555 40.332 79.5075 42.492 79.5075 45.036C79.5075 47.58 80.2035 49.572 81.5955 51.012C83.0355 52.452 84.6435 53.556 86.4195 54.324C88.2435 55.044 90.0675 55.716 91.8915 56.34C93.7155 56.916 95.2275 57.444 96.4275 57.924C97.6755 58.356 98.9235 58.908 100.172 59.58C102.716 60.972 103.988 62.796 103.988 65.052C103.988 67.98 101.876 70.164 97.6515 71.604C93.4755 72.996 86.7075 73.692 77.3475 73.692Z" fill="white"/>
<path d="M50.6657 37.764C52.0577 33.588 54.2657 31.5 57.2897 31.5C59.6897 31.5 61.3698 32.94 62.3298 35.82C63.1938 38.364 64.3218 44.604 65.7138 54.54C67.2018 54.348 68.0417 54.252 68.2337 54.252C69.6737 54.252 70.3937 54.972 70.3937 56.412C70.3937 56.988 70.1778 57.468 69.7458 57.852C69.3138 58.236 68.8097 58.476 68.2337 58.572L66.3617 58.788C66.8417 62.772 67.0817 65.748 67.0817 67.716C67.0817 69.684 66.5778 71.172 65.5698 72.18C64.5618 73.188 63.3857 73.692 62.0417 73.692C60.7457 73.692 59.4977 73.14 58.2977 72.036C57.1457 70.932 56.2337 69.66 55.5617 68.22C54.1217 65.1 53.4017 62.772 53.4017 61.236C53.4017 58.308 56.0657 56.292 61.3937 55.188C59.9057 45.012 58.9217 39.252 58.4417 37.908C58.0097 36.516 57.6257 35.82 57.2897 35.82C56.3297 35.82 55.4897 36.9 54.7697 39.06C52.5617 45.684 51.0978 50.436 50.3778 53.316C49.6578 56.196 48.8897 59.34 48.0737 62.748C47.2577 66.156 46.6337 68.676 46.2017 70.308C45.8177 71.892 45.4577 72.852 45.1217 73.188C44.8338 73.524 44.3778 73.692 43.7537 73.692C42.3138 73.692 41.5938 72.972 41.5938 71.532L41.7378 70.668C42.3618 68.172 43.0818 65.22 43.8978 61.812C44.7618 58.404 45.3857 55.884 45.7697 54.252C46.9217 49.74 48.5537 44.244 50.6657 37.764ZM62.0417 59.508C59.1617 60.132 57.7217 60.828 57.7217 61.596C57.7217 62.46 58.2738 63.972 59.3778 66.132C60.5298 68.292 61.4177 69.372 62.0417 69.372C62.5217 69.372 62.7617 68.58 62.7617 66.996C62.7617 65.364 62.5217 62.868 62.0417 59.508Z" fill="white"/>
<path d="M26.72 73.692H22.4C19.712 73.692 17.36 73.188 15.344 72.18C13.376 71.124 11.888 69.78 10.88 68.148C8.96 65.028 8 61.692 8 58.14C8 54.588 8.768 51.06 10.304 47.556C11.84 44.052 13.76 41.172 16.064 38.916C18.368 36.612 20.792 34.812 23.336 33.516C25.88 32.172 28.064 31.5 29.888 31.5C31.712 31.5 33.32 31.884 34.712 32.652C36.104 33.42 36.8 34.236 36.8 35.1C36.8 36.54 36.08 37.26 34.64 37.26C34.208 37.26 33.56 37.02 32.696 36.54C31.88 36.06 30.896 35.82 29.744 35.82C28.64 35.82 27.08 36.372 25.064 37.476C23.048 38.58 21.08 40.068 19.16 41.94C17.24 43.812 15.608 46.236 14.264 49.212C12.968 52.188 12.32 55.236 12.32 58.356C12.32 61.428 13.088 64.044 14.624 66.204C16.208 68.316 18.8 69.372 22.4 69.372H26.72C30.992 69.372 34.784 68.82 38.096 67.716C39.104 67.38 39.68 67.212 39.824 67.212C41.264 67.212 41.984 67.932 41.984 69.372C41.984 70.428 41.264 71.196 39.824 71.676C35.792 73.02 31.424 73.692 26.72 73.692Z" fill="white"/>
</svg>
