<svg width="548" height="105" viewBox="0 0 548 105" fill="none" xmlns="http://www.w3.org/2000/svg">
<g clip-path="url(#clip0_393_1926)">
<path d="M508.08 67.26V27.5H547.12C545.24 30.06 543.36 32.3 541.56 34.86L538.44 39.1V35.54H516V43.38H533.2V51.42H516V59.26H535.64H535.88H536.12H536.72H537.04H537.4H538H538.8H539.4C541.92 59.26 544.48 59.26 547.08 59.3C544.2 63.14 541.32 66.94 538.44 70.82V67.26H508.08Z" fill="white"/>
<path d="M465.553 78.18V27.5H493.873C499.953 27.5 504.953 32.58 504.953 38.7C504.953 42.06 503.433 44.82 500.873 47.1L500.593 47.38L501.833 48.66C503.913 50.74 504.953 53.22 504.953 56.1C504.953 62.18 499.913 67.26 493.873 67.26H483.433V70.82C480.553 66.98 477.673 63.18 474.793 59.3L490.193 59.26H493.153C495.393 59.26 496.953 57.42 496.953 55.26C496.953 53.14 495.233 51.42 493.153 51.42H473.433V67.58C473.153 67.9 472.953 68.26 472.673 68.62C472.033 69.62 471.273 70.46 470.593 71.38C468.953 73.66 467.273 75.94 465.553 78.18ZM473.433 35.54V43.38H493.153C495.393 43.38 496.953 41.58 496.953 39.38C496.953 37.3 495.233 35.54 493.153 35.54H473.433Z" fill="white"/>
<path d="M423.026 56.1V38.66C423.026 32.54 428.027 27.5 434.107 27.5H451.346C457.426 27.5 462.426 32.54 462.426 38.66V56.1C462.426 62.22 457.426 67.26 451.346 67.26H434.107C428.027 67.26 423.026 62.22 423.026 56.1ZM434.786 59.26H450.626C452.866 59.26 454.426 57.58 454.426 55.34V39.38C454.426 37.3 452.706 35.54 450.626 35.54H434.786C432.666 35.54 430.906 37.26 430.906 39.38V55.34C430.906 57.5 432.666 59.26 434.786 59.26ZM442.706 51.26L438.866 47.38L442.706 43.58L446.547 47.38L442.706 51.26Z" fill="white"/>
<path d="M380.5 67.26V27.5H408.82C414.9 27.5 419.9 32.58 419.9 38.7C419.9 42.42 418.26 45.94 415.38 48.34L415.06 48.62L415.34 48.94C418.26 52.14 419.78 56.18 419.78 60.5V67.5C417.06 71.02 414.58 74.46 411.86 78.14C411.86 72.18 411.9 68.34 411.9 66.38V64.9V64.78V64.58V64.42V64.34V64.22V63.86V63.78V63.7V63.66V63.58V63.42C411.9 62.46 411.9 61.5 411.86 60.5C411.86 55.38 407.74 51.42 402.74 51.42H398.22V54.98C395.34 51.1 392.42 47.26 389.54 43.38L402.7 43.42C402.82 43.42 402.94 43.38 403.06 43.38H408.1C410.34 43.38 411.9 41.58 411.9 39.38C411.9 37.3 410.18 35.54 408.1 35.54H388.38V67.26H380.5Z" fill="white"/>
<path d="M337.973 78.06V27.5H366.293C372.373 27.5 377.373 32.54 377.373 38.66V56.1C377.373 62.22 372.373 67.26 366.293 67.26H355.573V70.78C352.693 66.94 349.893 63.14 347.013 59.3L362.373 59.26H365.573C367.813 59.26 369.373 57.58 369.373 55.34V39.38C369.373 37.3 367.653 35.54 365.573 35.54H345.853V67.46C343.133 70.98 340.693 74.38 337.973 78.06Z" fill="white"/>
<path d="M295.447 67.26V27.5H323.767C329.847 27.5 334.847 32.58 334.847 38.7C334.847 42.42 333.207 45.94 330.327 48.34L330.007 48.62L330.287 48.94C333.207 52.14 334.727 56.18 334.727 60.5V67.5C332.007 71.02 329.527 74.46 326.807 78.14C326.807 72.18 326.847 68.34 326.847 66.38V64.9V64.78V64.58V64.42V64.34V64.22V63.86V63.78V63.7V63.66V63.58V63.42C326.847 62.46 326.847 61.5 326.807 60.5C326.807 55.38 322.687 51.42 317.687 51.42H313.167V54.98C310.287 51.1 307.367 47.26 304.487 43.38L317.647 43.42C317.767 43.42 317.887 43.38 318.007 43.38H323.047C325.287 43.38 326.847 41.58 326.847 39.38C326.847 37.3 325.127 35.54 323.047 35.54H303.327V67.26H295.447Z" fill="white"/>
<path d="M271.331 70.82V67.26H250.171C252.211 64.54 254.251 61.86 256.291 59.14C258.851 55.78 261.251 52.38 263.811 49.02C269.251 41.7 274.371 34.74 279.811 27.5H292.251V56.22C292.251 57.14 292.331 57.94 292.331 58.86V67.5C289.611 71.02 286.971 74.42 284.371 78.1V34.7L266.051 59.3H279.931C277.051 63.18 274.211 66.98 271.331 70.82Z" fill="white"/>
<path d="M206.917 67.26V27.54H214.797V60.5L215.597 59.06C219.597 51.58 223.637 44.14 227.717 36.74L239.717 60.58V27.5H247.637V67.26H234.197C231.957 63.1 229.917 58.82 227.797 54.5L227.477 53.82L227.077 54.5C225.997 56.3 224.957 58.1 223.877 59.9C222.477 62.34 220.957 64.7 219.637 67.26H206.917Z" fill="white"/>
<path d="M164.968 78.14V51.42H160.288C154.208 51.42 149.208 46.38 149.208 40.26V27.5H157.088V39.5C157.088 41.62 158.848 43.38 160.968 43.38H176.808C178.928 43.38 180.608 41.62 180.608 39.5V27.5H188.608V40.26C188.608 46.38 183.608 51.42 177.528 51.42H172.848V67.5C170.128 71.02 167.528 74.46 164.968 78.14Z" fill="white"/>
<path d="M137.041 70.82V67.26H117.761C111.681 67.26 106.681 62.22 106.681 56.1V38.66C106.681 32.54 111.681 27.5 117.761 27.5H135.001C141.081 27.5 146.081 32.54 146.081 38.66V40.34H138.081V39.38C138.081 37.3 136.361 35.54 134.281 35.54H118.441C116.321 35.54 114.561 37.26 114.561 39.38V56.5C114.561 57.98 115.801 59.26 117.281 59.26H135.041H135.281H135.481H136.041H136.361H136.681H137.241H138.001H138.561C140.921 59.26 143.281 59.26 145.681 59.3C142.801 63.14 139.921 66.94 137.041 70.82Z" fill="white"/>
<path d="M64.1547 78.18V27.5H75.8747L80.6747 32.34C83.0747 34.74 85.2347 37.1 87.6347 39.38C87.6747 39.5 87.7147 39.54 87.7547 39.54L95.5547 47.38V27.5H103.555V67.26H95.5547V58.7L72.7547 35.66L72.0347 34.98V67.5C69.4747 71.06 66.8747 74.66 64.1547 78.18Z" fill="white"/>
<path d="M40.0387 70.82V67.26H18.8787C20.9187 64.54 22.9587 61.86 24.9987 59.14C27.5587 55.78 29.9587 52.38 32.5187 49.02C37.9587 41.7 43.0787 34.74 48.5187 27.5H60.9587V56.22C60.9587 57.14 61.0387 57.94 61.0387 58.86V67.5C58.3187 71.02 55.6787 74.42 53.0787 78.1V34.7L34.7587 59.3H48.6387C45.7587 63.18 42.9187 66.98 40.0387 70.82Z" fill="white"/>
<path d="M0 78.02V27.5H39.04C37.16 30.06 35.28 32.3 33.48 34.86L30.36 39.1V35.54H7.92V43.38H25.12V51.42H7.92V51.82C7.88 53.9 7.84 55.98 7.84 58.02C7.84 59.1 7.88 62.1 7.88 67.42L0 78.02Z" fill="white"/>
</g>
<defs>
<clipPath id="clip0_393_1926">
<rect width="547.12" height="92" fill="white" transform="translate(0 6.5)"/>
</clipPath>
</defs>
</svg>
