<svg width="80" height="87" viewBox="0 0 80 87" fill="none" xmlns="http://www.w3.org/2000/svg">
<g filter="url(#filter0_dd_697_4921)">
<rect x="6" y="1" width="68" height="68" rx="34" fill="white"/>
<path d="M52.3782 35.5256C52.7665 33.4999 53.2761 29.7325 52.3264 27.2606C51.2106 24.3561 48.2791 23.1805 47.2192 22.8419C47.2885 21.8149 47.1324 20.7852 46.7619 19.8248C46.3913 18.8645 45.8153 17.9968 45.0741 17.2825C42.5435 14.7521 38.3642 16.0018 35.1238 17.5028C32.6566 18.6459 28.5004 19.9746 26.8397 19.9746C24.6447 19.9746 23.1699 22.0949 23.1699 25.2508C23.1699 27.9254 23.9998 31.8966 26.6598 32.0763C26.8477 33.0176 26.9869 34.1446 27.1315 35.3162C27.3453 37.5682 27.7573 39.797 28.3628 41.9766C28.3213 42.0178 28.2883 42.0668 28.2659 42.1208C28.2434 42.1748 28.2318 42.2327 28.2319 42.2912C28.2319 44.5799 24.6923 47.254 24.6923 50.3839C24.6923 53.9516 30.9981 54.564 35.9193 52.5883C35.9214 52.665 35.9231 52.742 35.9236 52.8201C35.924 52.8784 35.9359 52.936 35.9586 52.9897C35.9813 53.0434 36.0143 53.0921 36.0558 53.1331C36.0974 53.174 36.1465 53.2063 36.2005 53.2283C36.2545 53.2502 36.3123 53.2613 36.3706 53.2609C36.4289 53.2604 36.4865 53.2486 36.5402 53.2259C36.5939 53.2032 36.6426 53.1702 36.6835 53.1286C36.7245 53.0871 36.7568 53.038 36.7787 52.984C36.8007 52.93 36.8118 52.8722 36.8113 52.8139C36.805 51.2266 36.4856 49.6561 35.8715 48.1924C37.8962 48.2345 39.875 47.5872 41.4834 46.3568C41.5754 46.2835 41.6345 46.1767 41.6478 46.0598C41.6611 45.9429 41.6274 45.8255 41.5542 45.7334C41.4809 45.6414 41.3741 45.5821 41.2573 45.5687C41.1404 45.5553 41.023 45.5889 40.9308 45.6621C39.4531 46.7855 37.6337 47.3659 35.7784 47.3057C29.7249 47.3057 28.7506 41.1832 28.0126 35.2074C27.8442 33.8437 27.6927 32.6197 27.4681 31.6024C27.5445 31.6598 27.6375 31.6909 27.7331 31.6911C27.8287 31.6912 27.9218 31.6604 27.9984 31.6032C28.3227 31.3601 30.0889 31.1904 30.9376 31.9027C31.0278 31.9784 31.1443 32.0151 31.2616 32.0049C31.3789 31.9946 31.4873 31.9382 31.5629 31.848C31.6386 31.7579 31.6754 31.6413 31.6651 31.5241C31.6549 31.4068 31.5985 31.2984 31.5083 31.2227C30.2211 30.1424 27.6224 30.4557 27.334 31.0563C27.301 30.9348 27.2668 30.8159 27.2306 30.702C27.1094 28.6562 28.4784 27.7062 29.9798 28.0418C34.4946 29.0515 35.8475 28.5062 36.8354 28.1081C38.775 27.3264 39.2848 28.346 40.4011 31.9074C40.9591 33.6875 41.3068 34.7069 41.9647 34.9615C42.0847 35.0082 42.2139 35.0262 42.342 35.014C42.4701 35.0018 42.5936 34.9599 42.7026 34.8915C44.0943 34.0788 46.2613 34.5896 46.2613 37.067C46.2613 39.0533 45.0169 40.0562 43.2562 40.0818C43.1946 40.0798 43.1332 40.0906 43.0761 40.1136C43.0189 40.1366 42.9671 40.1713 42.9241 40.2154C42.8811 40.2595 42.8477 40.3121 42.8261 40.3698C42.8045 40.4276 42.7951 40.4891 42.7986 40.5507C43.0663 45.236 43.7923 48.3394 45.0833 50.3172C46.4078 52.3463 48.3582 53.2914 51.221 53.2914C54.9725 53.2914 57.0385 51.734 57.0385 48.906C57.0385 45.7862 51.0146 42.6387 52.3782 35.5256ZM34.8738 48.1494C35.3981 49.2536 35.73 50.4393 35.8551 51.6553C31.1619 53.6494 25.58 52.9895 25.58 50.3839C25.58 47.996 28.1686 45.7191 28.9142 43.4681C29.9912 45.9417 31.7652 47.843 34.8738 48.1494ZM51.221 52.4037C48.6513 52.4037 46.9877 51.6106 45.8267 49.832C44.6636 48.0503 43.9889 45.2191 43.7119 40.9435C45.7292 40.7196 47.149 39.4016 47.149 37.067C47.149 33.9908 44.326 32.922 42.262 34.1208C41.964 33.9253 41.5348 32.5561 41.2482 31.6419C40.2814 28.5574 39.4766 26.0865 36.5036 27.2848C35.6238 27.6394 34.4189 28.1251 30.1735 27.1754C28.1091 26.7136 26.1578 28.1101 26.3484 30.8169C26.3664 30.9287 26.3961 31.0383 26.4371 31.1438C24.873 30.7389 24.0576 27.9793 24.0576 25.2508C24.0576 22.6259 25.1757 20.8623 26.8397 20.8623C28.7879 20.8623 33.1951 19.3748 35.497 18.3083C39.7359 16.3446 42.747 16.2108 44.4464 17.9102C45.1394 18.565 45.6682 19.3741 45.9897 20.2718C46.3112 21.1694 46.4163 22.1302 46.2966 23.0762C46.2741 23.1887 46.2961 23.3057 46.358 23.4024C46.4198 23.4991 46.5167 23.5681 46.6284 23.5948C46.6652 23.6037 50.3194 24.5117 51.4978 27.5789C52.3684 29.8451 51.8769 33.4257 51.5064 35.3584C50.0892 42.7513 56.1508 46.3612 56.1508 48.906C56.1508 51.7969 53.4699 52.4037 51.221 52.4037Z" fill="black"/>
<path d="M31.4681 42.8686C32.2009 43.1594 32.9834 43.3042 33.7717 43.2947C34.9224 43.293 36.0531 42.9946 37.0548 42.4283C37.1576 42.371 37.2335 42.2752 37.2657 42.162C37.298 42.0488 37.2839 41.9274 37.2266 41.8246C37.1694 41.7218 37.0736 41.6459 36.9604 41.6136C36.8472 41.5814 36.7258 41.5955 36.623 41.6527C35.9032 42.069 35.1003 42.3212 34.2718 42.3912C33.4433 42.4613 32.6095 42.3475 31.83 42.058C31.7228 42.0113 31.6014 42.0088 31.4923 42.0512C31.3832 42.0935 31.2952 42.1772 31.2475 42.284C31.1998 42.3908 31.1963 42.5122 31.2376 42.6217C31.2789 42.7311 31.3617 42.8199 31.4681 42.8686Z" fill="black"/>
<path d="M38.3015 31.4003C38.3322 31.3508 38.353 31.2958 38.3625 31.2382C38.3719 31.1807 38.37 31.1219 38.3568 31.0652C38.3435 31.0084 38.3192 30.9548 38.2853 30.9074C38.2513 30.8601 38.2084 30.8198 38.1589 30.7891C36.8757 29.9912 34.6862 30.4591 34.1105 31.0347C34.0273 31.1179 33.9805 31.2308 33.9805 31.3485C33.9805 31.4662 34.0272 31.5791 34.1104 31.6624C34.1937 31.7456 34.3066 31.7924 34.4243 31.7924C34.542 31.7924 34.6549 31.7457 34.7381 31.6625C35.0248 31.3759 36.7493 30.9581 37.6902 31.5429C37.7397 31.5737 37.7948 31.5944 37.8523 31.6039C37.9098 31.6134 37.9686 31.6115 38.0254 31.5982C38.0822 31.585 38.1357 31.5607 38.1831 31.5267C38.2305 31.4928 38.2707 31.4498 38.3015 31.4003Z" fill="black"/>
<path d="M29.8689 35.3636C30.201 35.3636 30.4702 34.8338 30.4702 34.1803C30.4702 33.5268 30.201 32.9971 29.8689 32.9971C29.5368 32.9971 29.2676 33.5268 29.2676 34.1803C29.2676 34.8338 29.5368 35.3636 29.8689 35.3636Z" fill="black"/>
<path d="M36.1755 35.3636C36.5076 35.3636 36.7768 34.8338 36.7768 34.1803C36.7768 33.5268 36.5076 32.9971 36.1755 32.9971C35.8434 32.9971 35.5742 33.5268 35.5742 34.1803C35.5742 34.8338 35.8434 35.3636 36.1755 35.3636Z" fill="black"/>
<path d="M32.1389 36.9969C32.0901 36.965 32.0355 36.9431 31.9782 36.9324C31.9209 36.9217 31.862 36.9223 31.805 36.9343C31.7479 36.9464 31.6938 36.9695 31.6457 37.0024C31.5976 37.0354 31.5565 37.0775 31.5247 37.1263C31.34 37.4215 31.2184 37.7517 31.1676 38.0961C31.1168 38.4406 31.1379 38.7918 31.2296 39.1277C31.532 40.0264 32.956 40.1972 33.8978 40.1508C34.0154 40.1451 34.1258 40.0929 34.2049 40.0057C34.284 39.9184 34.3252 39.8034 34.3194 39.6858C34.3137 39.5682 34.2614 39.4578 34.1742 39.3787C34.087 39.2996 33.972 39.2584 33.8544 39.2642C33.0916 39.3004 32.1665 39.1289 32.0709 38.8446C31.9711 38.4235 32.0421 37.98 32.2683 37.6111C32.3002 37.5623 32.3221 37.5077 32.3328 37.4504C32.3435 37.3931 32.3428 37.3342 32.3308 37.2772C32.3188 37.2202 32.2957 37.166 32.2627 37.118C32.2298 37.0699 32.1877 37.0287 32.1389 36.9969Z" fill="black"/>
<path d="M44.9263 37.5852C44.9948 37.5852 45.0623 37.5693 45.1237 37.5388C45.1851 37.5084 45.2385 37.4641 45.2799 37.4095C45.3214 37.355 45.3496 37.2916 45.3624 37.2243C45.3753 37.157 45.3724 37.0876 45.3539 37.0216C45.2953 36.7306 45.1749 36.4555 45.0008 36.215C44.8267 35.9745 44.603 35.7742 44.3448 35.6276C44.1488 35.5334 43.936 35.4792 43.7188 35.468C43.5017 35.4568 43.2845 35.4889 43.0798 35.5624C42.9703 35.6056 42.8825 35.6905 42.8356 35.7985C42.7887 35.9064 42.7866 36.0286 42.8298 36.1381C42.873 36.2476 42.9579 36.3355 43.0659 36.3824C43.1738 36.4293 43.296 36.4314 43.4055 36.3882C43.5851 36.3332 43.7785 36.3454 43.9498 36.4225C44.0942 36.5168 44.2176 36.64 44.3121 36.7842C44.4067 36.9285 44.4703 37.0908 44.4991 37.2609C44.5252 37.3541 44.5811 37.4363 44.6582 37.4948C44.7353 37.5534 44.8294 37.5851 44.9263 37.5852Z" fill="black"/>
<path d="M44.0385 36.9172C43.9312 36.8688 43.8091 36.865 43.699 36.9066C43.5889 36.9483 43.4998 37.0319 43.4514 37.1392C43.2304 37.7275 43.2245 38.375 43.4349 38.9673C43.4533 39.0226 43.4825 39.0737 43.5206 39.1177C43.5588 39.1618 43.6053 39.1979 43.6575 39.2239C43.7096 39.25 43.7664 39.2655 43.8245 39.2697C43.8826 39.2738 43.941 39.2664 43.9963 39.248C44.0516 39.2296 44.1028 39.2004 44.1468 39.1623C44.1908 39.1241 44.2269 39.0776 44.253 39.0254C44.279 38.9733 44.2946 38.9165 44.2987 38.8584C44.3029 38.8003 44.2955 38.7419 44.2771 38.6866C44.1367 38.3045 44.1315 37.8859 44.2623 37.5004C44.3094 37.3933 44.3123 37.272 44.2704 37.1627C44.2285 37.0535 44.1451 36.9653 44.0385 36.9172Z" fill="black"/>
</g>
<defs>
<filter id="filter0_dd_697_4921" x="0" y="0" width="80" height="87" filterUnits="userSpaceOnUse" color-interpolation-filters="sRGB">
<feFlood flood-opacity="0" result="BackgroundImageFix"/>
<feColorMatrix in="SourceAlpha" type="matrix" values="0 0 0 0 0 0 0 0 0 0 0 0 0 0 0 0 0 0 127 0" result="hardAlpha"/>
<feOffset/>
<feGaussianBlur stdDeviation="0.5"/>
<feColorMatrix type="matrix" values="0 0 0 0 0 0 0 0 0 0 0 0 0 0 0 0 0 0 0.4 0"/>
<feBlend mode="normal" in2="BackgroundImageFix" result="effect1_dropShadow_697_4921"/>
<feColorMatrix in="SourceAlpha" type="matrix" values="0 0 0 0 0 0 0 0 0 0 0 0 0 0 0 0 0 0 127 0" result="hardAlpha"/>
<feMorphology radius="6" operator="erode" in="SourceAlpha" result="effect2_dropShadow_697_4921"/>
<feOffset dy="12"/>
<feGaussianBlur stdDeviation="6"/>
<feColorMatrix type="matrix" values="0 0 0 0 0 0 0 0 0 0 0 0 0 0 0 0 0 0 0.16 0"/>
<feBlend mode="normal" in2="effect1_dropShadow_697_4921" result="effect2_dropShadow_697_4921"/>
<feBlend mode="normal" in="SourceGraphic" in2="effect2_dropShadow_697_4921" result="shape"/>
</filter>
</defs>
</svg>
