<svg width="564" height="105" viewBox="0 0 564 105" fill="none" xmlns="http://www.w3.org/2000/svg">
<path d="M538.602 27.3078H538.102V27.8078V76.8342V77.3342H538.602H556.186H556.686V76.8342V74.9385V74.4385H556.186H541.259V58.7695H553.636H554.136V58.2695V56.3738V55.8738H553.636H541.259V30.2035H556.186H556.686V29.7035V27.8078V27.3078H556.186H538.602Z" fill="white" stroke="white"/>
<path d="M513.145 27.3078H512.645V27.8078V76.8342V77.3342H513.145H515.237C518.364 77.3342 521.214 76.6409 523.777 75.247L523.78 75.2455C526.387 73.8074 528.436 71.8036 529.92 69.2405L529.922 69.2372C531.408 66.6253 532.144 63.6401 532.144 60.2959C532.144 56.1153 531.098 52.6828 528.96 50.0451C527.094 47.742 524.559 46.2148 521.386 45.4471C522.415 44.7858 523.315 43.8504 524.089 42.657L524.089 42.6571L524.092 42.6519C525.183 40.924 525.738 39.1111 525.738 37.2208C525.738 34.0452 524.91 31.5643 523.171 29.8704C521.426 28.1275 518.744 27.3078 515.237 27.3078H513.145ZM521.015 31.8745L521.015 31.8745L521.022 31.8811C522.12 33.019 522.712 34.7471 522.712 37.1555C522.712 39.2589 522.036 41.0076 520.691 42.4342C519.347 43.8595 517.713 44.5651 515.76 44.5651H515.737V30.1381H515.76C518.26 30.1381 519.971 30.7532 521.015 31.8745ZM525.607 50.6514L525.607 50.6514L525.614 50.6579C527.879 52.7993 529.052 56.0242 529.052 60.4267C529.052 63.1402 528.46 65.5618 527.284 67.7034C526.105 69.8506 524.511 71.5272 522.499 72.7435C520.489 73.9151 518.247 74.5038 515.76 74.5038H515.737V47.33H515.76C520.12 47.33 523.376 48.4617 525.607 50.6514Z" fill="white" stroke="white"/>
<path d="M457.153 65.2481L457.153 65.2481L457.156 65.2537C459.507 69.2911 462.682 72.5325 466.675 74.9725C470.675 77.4171 475.014 78.6411 479.683 78.6411C484.39 78.6411 488.727 77.4631 492.685 75.1062L492.687 75.1054C496.682 72.7082 499.837 69.4868 502.145 65.447C504.499 61.3607 505.676 56.9167 505.676 52.1245C505.676 47.4611 504.498 43.1255 502.144 39.1269C499.836 35.0885 496.703 31.8888 492.751 29.5349C488.793 27.1781 484.455 26 479.748 26C475.082 26 470.745 27.2009 466.746 29.6001C462.75 31.9533 459.574 35.1523 457.222 39.1903C454.868 43.1886 453.689 47.503 453.689 52.1245C453.689 56.7871 454.844 61.1643 457.153 65.2481ZM491.123 32.091L491.127 32.0933C494.626 34.184 497.398 37.0192 499.447 40.6062C501.495 44.1903 502.519 48.0703 502.519 52.2552C502.519 56.4827 501.474 60.4057 499.383 64.0333L499.382 64.0349C497.332 67.6221 494.56 70.4797 491.06 72.6142C487.565 74.7023 483.776 75.7454 479.683 75.7454C475.589 75.7454 471.8 74.7023 468.305 72.6142C464.805 70.4798 462.011 67.6219 459.917 64.0341C457.87 60.4068 456.846 56.4835 456.846 52.2552C456.846 48.071 457.869 44.1917 459.917 40.6081C462.01 37.02 464.804 34.1842 468.303 32.0933L468.303 32.0933L468.307 32.091C471.802 29.9604 475.612 28.8957 479.748 28.8957C483.84 28.8957 487.628 29.9598 491.123 32.091Z" fill="white" stroke="white"/>
<path d="M430.186 27.3078H429.686V27.8078V76.8342V77.3342H430.186H432.278H432.778V76.8342V62.5251L446.755 77.1793L446.902 77.3342H447.116H449.927H451.091L450.29 76.4901L434.213 59.5406C436.862 59.4384 439.309 58.7461 441.548 57.4611L441.548 57.4612L441.553 57.4576C443.982 56.0188 445.895 54.0602 447.289 51.589C448.728 49.1136 449.447 46.3908 449.447 43.4308C449.447 38.326 448.024 34.3242 445.112 31.5029C442.246 28.6831 438.182 27.3078 432.997 27.3078H430.186ZM442.903 33.649L442.903 33.649L442.906 33.6523C445.184 35.9297 446.355 39.1861 446.355 43.4962C446.355 45.9418 445.787 48.1657 444.655 50.1781C443.522 52.1503 441.971 53.722 439.997 54.8984C438.029 56.0705 435.852 56.6582 433.454 56.6582H432.778V30.2035H433.128C437.438 30.2035 440.67 31.375 442.903 33.649Z" fill="white" stroke="white"/>
<path d="M395.665 27.3078H395.165V27.8078V76.8342V77.3342H395.665H397.756C402.33 77.3342 406.514 76.2231 410.298 73.9973C414.12 71.7748 417.146 68.7493 419.368 64.9269C421.593 61.1 422.704 56.8946 422.704 52.321C422.704 44.3868 420.542 38.2075 416.152 33.8603C411.805 29.47 405.648 27.3078 397.756 27.3078H395.665ZM416.671 63.4476L416.669 63.4518C414.793 66.8194 412.24 69.4785 409.004 71.4372C405.773 73.3498 402.202 74.3077 398.279 74.3077H398.256V30.2688H398.279C405.156 30.2688 410.37 32.2002 413.998 35.9974L413.998 35.9974L414.002 36.0015C417.675 39.7588 419.547 45.1726 419.547 52.321C419.547 56.3782 418.587 60.0837 416.671 63.4476Z" fill="white" stroke="white"/>
<path d="M369.57 27.3078H369.07V27.8078V76.8342V77.3342H369.57H371.662H372.162V76.8342V62.5251L386.138 77.1793L386.286 77.3342H386.5H389.311H390.474L389.674 76.4901L373.597 59.5406C376.245 59.4384 378.693 58.7461 380.931 57.4611L380.931 57.4612L380.937 57.4576C383.365 56.0188 385.279 54.0602 386.673 51.589C388.112 49.1136 388.83 46.3908 388.83 43.4308C388.83 38.326 387.408 34.3242 384.496 31.5029C381.63 28.6831 377.566 27.3078 372.381 27.3078H369.57ZM382.287 33.649L382.287 33.649L382.29 33.6523C384.567 35.9297 385.739 39.1861 385.739 43.4962C385.739 45.9418 385.171 48.1657 384.039 50.1781C382.906 52.1503 381.355 53.722 379.381 54.8984C377.413 56.0705 375.236 56.6582 372.838 56.6582H372.162V30.2035H372.511C376.822 30.2035 380.054 31.375 382.287 33.649Z" fill="white" stroke="white"/>
<path d="M363.191 77.3334H363.991L363.64 76.614L339.127 26.411L338.677 25.4896L338.228 26.4114L313.78 76.6145L313.43 77.3334H314.23H316.518H316.831L316.967 77.0519L325.917 58.638H351.311L360.455 77.0557L360.593 77.3334H360.903H363.191ZM327.316 55.7423L338.552 32.4766L350.032 55.7423H327.316Z" fill="white" stroke="white"/>
<path d="M299.406 77.8817L299.862 78.9411L300.323 77.884L322.091 28.0078L322.397 27.3078H321.633H319.345H319.016L318.886 27.6094L299.995 71.3268L291.324 51.3403L301.435 28.0066L301.738 27.3078H300.976H298.95H298.623L298.492 27.6077L289.735 47.6683L281.04 27.6089L280.91 27.3078H280.581H278.359H277.598L277.9 28.0063L287.881 51.0783L279.145 71.1334L260.319 27.6093L260.188 27.3078H259.86H257.572H256.812L257.113 28.0057L278.619 77.8819L279.075 78.9409L279.536 77.8838L289.534 54.9515L299.406 77.8817Z" fill="white" stroke="white"/>
<path d="M226.314 27.3078H225.814V27.8078V76.8342V77.3342H226.314H243.636H244.136V76.8342V74.9385V74.4385H243.636H228.971V27.8078V27.3078H228.471H226.314Z" fill="white" stroke="white"/>
<path d="M219.935 77.3334H220.735L220.384 76.614L195.871 26.411L195.421 25.4896L194.972 26.4114L170.524 76.6145L170.174 77.3334H170.974H173.262H173.574L173.711 77.0519L182.661 58.638H208.054L217.199 77.0557L217.337 77.3334H217.647H219.935ZM184.06 55.7423L195.296 32.4766L206.776 55.7423H184.06Z" fill="white" stroke="white"/>
<path d="M165.141 27.8078V27.3078H164.641H161.634H161.323L161.185 27.5878L139.346 72.1638L117.699 27.5893L117.562 27.3078H117.249H114.177H113.677V27.8078V76.8342V77.3342H114.177H116.334H116.834V76.8342V32.5318L138.894 77.9677L139.34 78.8857L139.792 77.9709L161.984 33.0849V76.8342V77.3342H162.484H164.641H165.141V76.8342V27.8078Z" fill="white" stroke="white"/>
<path d="M88.2778 27.3078H87.7778V27.8078V76.8342V77.3342H88.2778H90.3696H90.8696V76.8342V62.5251L104.846 77.1793L104.994 77.3342H105.208H108.019H109.183L108.382 76.4901L92.3049 59.5406C94.9535 59.4384 97.401 58.7461 99.6394 57.4611L99.6394 57.4612L99.6454 57.4576C102.074 56.0188 103.987 54.0602 105.381 51.5889C106.82 49.1136 107.539 46.3908 107.539 43.4308C107.539 38.326 106.116 34.3242 103.204 31.5029C100.338 28.6831 96.2739 27.3078 91.0887 27.3078H88.2778ZM100.995 33.649L100.995 33.649L100.998 33.6523C103.275 35.9297 104.447 39.1861 104.447 43.4962C104.447 45.9419 103.879 48.1657 102.747 50.1782C101.614 52.1503 100.063 53.722 98.0887 54.8984C96.1212 56.0705 93.9441 56.6582 91.5463 56.6582H90.8696V30.2035H91.2194C95.5301 30.2035 98.7621 31.375 100.995 33.649Z" fill="white" stroke="white"/>
<path d="M32.2857 65.2481L32.2856 65.2481L32.2889 65.2537C34.6404 69.2911 37.8152 72.5325 41.8079 74.9725C45.8082 77.4171 50.1473 78.6411 54.8155 78.6411C59.5227 78.6411 63.8604 77.4631 67.8182 75.1062L67.8196 75.1054C71.8148 72.7082 74.9697 69.4868 77.2784 65.447C79.6323 61.3607 80.8092 56.9167 80.8092 52.1245C80.8092 47.461 79.6313 43.1253 77.2772 39.1266C74.969 35.0884 71.8362 31.8887 67.8836 29.5349C63.9258 27.1781 59.5881 26 54.8809 26C50.2152 26 45.8779 27.2009 41.8785 29.6001C37.8831 31.9533 34.7069 35.1523 32.3549 39.1903C30.0005 43.1886 28.8218 47.503 28.8218 52.1245C28.8218 56.7871 29.9774 61.1643 32.2857 65.2481ZM66.2562 32.091L66.26 32.0933C69.7587 34.184 72.5305 37.0192 74.5803 40.6062C76.6283 44.1903 77.6521 48.0703 77.6521 52.2552C77.6521 56.4827 76.607 60.4057 74.5158 64.0333L74.5149 64.0349C72.4651 67.6221 69.6927 70.4797 66.1929 72.6142C62.6978 74.7023 58.9086 75.7454 54.8155 75.7454C50.7224 75.7454 46.9332 74.7023 43.4381 72.6142C39.9383 70.4798 37.1438 67.6219 35.0503 64.0341C33.0026 60.4068 31.9789 56.4834 31.9789 52.2552C31.9789 48.071 33.0023 44.1917 35.0496 40.6081C37.1431 37.02 39.9374 34.1842 43.4364 32.0933L43.4364 32.0933L43.4402 32.091C46.9345 29.9604 50.7446 28.8957 54.8809 28.8957C58.9726 28.8957 62.7611 29.9598 66.2562 32.091Z" fill="white" stroke="white"/>
<path d="M8 27.3078H7.5V27.8078V76.8342V77.3342H8H10.1572H10.6572V76.8342V58.6388H22.904H23.404V58.1388V56.2431V55.7431H22.904H10.6572V30.2035H25.4534H25.9534V29.7035V27.8078V27.3078H25.4534H8Z" fill="white" stroke="white"/>
</svg>
