<svg width="318" height="36" viewBox="0 0 318 36" fill="none" xmlns="http://www.w3.org/2000/svg">
<path d="M3.10742 25.4766C2.50195 25.0273 2.04297 24.4023 1.73047 23.6016C1.4375 22.8008 1.23242 21.9512 1.11523 21.0527C0.998047 20.1543 0.949219 19.2852 0.96875 18.4453C0.988281 17.5859 1.02734 16.873 1.08594 16.3066C1.10547 16.0918 1.1543 15.7012 1.23242 15.1348C1.33008 14.5488 1.42773 13.9336 1.52539 13.2891C1.64258 12.625 1.75 12.0098 1.84766 11.4434C1.96484 10.8574 2.05273 10.457 2.11133 10.2422C2.61914 8.13281 3.17578 6.43359 3.78125 5.14453C4.40625 3.85547 5.03125 2.87891 5.65625 2.21484C6.30078 1.53125 6.93555 1.12109 7.56055 0.984375C8.18555 0.847656 8.74219 0.886719 9.23047 1.10156C9.73828 1.29687 10.1582 1.61914 10.4902 2.06836C10.8418 2.51758 11.0566 3.00586 11.1348 3.5332C11.2324 4.04102 11.1738 4.53906 10.959 5.02734C10.7441 5.51562 10.334 5.88672 9.72852 6.14062C9.63086 6.17969 9.50391 6.21875 9.34766 6.25781C9.21094 6.27734 9.07422 6.28711 8.9375 6.28711C8.80078 6.28711 8.68359 6.27734 8.58594 6.25781C8.50781 6.21875 8.46875 6.17969 8.46875 6.14062V3.09375C8.46875 3.03516 8.36133 3.00586 8.14648 3.00586C7.95117 3.00586 7.79492 3.03516 7.67773 3.09375C7.0332 3.46484 6.44727 4.08008 5.91992 4.93945C5.39258 5.7793 4.92383 6.69727 4.51367 7.69336C4.12305 8.66992 3.80078 9.62695 3.54688 10.5645C3.3125 11.4824 3.16602 12.2148 3.10742 12.7617C3.08789 12.9766 3.06836 13.3086 3.04883 13.7578C3.0293 14.207 3.00977 14.7246 2.99023 15.3105C2.99023 15.877 2.99023 16.4727 2.99023 17.0977C2.99023 17.7227 2.99023 18.3184 2.99023 18.8848C3.00977 19.4512 3.0293 19.9688 3.04883 20.4375C3.06836 20.8867 3.08789 21.2188 3.10742 21.4336C3.10742 21.7656 3.19531 22.1172 3.37109 22.4883C3.54688 22.8398 3.76172 23.1816 4.01562 23.5137C4.26953 23.8262 4.54297 24.1191 4.83594 24.3926C5.12891 24.6465 5.40234 24.832 5.65625 24.9492C6.32031 25.2812 7.0332 25.3594 7.79492 25.1836C8.57617 25.0078 9.33789 24.6562 10.0801 24.1289C10.8418 23.6016 11.5645 22.957 12.248 22.1953C12.9316 21.4336 13.5176 20.6426 14.0059 19.8223C14.5137 19.002 14.8848 18.1914 15.1191 17.3906C15.373 16.5898 15.4414 15.8965 15.3242 15.3105C14.6016 15.2129 13.8789 15.2324 13.1562 15.3691C12.4336 15.4863 11.7109 15.6328 10.9883 15.8086C10.2852 15.9844 9.57227 16.1406 8.84961 16.2773C8.12695 16.3945 7.39453 16.4043 6.65234 16.3066C6.61328 16.1895 6.58398 16.0527 6.56445 15.8965C6.56445 15.7402 6.58398 15.5938 6.62305 15.457C6.66211 15.3008 6.7207 15.1641 6.79883 15.0469C6.89648 14.9297 7.02344 14.8418 7.17969 14.7832C7.88281 14.7832 8.66406 14.6465 9.52344 14.373C10.3828 14.0996 11.252 13.8164 12.1309 13.5234C13.0098 13.2305 13.8594 12.9863 14.6797 12.791C15.5 12.5957 16.2129 12.5859 16.8184 12.7617C16.9355 13.8555 16.8379 15.0566 16.5254 16.3652C16.2129 17.6738 15.7441 18.9434 15.1191 20.1738C14.4941 21.4043 13.7324 22.5371 12.834 23.5723C11.9551 24.6074 10.9883 25.418 9.93359 26.0039C8.87891 26.5703 7.76562 26.8438 6.59375 26.8242C5.44141 26.8047 4.2793 26.3555 3.10742 25.4766ZM22.8178 26.502C21.9975 25.8574 21.3432 25.1055 20.8549 24.2461C20.3862 23.3672 20.0249 22.4297 19.771 21.4336C19.6538 21.5312 19.478 21.6387 19.2436 21.7559C19.0092 21.873 18.7651 21.9707 18.5112 22.0488C18.2768 22.127 18.0424 22.1855 17.8081 22.2246C17.5737 22.2441 17.3979 22.2148 17.2807 22.1367C17.1831 22.0586 17.1538 21.9316 17.1928 21.7559C17.2514 21.5605 17.437 21.2773 17.7495 20.9062C17.7885 20.8477 17.9057 20.7207 18.101 20.5254C18.3159 20.3301 18.5405 20.125 18.7749 19.9102C19.0092 19.6758 19.2241 19.4609 19.4194 19.2656C19.6147 19.0508 19.7319 18.9141 19.771 18.8555C19.9858 18.3672 20.1127 17.8301 20.1518 17.2441C20.2104 16.6582 20.2397 16.0527 20.2397 15.4277C20.2592 14.7832 20.2983 14.1484 20.3569 13.5234C20.4155 12.8984 20.562 12.3125 20.7963 11.7656C20.9331 11.4531 21.187 11.0723 21.5581 10.623C21.9487 10.1543 22.3784 9.70508 22.8471 9.27539C23.3354 8.8457 23.8237 8.46484 24.312 8.13281C24.8198 7.78125 25.2495 7.56641 25.601 7.48828C25.9721 7.41016 26.2358 7.49805 26.392 7.75195C26.5678 8.00586 26.5678 8.49414 26.392 9.2168C26.1772 10.0762 25.8452 10.916 25.396 11.7363C24.9663 12.5371 24.517 13.3379 24.0483 14.1387C23.5795 14.9199 23.1303 15.7012 22.7006 16.4824C22.2905 17.2637 21.9975 18.0547 21.8217 18.8555C21.7241 19.2852 21.6752 19.8125 21.6752 20.4375C21.6752 21.043 21.7436 21.6484 21.8803 22.2539C22.017 22.8594 22.2417 23.416 22.5542 23.9238C22.8667 24.4121 23.2963 24.7539 23.8432 24.9492C24.4682 25.1836 25.0932 25.2422 25.7182 25.125C26.3432 25.0078 26.9487 24.7832 27.5346 24.4512C28.1401 24.1191 28.7163 23.709 29.2631 23.2207C29.81 22.7129 30.3178 22.1953 30.7866 21.668C31.2553 21.1406 31.6752 20.6328 32.0463 20.1445C32.4174 19.6367 32.7299 19.207 32.9838 18.8555L33.4819 19.3828C33.6186 19.5 33.5307 19.832 33.2182 20.3789C32.9252 20.9258 32.4858 21.5508 31.8999 22.2539C31.3335 22.9375 30.6596 23.6406 29.8784 24.3633C29.0971 25.0859 28.2866 25.6914 27.4467 26.1797C26.6264 26.668 25.8061 26.9707 24.9858 27.0879C24.185 27.2051 23.4624 27.0098 22.8178 26.502ZM21.8217 13.7578C21.8022 13.8555 21.7827 14.0312 21.7631 14.2852C21.7631 14.5195 21.7631 14.7734 21.7631 15.0469C21.7631 15.3203 21.7631 15.5742 21.7631 15.8086C21.7827 16.043 21.8022 16.209 21.8217 16.3066C22.4467 15.2324 23.0327 14.0898 23.5795 12.8789C24.1264 11.668 24.5561 10.4473 24.8686 9.2168C24.4194 9.37305 24.0092 9.61719 23.6381 9.94922C23.2866 10.2617 22.9838 10.6328 22.7299 11.0625C22.476 11.4727 22.271 11.9121 22.1147 12.3809C21.978 12.8496 21.8803 13.3086 21.8217 13.7578ZM39.5693 24.9492C39.1396 24.2266 38.8075 23.416 38.5732 22.5176C38.3388 21.5996 38.1728 20.6621 38.0751 19.7051C37.9775 18.748 37.9286 17.8008 37.9286 16.8633C37.9482 15.9258 37.9775 15.0664 38.0165 14.2852C37.7431 14.207 37.4306 14.2266 37.079 14.3438C36.7275 14.4609 36.3564 14.6172 35.9657 14.8125C35.5751 14.9883 35.1747 15.1836 34.7646 15.3984C34.3544 15.6133 33.9735 15.7695 33.622 15.8672C33.2704 15.9648 32.9482 15.9844 32.6552 15.9258C32.3622 15.8672 32.1278 15.6621 31.9521 15.3105C31.7763 14.9785 31.786 14.7148 31.9814 14.5195C32.1962 14.3242 32.4989 14.1777 32.8896 14.0801C33.2997 13.9629 33.7685 13.8848 34.2958 13.8457C34.8232 13.7871 35.3212 13.7188 35.79 13.6406C36.2587 13.5625 36.6591 13.4648 36.9911 13.3477C37.3232 13.2109 37.4989 13.0156 37.5185 12.7617L38.5439 1.59961C38.5634 1.42383 38.6513 1.28711 38.8075 1.18945C38.9833 1.0918 39.1591 1.04297 39.3349 1.04297C39.5302 1.04297 39.6962 1.0918 39.8329 1.18945C39.9892 1.26758 40.0673 1.4043 40.0673 1.59961V11.2383C40.3407 11.2969 40.6044 11.2969 40.8583 11.2383C41.1122 11.1602 41.3661 11.0723 41.62 10.9746C41.8739 10.877 42.1181 10.7988 42.3525 10.7402C42.6064 10.6816 42.87 10.6816 43.1435 10.7402C43.2607 10.9551 43.2411 11.1602 43.0849 11.3555C42.9286 11.5312 42.7724 11.668 42.6161 11.7656L42.0888 12.0879C41.8544 12.2246 41.6005 12.3809 41.3271 12.5566C41.0732 12.7129 40.8193 12.8594 40.5653 12.9961C40.331 13.1328 40.165 13.2207 40.0673 13.2598C40.0478 13.5332 40.0282 14.0117 40.0087 14.6953C40.0087 15.3594 40.0087 16.0723 40.0087 16.834C40.0087 17.5957 40.0087 18.3184 40.0087 19.002C40.0282 19.666 40.0478 20.1348 40.0673 20.4082C40.1454 21.3262 40.3212 22.166 40.5946 22.9277C40.8681 23.6895 41.2392 24.2852 41.7079 24.7148C42.1767 25.1445 42.7333 25.3594 43.3778 25.3594C44.0419 25.3594 44.8134 25.0566 45.6923 24.4512C45.829 24.9004 45.8193 25.3008 45.663 25.6523C45.5068 26.0039 45.2528 26.2871 44.9013 26.502C44.5497 26.6973 44.1298 26.8242 43.6415 26.8828C43.1532 26.9414 42.6552 26.9121 42.1474 26.7949C41.6591 26.6777 41.1806 26.4727 40.7118 26.1797C40.2431 25.8672 39.8622 25.457 39.5693 24.9492ZM63.0233 34.3828C62.5545 33.7773 62.2713 33.0645 62.1737 32.2441C62.076 31.4434 62.0955 30.5938 62.2323 29.6953C62.3885 28.7969 62.6326 27.8887 62.9647 26.9707C63.3162 26.0332 63.6971 25.1445 64.1073 24.3047C64.5174 23.4453 64.9471 22.6641 65.3963 21.9609C65.8455 21.2383 66.2459 20.6426 66.5975 20.1738C67.4373 19.0605 68.1209 18.1035 68.6483 17.3027C69.1756 16.502 69.5272 15.7109 69.703 14.9297C69.8983 14.1289 69.908 13.2793 69.7323 12.3809C69.576 11.4629 69.2147 10.3301 68.6483 8.98242C68.0233 11.6387 67.2518 13.9531 66.3338 15.9258C65.4158 17.8984 64.4783 19.4609 63.5213 20.6133C62.5838 21.7656 61.6756 22.4688 60.7967 22.7227C59.9373 22.9766 59.2342 22.7227 58.6873 21.9609C58.16 21.1797 57.8475 19.8516 57.7498 17.9766C57.6522 16.1016 57.8963 13.6016 58.4823 10.4766C58.5799 10.1641 58.7948 9.98828 59.1268 9.94922C59.4588 9.89062 59.7518 9.90039 60.0057 9.97852V19.6465C60.0057 20.4863 60.1229 21.0039 60.3573 21.1992C60.6112 21.375 60.9139 21.3555 61.2655 21.1406C61.6365 20.9062 62.0272 20.5352 62.4373 20.0273C62.867 19.5195 63.2674 18.9922 63.6385 18.4453C64.0291 17.8984 64.3514 17.4004 64.6053 16.9512C64.8787 16.502 65.035 16.209 65.074 16.0723C65.1717 15.7988 65.2987 15.3789 65.4549 14.8125C65.6307 14.2266 65.8162 13.5723 66.0115 12.8496C66.2264 12.1074 66.4412 11.3359 66.6561 10.5352C66.8905 9.71484 67.1053 8.93359 67.3006 8.19141C67.4959 7.44922 67.6619 6.78516 67.7987 6.19922C67.9549 5.61328 68.0721 5.17383 68.1502 4.88086C68.2088 4.74414 68.3065 4.62695 68.4432 4.5293C68.5994 4.43164 68.7557 4.37305 68.9119 4.35352C69.0877 4.33398 69.244 4.36328 69.3807 4.44141C69.5174 4.51953 69.6151 4.66602 69.6737 4.88086L71.6951 14.5488C71.7342 14.6855 71.8807 14.7148 72.1346 14.6367C72.408 14.5586 72.7401 14.4219 73.1307 14.2266C73.5213 14.0117 73.9412 13.7676 74.3905 13.4941C74.8397 13.2207 75.2596 12.9473 75.6502 12.6738C76.0604 12.4004 76.4119 12.1562 76.7049 11.9414C77.0174 11.7266 77.2127 11.5801 77.2908 11.502C77.9158 11.5996 78.2381 11.7852 78.2576 12.0586C78.2772 12.3125 78.1209 12.625 77.7889 12.9961C77.4569 13.3672 76.9979 13.7676 76.4119 14.1973C75.826 14.6074 75.2401 15.0078 74.6541 15.3984C74.0877 15.7695 73.5701 16.1113 73.1014 16.4238C72.6326 16.7363 72.3397 16.9609 72.2225 17.0977C72.2225 17.293 72.2127 17.5859 72.1932 17.9766C72.1737 18.3672 72.1444 18.8164 72.1053 19.3242C72.0858 19.832 72.0565 20.3594 72.0174 20.9062C71.9783 21.4531 71.9393 21.9805 71.9002 22.4883C71.8612 22.9961 71.8221 23.4453 71.783 23.8359L71.6951 24.7148C71.6561 24.9688 71.5584 25.3789 71.4022 25.9453C71.2655 26.5117 71.0701 27.1465 70.8162 27.8496C70.5623 28.5723 70.2596 29.3242 69.908 30.1055C69.576 30.9062 69.2049 31.6582 68.7948 32.3613C68.4041 33.0645 67.9744 33.6895 67.5057 34.2363C67.0565 34.8027 66.578 35.2031 66.0701 35.4375C65.5819 35.6914 65.074 35.75 64.5467 35.6133C64.0389 35.4766 63.5311 35.0664 63.0233 34.3828ZM64.576 33.3574C64.869 33.7871 65.1912 33.9434 65.5428 33.8262C65.8944 33.709 66.2557 33.4258 66.6268 32.9766C66.9979 32.5273 67.3592 31.9707 67.7108 31.3066C68.0623 30.6621 68.3748 30.0176 68.6483 29.373C68.9412 28.748 69.1756 28.1816 69.3514 27.6738C69.5272 27.1855 69.6346 26.8828 69.6737 26.7656C69.9471 25.457 70.1131 24.0996 70.1717 22.6934C70.2498 21.2871 70.2498 19.9297 70.1717 18.6211C69.6248 19.0898 69.0389 19.6855 68.4139 20.4082C67.7889 21.1113 67.1834 21.8926 66.5975 22.752C66.0311 23.5918 65.5135 24.4805 65.0448 25.418C64.576 26.3555 64.2244 27.2832 63.9901 28.2012C63.7557 29.1387 63.6678 30.0469 63.7264 30.9258C63.8045 31.8047 64.0877 32.6152 64.576 33.3574ZM77.4602 25.4766C76.972 24.7539 76.679 23.9531 76.5813 23.0742C76.4837 22.1758 76.4837 21.2383 76.5813 20.2617C76.679 19.2852 76.8352 18.2988 77.0501 17.3027C77.2649 16.3066 77.4505 15.3496 77.6067 14.4316C77.763 13.4941 77.8509 12.625 77.8704 11.8242C77.8899 11.0039 77.7532 10.3008 77.4602 9.71484C77.304 9.40234 77.0891 9.25586 76.8157 9.27539C76.5618 9.27539 76.2786 9.31445 75.9661 9.39258C75.6731 9.45117 75.3704 9.4707 75.0579 9.45117C74.7649 9.43164 74.5013 9.24609 74.2669 8.89453C74.2864 8.81641 74.3645 8.71875 74.5013 8.60156C74.6184 8.46484 74.7063 8.38672 74.7649 8.36719C76.5227 8.11328 77.9876 8.29883 79.1595 8.92383C80.3509 9.5293 81.2981 10.3984 82.0013 11.5312C82.7044 12.6445 83.1829 13.9238 83.4368 15.3691C83.7102 16.8145 83.8079 18.25 83.7298 19.6758C83.6516 21.1016 83.427 22.4297 83.0559 23.6602C82.6848 24.8711 82.2161 25.8086 81.6497 26.4727C81.0833 27.1367 80.4388 27.4297 79.7161 27.3516C78.9934 27.2734 78.2415 26.6484 77.4602 25.4766ZM78.9837 24.4512C79.0032 24.5098 79.0618 24.5879 79.1595 24.6855C79.2571 24.7832 79.3548 24.8906 79.4524 25.0078C79.5696 25.125 79.677 25.2324 79.7747 25.3301C79.8723 25.4082 79.9407 25.457 79.9798 25.4766C80.7024 25.0664 81.2395 24.5098 81.5911 23.8066C81.9427 23.1035 82.1477 22.3223 82.2063 21.4629C82.2845 20.6035 82.2454 19.7051 82.0891 18.7676C81.9524 17.8105 81.7473 16.8926 81.4739 16.0137C81.2005 15.1348 80.8782 14.3242 80.5071 13.582C80.1555 12.8398 79.8138 12.2344 79.4817 11.7656C79.4622 12.0195 79.4231 12.4102 79.3645 12.9375C79.3059 13.4648 79.2473 14.0605 79.1888 14.7246C79.1302 15.3887 79.0618 16.0918 78.9837 16.834C78.9055 17.5762 78.8274 18.2891 78.7493 18.9727C78.6907 19.6367 78.6321 20.2324 78.5735 20.7598C78.5149 21.2871 78.4759 21.6777 78.4563 21.9316C78.4368 22.127 78.4368 22.3516 78.4563 22.6055C78.4954 22.8398 78.5442 23.0742 78.6028 23.3086C78.6614 23.543 78.72 23.7676 78.7786 23.9824C78.8567 24.1777 78.9251 24.334 78.9837 24.4512ZM85.2175 25.4766C85.1785 25.3984 85.1296 25.2715 85.071 25.0957C85.0124 24.9004 84.9538 24.6953 84.8952 24.4805C84.8562 24.2461 84.8171 24.0312 84.7781 23.8359C84.739 23.6406 84.7195 23.5039 84.7195 23.4258V12.2344C84.7195 12.0586 84.7878 11.9316 84.9245 11.8535C85.0613 11.7754 85.2175 11.7266 85.3933 11.707C85.5691 11.6875 85.7351 11.6875 85.8913 11.707C86.0671 11.7266 86.1843 11.7461 86.2429 11.7656C86.2234 12.0195 86.2136 12.4102 86.2136 12.9375C86.2136 13.4648 86.2038 14.0605 86.1843 14.7246C86.1843 15.3887 86.1843 16.0918 86.1843 16.834C86.2038 17.5762 86.2136 18.2891 86.2136 18.9727V20.7598C86.2136 21.2871 86.2234 21.6777 86.2429 21.9316C86.282 23.0254 86.4285 23.7871 86.6824 24.2168C86.9558 24.6465 87.2781 24.8516 87.6492 24.832C88.0398 24.793 88.4402 24.5781 88.8503 24.1875C89.28 23.7773 89.6706 23.2988 90.0222 22.752C90.3933 22.1855 90.696 21.5996 90.9304 20.9941C91.1843 20.3887 91.3113 19.8516 91.3113 19.3828V11.7656H93.362C93.323 12.2148 93.2742 12.8008 93.2156 13.5234C93.157 14.2461 93.1179 15.0273 93.0984 15.8672C93.0984 16.707 93.1179 17.5664 93.157 18.4453C93.196 19.3047 93.2839 20.125 93.4206 20.9062C93.5769 21.668 93.7917 22.3418 94.0652 22.9277C94.3386 23.4941 94.6902 23.9043 95.1199 24.1582C95.5691 24.3926 96.1062 24.4316 96.7312 24.2754C97.3562 24.0996 98.0984 23.6504 98.9577 22.9277C99.1335 23.4355 99.0652 23.9238 98.7527 24.3926C98.4402 24.8613 98.03 25.2715 97.5222 25.623C97.0144 25.9746 96.4675 26.2383 95.8816 26.4141C95.2956 26.5703 94.7976 26.5996 94.3874 26.502C94.3288 26.4824 94.2312 26.4043 94.0945 26.2676C93.9773 26.1309 93.8992 26.0332 93.8601 25.9746C93.782 25.8379 93.6452 25.584 93.4499 25.2129C93.2546 24.8223 93.0495 24.4121 92.8347 23.9824C92.6199 23.5527 92.4148 23.1426 92.2195 22.752C92.0437 22.3613 91.9167 22.0879 91.8386 21.9316C91.7214 22.1465 91.5261 22.4785 91.2527 22.9277C90.9792 23.3574 90.6472 23.8262 90.2566 24.334C89.8855 24.8223 89.4753 25.291 89.0261 25.7402C88.5964 26.1699 88.157 26.4824 87.7077 26.6777C87.2585 26.8535 86.8191 26.873 86.3894 26.7363C85.9597 26.5801 85.5691 26.1602 85.2175 25.4766ZM98.8635 26.6777C98.551 27.3223 98.2873 27.6445 98.0724 27.6445C97.8576 27.6641 97.6721 27.4492 97.5158 27C97.3791 26.5703 97.2619 25.9551 97.1642 25.1543C97.0861 24.3535 97.0275 23.4648 96.9885 22.4883C96.9689 21.5117 96.9689 20.4863 96.9885 19.4121C97.008 18.3379 97.0373 17.3027 97.0764 16.3066C97.1349 15.3105 97.2033 14.4023 97.2814 13.582C97.3596 12.7422 97.4377 12.0879 97.5158 11.6191C97.6135 11.1309 97.7111 10.8672 97.8088 10.8281C97.9064 10.7891 98.0041 11.0527 98.1017 11.6191C98.7267 11.1504 99.4006 10.7109 100.123 10.3008C100.846 9.87109 101.588 9.51953 102.35 9.24609C103.131 8.95312 103.912 8.76758 104.694 8.68945C105.494 8.61133 106.266 8.67969 107.008 8.89453C107.086 9.14844 107.096 9.44141 107.037 9.77344C106.979 10.1055 106.793 10.3203 106.481 10.418C106.168 10.3594 105.758 10.3301 105.25 10.3301C104.742 10.3301 104.205 10.3691 103.639 10.4473C103.072 10.5254 102.506 10.6523 101.94 10.8281C101.373 11.0039 100.856 11.2383 100.387 11.5312C99.9377 11.8047 99.5666 12.1465 99.2736 12.5566C99.0002 12.9473 98.8635 13.416 98.8635 13.9629V26.6777ZM124.339 25.9746C123.362 24.998 122.747 23.9141 122.493 22.7227C122.259 21.5312 122.2 20.3105 122.317 19.0605C122.454 17.791 122.689 16.5312 123.021 15.2812C123.372 14.0312 123.646 12.8594 123.841 11.7656C123.919 11.3359 123.978 10.8184 124.017 10.2129C124.056 9.60742 124.105 8.97266 124.163 8.30859C124.222 7.64453 124.3 6.99023 124.398 6.3457C124.495 5.70117 124.651 5.125 124.866 4.61719C124.886 4.57812 124.954 4.5 125.071 4.38281C125.189 4.24609 125.286 4.1582 125.364 4.11914C126.712 3.31836 127.923 3.01563 128.997 3.21094C130.071 3.38672 130.999 3.91406 131.78 4.79297C132.562 5.65234 133.187 6.78516 133.655 8.19141C134.144 9.57813 134.466 11.0723 134.622 12.6738C134.778 14.2559 134.769 15.8672 134.593 17.5078C134.437 19.1289 134.105 20.623 133.597 21.9902C133.089 23.3379 132.396 24.4707 131.517 25.3887C130.657 26.3066 129.612 26.8438 128.382 27C127.913 27.0586 127.503 27.0977 127.151 27.1172C126.8 27.1367 126.468 27.1172 126.155 27.0586C125.843 27 125.54 26.8926 125.247 26.7363C124.974 26.5605 124.671 26.3066 124.339 25.9746ZM125.862 24.9492C126.839 25.6133 127.698 25.9062 128.441 25.8281C129.202 25.7305 129.857 25.3789 130.403 24.7734C130.95 24.168 131.4 23.3574 131.751 22.3418C132.103 21.3262 132.366 20.2227 132.542 19.0312C132.737 17.8203 132.845 16.5703 132.864 15.2812C132.884 13.9922 132.845 12.7812 132.747 11.6484C132.65 10.5156 132.483 9.50977 132.249 8.63086C132.034 7.73242 131.771 7.07812 131.458 6.66797C130.735 5.71094 130.101 5.07617 129.554 4.76367C129.026 4.45117 128.558 4.36328 128.148 4.5C127.757 4.61719 127.425 4.92969 127.151 5.4375C126.898 5.92578 126.692 6.52148 126.536 7.22461C126.4 7.9082 126.302 8.65039 126.243 9.45117C126.204 10.2324 126.204 10.9844 126.243 11.707C126.282 12.4102 126.36 13.0449 126.478 13.6113C126.595 14.1777 126.732 14.5684 126.888 14.7832C126.946 14.8613 127.093 14.9883 127.327 15.1641C127.562 15.3398 127.825 15.5449 128.118 15.7793C128.411 15.9941 128.694 16.2383 128.968 16.5117C129.261 16.7852 129.485 17.0684 129.642 17.3613C129.817 17.6348 129.896 17.8984 129.876 18.1523C129.876 18.4062 129.72 18.6406 129.407 18.8555C129.153 19.0312 128.87 19.0801 128.558 19.002C128.265 18.9238 127.962 18.7773 127.65 18.5625C127.337 18.3477 127.034 18.0742 126.741 17.7422C126.448 17.4102 126.175 17.0879 125.921 16.7754C125.667 16.4629 125.442 16.1699 125.247 15.8965C125.071 15.623 124.944 15.4277 124.866 15.3105L124.339 16.3066V22.4004C124.339 22.5176 124.388 22.6934 124.485 22.9277C124.583 23.1621 124.7 23.416 124.837 23.6895C124.993 23.9434 125.159 24.1875 125.335 24.4219C125.511 24.6562 125.687 24.832 125.862 24.9492ZM145.045 25.4766C144.772 25.0078 144.518 24.3633 144.284 23.543C144.069 22.7031 143.874 21.8438 143.698 20.9648C143.522 20.0859 143.376 19.2656 143.258 18.5039C143.141 17.7617 143.063 17.2148 143.024 16.8633C142.965 17.2148 142.848 17.7324 142.672 18.416C142.497 19.0996 142.262 19.8418 141.969 20.6426C141.676 21.4238 141.335 22.2148 140.944 23.0156C140.553 23.7969 140.114 24.4707 139.626 25.0371C139.157 25.6035 138.649 25.9941 138.102 26.209C137.555 26.4238 136.989 26.3457 136.403 25.9746C136.364 25.9551 136.315 25.8867 136.256 25.7695C136.198 25.6328 136.139 25.4863 136.081 25.3301C136.042 25.1543 136.003 24.9883 135.963 24.832C135.924 24.6758 135.905 24.5488 135.905 24.4512V12.2344C135.612 11.6875 135.446 11.2383 135.407 10.8867C135.368 10.5156 135.407 10.2324 135.524 10.0371C135.641 9.8418 135.797 9.72461 135.993 9.68555C136.208 9.62695 136.422 9.63672 136.637 9.71484C136.852 9.77344 137.038 9.89062 137.194 10.0664C137.35 10.2422 137.428 10.4668 137.428 10.7402V22.9277L137.956 24.4512C138.913 23.7871 139.684 22.9766 140.27 22.0195C140.856 21.0625 141.305 20.0371 141.618 18.9434C141.93 17.8496 142.145 16.7266 142.262 15.5742C142.379 14.4219 142.458 13.3086 142.497 12.2344C142.594 12.2148 142.721 12.1953 142.878 12.1758C143.053 12.1562 143.219 12.166 143.376 12.2051C143.532 12.2246 143.669 12.2832 143.786 12.3809C143.922 12.459 144.01 12.5859 144.049 12.7617L146.071 23.4258L147.096 25.4766C147.545 25.1641 147.887 24.6172 148.122 23.8359C148.356 23.0547 148.522 22.127 148.62 21.0527C148.717 19.9785 148.766 18.8164 148.766 17.5664C148.786 16.3164 148.786 15.0664 148.766 13.8164C148.766 12.5664 148.776 11.375 148.795 10.2422C148.835 9.10938 148.932 8.13281 149.088 7.3125C149.245 6.49219 149.479 5.87695 149.792 5.4668C150.124 5.05664 150.573 4.94922 151.139 5.14453C151.53 5.26172 151.715 5.48633 151.696 5.81836C151.676 6.13086 151.569 6.46289 151.374 6.81445C151.198 7.14648 150.993 7.45898 150.758 7.75195C150.544 8.02539 150.426 8.17188 150.407 8.19141V21.9316C150.407 22.3223 150.319 22.7715 150.143 23.2793C149.987 23.7871 149.772 24.2852 149.499 24.7734C149.225 25.2422 148.913 25.6719 148.561 26.0625C148.21 26.4531 147.829 26.7168 147.419 26.8535C147.028 26.9707 146.628 26.9414 146.217 26.7656C145.807 26.5703 145.417 26.1406 145.045 25.4766ZM153.857 26.502C153.877 26.248 153.887 25.8086 153.887 25.1836V21.1992C153.887 20.5742 153.877 20.1348 153.857 19.8809C153.838 19.7637 153.799 19.5098 153.74 19.1191C153.701 18.7285 153.643 18.2695 153.564 17.7422C153.506 17.2148 153.438 16.6582 153.359 16.0723C153.281 15.4863 153.203 14.9297 153.125 14.4023C153.047 13.875 152.979 13.416 152.92 13.0254C152.881 12.6348 152.852 12.3711 152.832 12.2344C152.793 11.9609 152.773 11.6777 152.773 11.3848C152.793 11.0918 152.852 10.8379 152.949 10.623C153.047 10.4082 153.203 10.2617 153.418 10.1836C153.633 10.0859 153.945 10.1055 154.355 10.2422C154.375 10.6523 154.404 11.1406 154.443 11.707C154.502 12.2539 154.57 12.8301 154.648 13.4355C154.727 14.041 154.824 14.6367 154.941 15.2227C155.059 15.8086 155.205 16.3457 155.381 16.834C155.635 16.1113 155.879 15.4766 156.113 14.9297C156.367 14.3633 156.65 13.8457 156.963 13.377C157.275 12.9082 157.627 12.4688 158.018 12.0586C158.408 11.6289 158.877 11.1895 159.424 10.7402C160.107 10.1738 160.674 9.94922 161.123 10.0664C161.592 10.1641 161.973 10.4961 162.266 11.0625C162.578 11.6094 162.832 12.3223 163.027 13.2012C163.223 14.0801 163.398 15.0176 163.555 16.0137C163.711 16.9902 163.867 17.957 164.023 18.9141C164.199 19.8516 164.414 20.6719 164.668 21.375C164.922 22.0586 165.234 22.5664 165.605 22.8984C165.996 23.2109 166.484 23.2207 167.07 22.9277C167.246 23.4551 167.266 23.8457 167.129 24.0996C167.012 24.334 166.797 24.4707 166.484 24.5098C166.191 24.5293 165.84 24.4512 165.43 24.2754C165.02 24.0801 164.609 23.8262 164.199 23.5137C163.809 23.1816 163.457 22.791 163.145 22.3418C162.832 21.8926 162.617 21.4141 162.5 20.9062C162.422 20.5547 162.354 19.9785 162.295 19.1777C162.236 18.377 162.148 17.5176 162.031 16.5996C161.914 15.6816 161.729 14.7832 161.475 13.9043C161.24 13.0059 160.898 12.293 160.449 11.7656L158.398 13.7578C158.34 13.8359 158.193 14.1875 157.959 14.8125C157.744 15.4375 157.5 16.1602 157.227 16.9805C156.953 17.7812 156.689 18.6016 156.436 19.4414C156.182 20.2617 155.996 20.9258 155.879 21.4336C155.84 21.6094 155.791 21.9414 155.732 22.4297C155.674 22.8984 155.615 23.4062 155.557 23.9531C155.498 24.5 155.449 25.0176 155.41 25.5059C155.391 25.9746 155.381 26.3066 155.381 26.502C155.205 26.8535 154.951 27.0293 154.619 27.0293C154.287 27.0293 154.033 26.8535 153.857 26.502ZM183.962 26.502C183.161 26.1895 182.507 25.6328 181.999 24.832C181.511 24.0117 181.159 23.0645 180.944 21.9902C180.729 20.8965 180.651 19.7148 180.71 18.4453C180.768 17.1758 180.934 15.9062 181.208 14.6367C181.501 13.3672 181.892 12.1562 182.38 11.0039C182.868 9.85156 183.444 8.85547 184.108 8.01562C184.772 7.15625 185.515 6.51172 186.335 6.08203C187.175 5.63281 188.073 5.48633 189.03 5.64258C189.069 5.83789 189.138 6.17969 189.235 6.66797C189.352 7.13672 189.46 7.64453 189.558 8.19141C189.675 8.73828 189.772 9.25586 189.851 9.74414C189.948 10.2129 190.017 10.5449 190.056 10.7402C190.095 10.9551 190.026 11.1895 189.851 11.4434C189.675 11.6973 189.46 11.9023 189.206 12.0586C188.972 12.2148 188.737 12.293 188.503 12.293C188.268 12.2734 188.112 12.0977 188.034 11.7656C187.976 11.5703 187.927 11.2871 187.888 10.916C187.849 10.5449 187.8 10.1543 187.741 9.74414C187.683 9.33398 187.604 8.95312 187.507 8.60156C187.409 8.23047 187.272 7.9668 187.097 7.81055C186.921 7.6543 186.696 7.63477 186.423 7.75195C186.169 7.84961 185.856 8.16211 185.485 8.68945C185.368 8.8457 185.222 9.06055 185.046 9.33398C184.89 9.58789 184.724 9.85156 184.548 10.125C184.392 10.3984 184.255 10.6426 184.138 10.8574C184.02 11.0723 183.962 11.1992 183.962 11.2383L182.438 19.3828C182.263 20.2812 182.272 21.0918 182.468 21.8145C182.663 22.5176 182.976 23.123 183.405 23.6309C183.835 24.1191 184.362 24.5098 184.987 24.8027C185.612 25.0762 186.267 25.2324 186.95 25.2715C187.653 25.291 188.356 25.2031 189.059 25.0078C189.782 24.793 190.456 24.4414 191.081 23.9531C191.315 23.7773 191.618 23.4453 191.989 22.957C192.38 22.4688 192.79 21.9219 193.22 21.3164C193.649 20.6914 194.099 20.0469 194.567 19.3828C195.036 18.6992 195.476 18.0938 195.886 17.5664C196.296 17.0195 196.657 16.5801 196.97 16.248C197.282 15.916 197.517 15.7695 197.673 15.8086C197.966 16.668 197.946 17.5762 197.614 18.5332C197.302 19.4902 196.774 20.4277 196.032 21.3457C195.309 22.2441 194.431 23.084 193.395 23.8652C192.38 24.6465 191.315 25.291 190.202 25.7988C189.089 26.3066 187.985 26.6387 186.892 26.7949C185.798 26.9512 184.821 26.8535 183.962 26.502ZM199.102 25.4766C199.063 25.3984 199.014 25.2715 198.955 25.0957C198.897 24.9004 198.838 24.6953 198.78 24.4805C198.741 24.2461 198.702 24.0312 198.662 23.8359C198.623 23.6406 198.604 23.5039 198.604 23.4258V12.2344C198.604 12.0586 198.672 11.9316 198.809 11.8535C198.946 11.7754 199.102 11.7266 199.278 11.707C199.453 11.6875 199.62 11.6875 199.776 11.707C199.952 11.7266 200.069 11.7461 200.127 11.7656C200.108 12.0195 200.098 12.4102 200.098 12.9375C200.098 13.4648 200.088 14.0605 200.069 14.7246C200.069 15.3887 200.069 16.0918 200.069 16.834C200.088 17.5762 200.098 18.2891 200.098 18.9727V20.7598C200.098 21.2871 200.108 21.6777 200.127 21.9316C200.166 23.0254 200.313 23.7871 200.567 24.2168C200.84 24.6465 201.162 24.8516 201.534 24.832C201.924 24.793 202.325 24.5781 202.735 24.1875C203.164 23.7773 203.555 23.2988 203.907 22.752C204.278 22.1855 204.58 21.5996 204.815 20.9941C205.069 20.3887 205.196 19.8516 205.196 19.3828V11.7656H207.246C207.207 12.2148 207.159 12.8008 207.1 13.5234C207.041 14.2461 207.002 15.0273 206.983 15.8672C206.983 16.707 207.002 17.5664 207.041 18.4453C207.08 19.3047 207.168 20.125 207.305 20.9062C207.461 21.668 207.676 22.3418 207.95 22.9277C208.223 23.4941 208.575 23.9043 209.004 24.1582C209.453 24.3926 209.991 24.4316 210.616 24.2754C211.241 24.0996 211.983 23.6504 212.842 22.9277C213.018 23.4355 212.95 23.9238 212.637 24.3926C212.325 24.8613 211.914 25.2715 211.407 25.623C210.899 25.9746 210.352 26.2383 209.766 26.4141C209.18 26.5703 208.682 26.5996 208.272 26.502C208.213 26.4824 208.116 26.4043 207.979 26.2676C207.862 26.1309 207.784 26.0332 207.745 25.9746C207.666 25.8379 207.53 25.584 207.334 25.2129C207.139 24.8223 206.934 24.4121 206.719 23.9824C206.504 23.5527 206.299 23.1426 206.104 22.752C205.928 22.3613 205.801 22.0879 205.723 21.9316C205.606 22.1465 205.411 22.4785 205.137 22.9277C204.864 23.3574 204.532 23.8262 204.141 24.334C203.77 24.8223 203.36 25.291 202.911 25.7402C202.481 26.1699 202.041 26.4824 201.592 26.6777C201.143 26.8535 200.703 26.873 200.274 26.7363C199.844 26.5801 199.453 26.1602 199.102 25.4766ZM212.133 26.502C211.664 26.1504 211.312 25.6621 211.078 25.0371C210.863 24.3926 210.746 23.7969 210.726 23.25C210.726 22.6836 210.805 22.2539 210.961 21.9609C211.117 21.6484 211.332 21.6387 211.605 21.9316C211.566 22.9863 211.762 23.7871 212.191 24.334C212.621 24.8809 213.139 25.2227 213.744 25.3594C214.369 25.4961 215.023 25.457 215.707 25.2422C216.41 25.0273 217.006 24.6953 217.494 24.2461C218.002 23.7773 218.344 23.2109 218.519 22.5469C218.715 21.8828 218.617 21.1699 218.226 20.4082C217.719 19.8418 217.142 19.2949 216.498 18.7676C215.873 18.2207 215.238 17.6836 214.594 17.1562C213.949 16.6289 213.324 16.0918 212.719 15.5449C212.113 14.9785 211.576 14.3828 211.107 13.7578C211.068 13.7188 211.049 13.6406 211.049 13.5234C211.049 13.3867 211.068 13.2988 211.107 13.2598C211.244 13.084 211.439 12.8105 211.693 12.4395C211.947 12.0684 212.24 11.6484 212.572 11.1797C212.904 10.7109 213.256 10.2227 213.627 9.71484C213.998 9.1875 214.349 8.68945 214.681 8.2207C215.014 7.75195 215.306 7.33203 215.56 6.96094C215.834 6.58984 216.039 6.31641 216.176 6.14062C216.449 5.78906 216.723 5.58398 216.996 5.52539C217.289 5.4668 217.699 5.50586 218.226 5.64258C218.207 5.7207 218.129 5.89648 217.992 6.16992C217.855 6.42383 217.758 6.58984 217.699 6.66797C217.543 6.90234 217.25 7.3125 216.82 7.89844C216.39 8.46484 215.931 9.08008 215.443 9.74414C214.955 10.3887 214.496 11.0039 214.066 11.5898C213.637 12.1562 213.334 12.5469 213.158 12.7617C213.002 12.9961 213.06 13.2695 213.334 13.582C213.607 13.8945 213.998 14.2461 214.506 14.6367C215.014 15.0273 215.59 15.4668 216.234 15.9551C216.879 16.4238 217.484 16.9316 218.051 17.4785C218.637 18.0254 219.125 18.6113 219.515 19.2363C219.926 19.8613 220.14 20.5352 220.16 21.2578C220.199 21.9609 219.994 22.7031 219.545 23.4844C219.115 24.2656 218.334 25.0957 217.201 25.9746C216.849 26.248 216.459 26.4824 216.029 26.6777C215.619 26.873 215.189 27 214.74 27.0586C214.291 27.1367 213.842 27.1367 213.392 27.0586C212.943 26.9805 212.523 26.7949 212.133 26.502ZM228.269 24.9492C227.839 24.2266 227.507 23.416 227.273 22.5176C227.038 21.5996 226.872 20.6621 226.775 19.7051C226.677 18.748 226.628 17.8008 226.628 16.8633C226.648 15.9258 226.677 15.0664 226.716 14.2852C226.443 14.207 226.13 14.2266 225.779 14.3438C225.427 14.4609 225.056 14.6172 224.665 14.8125C224.275 14.9883 223.874 15.1836 223.464 15.3984C223.054 15.6133 222.673 15.7695 222.322 15.8672C221.97 15.9648 221.648 15.9844 221.355 15.9258C221.062 15.8672 220.827 15.6621 220.652 15.3105C220.476 14.9785 220.486 14.7148 220.681 14.5195C220.896 14.3242 221.199 14.1777 221.589 14.0801C221.999 13.9629 222.468 13.8848 222.995 13.8457C223.523 13.7871 224.021 13.7188 224.49 13.6406C224.958 13.5625 225.359 13.4648 225.691 13.3477C226.023 13.2109 226.199 13.0156 226.218 12.7617L227.243 1.59961C227.263 1.42383 227.351 1.28711 227.507 1.18945C227.683 1.0918 227.859 1.04297 228.034 1.04297C228.23 1.04297 228.396 1.0918 228.533 1.18945C228.689 1.26758 228.767 1.4043 228.767 1.59961V11.2383C229.04 11.2969 229.304 11.2969 229.558 11.2383C229.812 11.1602 230.066 11.0723 230.32 10.9746C230.574 10.877 230.818 10.7988 231.052 10.7402C231.306 10.6816 231.57 10.6816 231.843 10.7402C231.96 10.9551 231.941 11.1602 231.784 11.3555C231.628 11.5312 231.472 11.668 231.316 11.7656L230.788 12.0879C230.554 12.2246 230.3 12.3809 230.027 12.5566C229.773 12.7129 229.519 12.8594 229.265 12.9961C229.031 13.1328 228.865 13.2207 228.767 13.2598C228.747 13.5332 228.728 14.0117 228.708 14.6953C228.708 15.3594 228.708 16.0723 228.708 16.834C228.708 17.5957 228.708 18.3184 228.708 19.002C228.728 19.666 228.747 20.1348 228.767 20.4082C228.845 21.3262 229.021 22.166 229.294 22.9277C229.568 23.6895 229.939 24.2852 230.408 24.7148C230.876 25.1445 231.433 25.3594 232.077 25.3594C232.742 25.3594 233.513 25.0566 234.392 24.4512C234.529 24.9004 234.519 25.3008 234.363 25.6523C234.206 26.0039 233.952 26.2871 233.601 26.502C233.249 26.6973 232.829 26.8242 232.341 26.8828C231.853 26.9414 231.355 26.9121 230.847 26.7949C230.359 26.6777 229.88 26.4727 229.411 26.1797C228.943 25.8672 228.562 25.457 228.269 24.9492ZM235.001 25.4766C234.512 24.7539 234.219 23.9531 234.122 23.0742C234.024 22.1758 234.024 21.2383 234.122 20.2617C234.219 19.2852 234.376 18.2988 234.591 17.3027C234.805 16.3066 234.991 15.3496 235.147 14.4316C235.303 13.4941 235.391 12.625 235.411 11.8242C235.43 11.0039 235.294 10.3008 235.001 9.71484C234.844 9.40234 234.63 9.25586 234.356 9.27539C234.102 9.27539 233.819 9.31445 233.507 9.39258C233.214 9.45117 232.911 9.4707 232.598 9.45117C232.305 9.43164 232.042 9.24609 231.807 8.89453C231.827 8.81641 231.905 8.71875 232.042 8.60156C232.159 8.46484 232.247 8.38672 232.305 8.36719C234.063 8.11328 235.528 8.29883 236.7 8.92383C237.891 9.5293 238.839 10.3984 239.542 11.5312C240.245 12.6445 240.723 13.9238 240.977 15.3691C241.251 16.8145 241.348 18.25 241.27 19.6758C241.192 21.1016 240.968 22.4297 240.596 23.6602C240.225 24.8711 239.757 25.8086 239.19 26.4727C238.624 27.1367 237.979 27.4297 237.257 27.3516C236.534 27.2734 235.782 26.6484 235.001 25.4766ZM236.524 24.4512C236.544 24.5098 236.602 24.5879 236.7 24.6855C236.798 24.7832 236.895 24.8906 236.993 25.0078C237.11 25.125 237.218 25.2324 237.315 25.3301C237.413 25.4082 237.481 25.457 237.52 25.4766C238.243 25.0664 238.78 24.5098 239.132 23.8066C239.483 23.1035 239.688 22.3223 239.747 21.4629C239.825 20.6035 239.786 19.7051 239.63 18.7676C239.493 17.8105 239.288 16.8926 239.014 16.0137C238.741 15.1348 238.419 14.3242 238.048 13.582C237.696 12.8398 237.354 12.2344 237.022 11.7656C237.003 12.0195 236.964 12.4102 236.905 12.9375C236.846 13.4648 236.788 14.0605 236.729 14.7246C236.671 15.3887 236.602 16.0918 236.524 16.834C236.446 17.5762 236.368 18.2891 236.29 18.9727C236.231 19.6367 236.173 20.2324 236.114 20.7598C236.055 21.2871 236.016 21.6777 235.997 21.9316C235.977 22.127 235.977 22.3516 235.997 22.6055C236.036 22.8398 236.085 23.0742 236.143 23.3086C236.202 23.543 236.26 23.7676 236.319 23.9824C236.397 24.1777 236.466 24.334 236.524 24.4512ZM250.639 26.502C250.678 25.7207 250.697 24.9004 250.697 24.041C250.717 23.1621 250.707 22.2832 250.668 21.4043C250.629 20.5254 250.561 19.6562 250.463 18.7969C250.385 17.918 250.268 17.0879 250.112 16.3066C249.838 14.8809 249.487 13.7969 249.057 13.0547C248.647 12.293 248.207 11.8926 247.738 11.8535C247.289 11.7949 246.86 12.0977 246.449 12.7617C246.059 13.4062 245.756 14.4219 245.541 15.8086C245.502 16.0234 245.453 16.3555 245.395 16.8047C245.336 17.2539 245.268 17.7617 245.19 18.3281C245.131 18.8945 245.063 19.5 244.985 20.1445C244.926 20.7695 244.858 21.3652 244.779 21.9316C244.721 22.498 244.672 23.0059 244.633 23.4551C244.594 23.9043 244.565 24.2363 244.545 24.4512C244.428 24.7637 244.203 24.9492 243.871 25.0078C243.559 25.0664 243.266 25.0469 242.992 24.9492L241.996 9.71484C241.977 9.46094 242.035 9.24609 242.172 9.07031C242.309 8.875 242.465 8.74805 242.641 8.68945C242.817 8.61133 242.992 8.61133 243.168 8.68945C243.344 8.76758 243.461 8.94336 243.52 9.2168L244.545 13.7578C245.151 12.293 245.707 11.2578 246.215 10.6523C246.742 10.0273 247.231 9.70508 247.68 9.68555C248.129 9.66602 248.559 9.88086 248.969 10.3301C249.379 10.7793 249.76 11.3262 250.112 11.9707C250.483 12.5957 250.834 13.2695 251.166 13.9922C251.498 14.6953 251.83 15.3008 252.162 15.8086C252.963 13.0547 253.871 11.0723 254.887 9.86133C255.922 8.63086 256.908 8.12305 257.846 8.33789C258.803 8.55273 259.643 9.4707 260.365 11.0918C261.088 12.6934 261.567 14.9492 261.801 17.8594C261.84 18.3086 261.869 18.9043 261.889 19.6465C261.908 20.3691 261.918 21.082 261.918 21.7852C261.918 22.4883 261.908 23.1035 261.889 23.6309C261.869 24.1387 261.84 24.4121 261.801 24.4512L261.303 24.9492L260.278 23.9531C260.395 22.9375 260.424 21.8828 260.365 20.7891C260.326 19.6758 260.219 18.5625 260.043 17.4492C259.887 16.3359 259.692 15.252 259.457 14.1973C259.223 13.1426 258.988 12.1562 258.754 11.2383C258.481 10.457 258.149 10.0078 257.758 9.89062C257.367 9.75391 256.967 9.82227 256.557 10.0957C256.166 10.3496 255.805 10.7402 255.473 11.2676C255.141 11.7754 254.887 12.2734 254.711 12.7617C254.594 13.0547 254.447 13.4453 254.272 13.9336C254.115 14.4219 253.959 14.9102 253.803 15.3984C253.647 15.8867 253.51 16.3164 253.393 16.6875C253.276 17.0586 253.207 17.2734 253.188 17.332C253.11 17.6836 253.012 18.2891 252.895 19.1484C252.797 20.0078 252.69 20.9258 252.572 21.9023C252.475 22.8789 252.387 23.8066 252.309 24.6855C252.231 25.5449 252.182 26.1504 252.162 26.502C252.162 26.7949 252.084 26.9609 251.928 27C251.772 27.0391 251.596 27.0195 251.401 26.9414C251.186 26.8633 250.932 26.7168 250.639 26.502ZM263.23 25.4766C263.191 25.3984 263.142 25.252 263.084 25.0371C263.025 24.8027 262.966 24.5488 262.908 24.2754C262.849 24.002 262.8 23.7383 262.761 23.4844C262.722 23.2305 262.703 23.0449 262.703 22.9277V8.68945C262.703 8.49414 262.791 8.35742 262.966 8.2793C263.142 8.20117 263.338 8.16211 263.552 8.16211C263.787 8.14258 263.992 8.14258 264.168 8.16211C264.363 8.18164 264.47 8.19141 264.49 8.19141V23.9531C264.49 24.2852 264.597 24.5586 264.812 24.7734C265.027 24.9883 265.281 25.1641 265.574 25.3008C265.867 25.418 266.17 25.4961 266.482 25.5352C266.795 25.5547 267.058 25.5352 267.273 25.4766C267.547 25.8867 267.537 26.2188 267.244 26.4727C266.97 26.707 266.57 26.8438 266.043 26.8828C265.535 26.9023 264.998 26.8047 264.431 26.5898C263.884 26.3555 263.484 25.9844 263.23 25.4766ZM262.205 3.5918C262.205 3.02539 262.429 2.66406 262.879 2.50781C263.328 2.33203 263.787 2.35156 264.256 2.56641V4.11914C264.197 4.13867 264.09 4.1582 263.933 4.17773C263.797 4.17773 263.64 4.17773 263.465 4.17773C263.308 4.17773 263.152 4.17773 262.996 4.17773C262.859 4.1582 262.761 4.13867 262.703 4.11914C262.625 4.09961 262.517 4.02148 262.381 3.88477C262.263 3.74805 262.205 3.65039 262.205 3.5918ZM269.728 25.1836C269.005 24.2852 268.614 23.3965 268.556 22.5176C268.497 21.6191 268.634 20.7598 268.966 19.9395C269.298 19.1191 269.757 18.3477 270.343 17.625C270.948 16.8828 271.534 16.2285 272.101 15.6621C272.687 15.0957 273.194 14.6172 273.624 14.2266C274.073 13.8359 274.308 13.5723 274.327 13.4355C274.112 13.6699 273.81 13.875 273.419 14.0508C273.028 14.2266 272.599 14.3535 272.13 14.4316C271.681 14.4902 271.212 14.4805 270.724 14.4023C270.255 14.3242 269.835 14.1387 269.464 13.8457C269.112 13.5527 268.839 13.1426 268.644 12.6152C268.448 12.0879 268.4 11.4043 268.497 10.5645C268.771 10.252 269.005 10.1152 269.2 10.1543C269.415 10.1934 269.61 10.3203 269.786 10.5352C269.982 10.75 270.157 11.0332 270.314 11.3848C270.489 11.7168 270.675 12.0391 270.87 12.3516C271.085 12.6445 271.319 12.8887 271.573 13.084C271.847 13.2793 272.159 13.3379 272.511 13.2598C273.038 13.1621 273.575 12.8984 274.122 12.4688C274.669 12.0391 275.235 11.6094 275.821 11.1797C276.407 10.75 277.023 10.3984 277.667 10.125C278.331 9.85156 279.025 9.8125 279.747 10.0078C280.255 10.1445 280.489 10.3691 280.45 10.6816C280.411 10.9941 280.216 11.3555 279.864 11.7656C279.532 12.1562 279.083 12.5664 278.517 12.9961C277.97 13.4062 277.423 13.7969 276.876 14.168C276.349 14.5195 275.87 14.8223 275.441 15.0762C275.03 15.3105 274.796 15.4473 274.737 15.4863C274.288 15.8184 273.829 16.1699 273.36 16.541C272.892 16.9121 272.452 17.3223 272.042 17.7715C271.651 18.2012 271.31 18.6602 271.017 19.1484C270.743 19.6172 270.568 20.1152 270.489 20.6426C270.314 21.7363 270.323 22.625 270.519 23.3086C270.734 23.9922 271.085 24.5195 271.573 24.8906C272.062 25.2422 272.648 25.4668 273.331 25.5645C274.034 25.6621 274.786 25.6621 275.587 25.5645C276.388 25.4668 277.208 25.291 278.048 25.0371C278.907 24.7832 279.718 24.5098 280.48 24.2168C281.261 23.9043 281.974 23.582 282.618 23.25C283.282 22.918 283.819 22.6152 284.23 22.3418C284.484 22.3418 284.728 22.4004 284.962 22.5176C285.196 22.6348 285.362 22.791 285.46 22.9863C285.577 23.1621 285.587 23.3574 285.489 23.5723C285.411 23.7676 285.187 23.9434 284.816 24.0996C284.21 24.334 283.497 24.627 282.677 24.9785C281.876 25.3301 281.017 25.6719 280.099 26.0039C279.181 26.3359 278.234 26.6191 277.257 26.8535C276.3 27.0684 275.362 27.1758 274.444 27.1758C273.526 27.1758 272.657 27.0293 271.837 26.7363C271.036 26.4434 270.333 25.9258 269.728 25.1836ZM291.108 26.502C290.288 25.8574 289.633 25.1055 289.145 24.2461C288.676 23.3672 288.315 22.4297 288.061 21.4336C287.944 21.5312 287.768 21.6387 287.534 21.7559C287.299 21.873 287.055 21.9707 286.801 22.0488C286.567 22.127 286.333 22.1855 286.098 22.2246C285.864 22.2441 285.688 22.2148 285.571 22.1367C285.473 22.0586 285.444 21.9316 285.483 21.7559C285.542 21.5605 285.727 21.2773 286.04 20.9062C286.079 20.8477 286.196 20.7207 286.391 20.5254C286.606 20.3301 286.831 20.125 287.065 19.9102C287.299 19.6758 287.514 19.4609 287.71 19.2656C287.905 19.0508 288.022 18.9141 288.061 18.8555C288.276 18.3672 288.403 17.8301 288.442 17.2441C288.501 16.6582 288.53 16.0527 288.53 15.4277C288.549 14.7832 288.588 14.1484 288.647 13.5234C288.706 12.8984 288.852 12.3125 289.086 11.7656C289.223 11.4531 289.477 11.0723 289.848 10.623C290.239 10.1543 290.669 9.70508 291.137 9.27539C291.626 8.8457 292.114 8.46484 292.602 8.13281C293.11 7.78125 293.54 7.56641 293.891 7.48828C294.262 7.41016 294.526 7.49805 294.682 7.75195C294.858 8.00586 294.858 8.49414 294.682 9.2168C294.467 10.0762 294.135 10.916 293.686 11.7363C293.256 12.5371 292.807 13.3379 292.338 14.1387C291.87 14.9199 291.42 15.7012 290.991 16.4824C290.581 17.2637 290.288 18.0547 290.112 18.8555C290.014 19.2852 289.965 19.8125 289.965 20.4375C289.965 21.043 290.034 21.6484 290.17 22.2539C290.307 22.8594 290.532 23.416 290.844 23.9238C291.157 24.4121 291.586 24.7539 292.133 24.9492C292.758 25.1836 293.383 25.2422 294.008 25.125C294.633 25.0078 295.239 24.7832 295.825 24.4512C296.43 24.1191 297.006 23.709 297.553 23.2207C298.1 22.7129 298.608 22.1953 299.077 21.668C299.545 21.1406 299.965 20.6328 300.336 20.1445C300.708 19.6367 301.02 19.207 301.274 18.8555L301.772 19.3828C301.909 19.5 301.821 19.832 301.508 20.3789C301.215 20.9258 300.776 21.5508 300.19 22.2539C299.624 22.9375 298.95 23.6406 298.169 24.3633C297.387 25.0859 296.577 25.6914 295.737 26.1797C294.917 26.668 294.096 26.9707 293.276 27.0879C292.475 27.2051 291.753 27.0098 291.108 26.502ZM290.112 13.7578C290.092 13.8555 290.073 14.0312 290.053 14.2852C290.053 14.5195 290.053 14.7734 290.053 15.0469C290.053 15.3203 290.053 15.5742 290.053 15.8086C290.073 16.043 290.092 16.209 290.112 16.3066C290.737 15.2324 291.323 14.0898 291.87 12.8789C292.417 11.668 292.846 10.4473 293.159 9.2168C292.71 9.37305 292.299 9.61719 291.928 9.94922C291.577 10.2617 291.274 10.6328 291.02 11.0625C290.766 11.4727 290.561 11.9121 290.405 12.3809C290.268 12.8496 290.17 13.3086 290.112 13.7578ZM300.506 25.4766C300.272 25.0273 300.125 24.4121 300.066 23.6309C300.008 22.8301 300.018 21.9414 300.096 20.9648C300.193 19.9883 300.35 18.9727 300.564 17.918C300.799 16.8633 301.082 15.8574 301.414 14.9004C301.766 13.9434 302.156 13.0742 302.586 12.293C303.035 11.4922 303.523 10.877 304.051 10.4473C304.578 9.99805 305.145 9.7832 305.75 9.80273C306.355 9.80273 306.98 10.1152 307.625 10.7402L308.621 2.56641C308.641 2.48828 308.719 2.39062 308.855 2.27344C308.992 2.13672 309.09 2.06836 309.148 2.06836C309.227 2.06836 309.324 2.08789 309.441 2.12695C309.559 2.16602 309.666 2.21484 309.764 2.27344C309.881 2.3125 309.979 2.36133 310.057 2.41992C310.135 2.47852 310.174 2.52734 310.174 2.56641V16.834C310.174 17.9082 310.359 18.8359 310.73 19.6172C311.102 20.3984 311.59 20.9746 312.195 21.3457C312.801 21.7168 313.494 21.8438 314.275 21.7266C315.076 21.5898 315.906 21.1504 316.766 20.4082C317.039 20.4082 317.166 20.5352 317.147 20.7891C317.127 21.0234 317.01 21.3066 316.795 21.6387C316.6 21.9707 316.307 22.3125 315.916 22.6641C315.545 23.0156 315.125 23.3086 314.656 23.543C314.207 23.7578 313.719 23.875 313.191 23.8945C312.684 23.9141 312.186 23.7578 311.697 23.4258C311.307 23.1719 310.955 22.8691 310.643 22.5176C310.33 22.166 310.047 21.7852 309.793 21.375C309.559 20.9648 309.334 20.5449 309.119 20.1152C308.924 19.6855 308.758 19.2656 308.621 18.8555C308.543 19.0312 308.406 19.2949 308.211 19.6465C308.035 19.9785 307.83 20.3691 307.596 20.8184C307.361 21.248 307.117 21.707 306.863 22.1953C306.609 22.6641 306.365 23.123 306.131 23.5723C305.897 24.002 305.682 24.3926 305.486 24.7441C305.291 25.0762 305.145 25.3203 305.047 25.4766C304.773 25.9844 304.432 26.3652 304.022 26.6191C303.611 26.873 303.182 27 302.732 27C302.303 27 301.883 26.873 301.473 26.6191C301.082 26.3652 300.76 25.9844 300.506 25.4766ZM302.029 24.4512C302.049 24.5098 302.098 24.5879 302.176 24.6855C302.254 24.7637 302.342 24.8418 302.439 24.9199C302.537 24.9785 302.635 25.0176 302.732 25.0371C302.85 25.0566 302.957 25.0273 303.055 24.9492C304.012 24.2266 304.783 23.3672 305.369 22.3711C305.975 21.375 306.463 20.3203 306.834 19.207C307.205 18.0938 307.498 16.9609 307.713 15.8086C307.928 14.6367 308.133 13.5234 308.328 12.4688C307.273 12.332 306.365 12.4199 305.604 12.7324C304.861 13.0254 304.236 13.4746 303.729 14.0801C303.221 14.6855 302.82 15.4082 302.527 16.248C302.234 17.0879 302.029 17.9766 301.912 18.9141C301.795 19.832 301.746 20.7793 301.766 21.7559C301.805 22.7129 301.893 23.6113 302.029 24.4512Z" fill="white"/>
</svg>
