<svg width="25" height="24" viewBox="0 0 25 24" fill="none" xmlns="http://www.w3.org/2000/svg">
<g clip-path="url(#clip0_1020_2426)">
<path d="M24.5002 12.2864C24.5002 11.4777 24.4202 10.643 24.2869 9.86035H12.7402V14.4777H19.3536C19.0869 15.9647 18.2069 17.269 16.9002 18.1038L20.8469 21.1038C23.1669 18.9908 24.5002 15.9125 24.5002 12.2864Z" fill="#4280EF"/>
<path d="M12.74 23.9735C16.0466 23.9735 18.82 22.9039 20.8466 21.0778L16.9 18.1039C15.8066 18.8343 14.3933 19.2517 12.74 19.2517C9.53997 19.2517 6.84664 17.1387 5.85997 14.3213L1.80664 17.3735C3.88664 21.4169 8.09997 23.9735 12.74 23.9735Z" fill="#34A353"/>
<path d="M5.85919 14.2955C5.35253 12.8086 5.35253 11.1912 5.85919 9.70424L1.80586 6.62598C0.0725261 10.0173 0.0725261 14.0086 1.80586 17.3738L5.85919 14.2955Z" fill="#F6B704"/>
<path d="M12.74 4.77367C14.4733 4.74759 16.18 5.39976 17.4333 6.57367L20.9266 3.1302C18.7133 1.09541 15.78 -0.00024103 12.74 0.0258459C8.09997 0.0258459 3.88664 2.58237 1.80664 6.62585L5.85997 9.70411C6.84664 6.86063 9.53997 4.77367 12.74 4.77367Z" fill="#E54335"/>
</g>
<defs>
<clipPath id="clip0_1020_2426">
<rect width="24" height="24" fill="white" transform="translate(0.5)"/>
</clipPath>
</defs>
</svg>
