<svg width="25" height="24" viewBox="0 0 25 24" fill="none" xmlns="http://www.w3.org/2000/svg">
<path d="M16.5865 19.125L13.5721 16.1106M19.875 16.3846L16.5865 13.0962L13.5721 16.1106M13.5721 16.1106L8.91346 11.4519L6.17308 14.1923L5.625 14.7404M5.625 14.7404L5.625 7.06731C5.625 5.85653 6.60653 4.875 7.81731 4.875L17.6827 4.87502C18.8935 4.87502 19.875 5.85655 19.875 7.06733L19.875 16.9327C19.875 18.1435 18.8935 19.125 17.6827 19.125L7.81731 19.125C6.60653 19.125 5.625 18.1435 5.625 16.9327L5.625 14.7404ZM17.6827 8.71154C17.6827 9.61962 16.9465 10.3558 16.0385 10.3558C15.1304 10.3558 14.3942 9.61962 14.3942 8.71154C14.3942 7.80345 15.1304 7.0673 16.0385 7.0673C16.9465 7.0673 17.6827 7.80345 17.6827 8.71154Z" stroke="#4E46B4" stroke-linecap="round" stroke-linejoin="round"/>
</svg>
