<svg width="547" height="105" viewBox="0 0 547 105" fill="none" xmlns="http://www.w3.org/2000/svg">
<path d="M472.74 64.2566H472.753L472.766 64.2559C476.747 64.0433 483.755 61.5987 494.85 53.414L494.928 53.3565L494.978 53.2741C495.113 53.0553 495.22 52.8698 495.295 52.7168C495.359 52.587 495.44 52.4018 495.44 52.2135C495.44 52 495.323 51.8394 495.193 51.7519C495.077 51.6744 494.954 51.6521 494.859 51.6521C494.722 51.6521 494.607 51.7002 494.551 51.7255C494.481 51.757 494.41 51.7973 494.343 51.838C494.209 51.9197 494.049 52.0313 493.876 52.1535L493.876 52.1533L493.867 52.1606C491.385 54.0111 487.647 56.5128 483.724 58.5493C479.782 60.5959 475.73 62.1309 472.597 62.1309H472.297C471.474 62.1111 470.643 61.9102 470.034 61.5331C469.44 61.1648 469.081 60.6495 469.081 59.9498C469.081 59.6558 469.14 59.3123 469.287 58.9292C469.308 58.9229 469.327 58.9165 469.346 58.9102C469.482 58.8653 469.641 58.8027 469.816 58.7271C470.169 58.5754 470.614 58.3604 471.114 58.0988C472.116 57.5753 473.364 56.8545 474.584 56.0546C475.8 55.2566 477.005 54.3696 477.912 53.5125C478.364 53.0844 478.756 52.6514 479.038 52.2294C479.314 51.8157 479.519 51.3621 479.519 50.9036C479.519 50.6688 479.453 50.4495 479.364 50.2714C479.241 50.0235 479.034 49.8319 478.824 49.6873C478.609 49.5392 478.357 49.4171 478.099 49.32C477.584 49.127 476.984 49.0119 476.47 49.0119H476.287H476.271L476.256 49.0129C475.403 49.0663 474.409 49.4814 473.416 50.0631C472.409 50.6525 471.351 51.445 470.359 52.3161C469.366 53.1879 468.429 54.1469 467.669 55.0751C466.916 55.996 466.312 56.9152 466.013 57.7063L466.013 57.7062L466.01 57.7169C465.946 57.8989 465.916 57.9623 465.887 58.001C465.875 58.0179 465.852 58.0478 465.755 58.0898C465.592 58.1432 465.498 58.1604 465.442 58.1604C465.374 58.1604 465.306 58.1512 465.228 58.1374C465.218 58.1356 465.205 58.1333 465.191 58.1307C465.162 58.1255 465.129 58.1194 465.104 58.1152C465.064 58.1087 465 58.099 464.932 58.099C464.873 58.099 464.721 58.1017 464.574 58.1934C464.374 58.3189 464.31 58.5223 464.31 58.6809C464.31 58.8463 464.362 59.0032 464.435 59.1534C464.501 59.3099 464.593 59.4563 464.728 59.5757C464.869 59.7008 465.027 59.7695 465.18 59.8094C465.326 59.8475 465.48 59.8625 465.624 59.8719C465.651 59.8736 465.68 59.8753 465.711 59.877C466.009 61.1309 466.987 62.1793 468.137 62.9185C469.426 63.7467 471.032 64.2566 472.454 64.2566H472.74ZM471.386 56.0838C472.057 55.4034 472.879 54.6363 473.728 53.908C474.628 53.1354 475.551 52.4147 476.352 51.8889C476.753 51.6257 477.114 51.4175 477.42 51.2763C477.551 51.2155 477.665 51.1709 477.761 51.1395C477.628 51.315 477.441 51.5264 477.203 51.7674C476.657 52.3214 475.883 52.9912 474.991 53.677C473.875 54.535 472.599 55.3994 471.386 56.0838ZM494.445 52.1624C494.445 52.1624 494.445 52.1632 494.445 52.1648C494.445 52.1632 494.445 52.1624 494.445 52.1624Z" fill="white" stroke="white"/>
<path d="M440.288 63.0809C440.295 63.8009 440.383 64.4005 440.557 64.8426C440.728 65.2777 441.061 65.7302 441.624 65.7302C442.077 65.7302 442.455 65.43 442.743 65.0745C443.045 64.7028 443.332 64.1712 443.596 63.4924C444.195 62.0414 445.375 60.1416 446.663 58.3612C449.139 57.187 452.525 55.9756 457.049 55.0201C456.001 57.2391 453.716 60.2085 451.063 62.7509C449.568 64.1838 447.977 65.4606 446.456 66.3758C444.924 67.2981 443.517 67.8206 442.378 67.8206C441.797 67.8206 441.292 67.6825 440.869 67.397C440.446 67.1117 440.069 66.656 439.784 65.9635C439.686 65.7175 439.637 65.4538 439.637 65.1893C439.637 64.5054 439.909 63.7476 440.288 63.0809ZM453.392 64.9129C456.532 61.8074 459.138 57.8713 459.756 54.4855C463.509 53.8257 467.921 53.3392 473.143 53.1018L473.167 53.1007L473.191 53.0973C473.473 53.0568 473.642 52.8619 473.723 52.714C473.807 52.5625 473.845 52.3904 473.845 52.2339C473.845 52.0768 473.811 51.895 473.715 51.7344C473.614 51.5651 473.415 51.386 473.12 51.386H473.1H473.081L473.062 51.3874C467.949 51.7764 463.602 52.3314 459.9 52.9835C459.889 51.2688 459.258 49.6256 457.638 48.3068C456.855 47.6595 455.988 47.3746 455.099 47.3746C454.024 47.3746 452.943 47.7906 451.918 48.427C450.889 49.0653 449.883 49.9457 448.948 50.9261C447.679 52.2424 446.526 53.7703 445.556 55.1374C445.245 55.5747 444.957 55.9913 444.689 56.379C446.046 52.2982 448.635 48.0149 451.7 45.3018L451.7 45.3014C456.426 41.1088 461.152 37.0393 465.49 33.4202L465.49 33.42C467.464 31.7711 469.376 30.215 471.173 28.7532C473.166 27.1314 475.016 25.6257 476.65 24.2381C479.758 21.5976 482.19 19.2965 483.47 17.2795C484.042 16.3827 484.405 14.9534 484.405 13.6545C484.405 12.9228 484.286 12.179 483.983 11.5675C483.673 10.9429 483.16 10.4406 482.397 10.2795L482.397 10.2794L482.388 10.2776C481.929 10.1898 481.469 10.1459 480.989 10.1459L480.987 10.1459C478.051 10.1568 474.666 11.9105 471.209 14.5909C467.731 17.2868 464.098 20.9859 460.651 25.0266C453.765 33.0986 447.567 42.601 444.789 48.3592C444.679 48.5536 444.584 48.7239 444.499 48.875C444.177 49.4513 444.011 49.7471 443.803 50.0279C443.545 50.3775 443.222 50.6995 442.416 51.4876L442.416 51.4876L442.411 51.4922C442.239 51.665 442.143 51.8931 442.143 52.1316C442.143 52.2141 442.153 52.3143 442.194 52.4205C442.236 52.5289 442.299 52.6171 442.37 52.6891C442.497 52.8163 442.673 52.9016 442.848 52.929C442.794 53.0971 442.731 53.279 442.665 53.4599C442.574 53.7106 442.481 53.9535 442.405 54.1469C442.391 54.1844 442.377 54.2211 442.363 54.2564C442.313 54.3838 442.271 54.4918 442.253 54.5444C442.137 54.866 441.729 56.207 441.337 57.4974L441.288 57.658C441.082 58.3376 440.881 58.9982 440.728 59.4927C440.651 59.7403 440.587 59.9441 440.541 60.0871C440.532 60.1127 440.525 60.1358 440.518 60.1567L440.503 60.1663L440.479 60.1875C438.984 61.4957 437.903 63.2594 437.903 65.2097C437.903 65.8883 438.038 66.608 438.328 67.3036C438.786 68.4302 439.433 69.2627 440.239 69.8111C441.047 70.3602 441.979 70.6012 442.969 70.6012C444.589 70.6012 446.389 69.9679 448.167 68.9586C449.953 67.945 451.756 66.5301 453.392 64.9129ZM452.755 42.0176C455.286 38.1316 458.731 32.9438 462.514 28.0729C464.964 24.9188 467.547 21.9085 470.105 19.477C472.67 17.0387 475.175 15.216 477.468 14.3913C478.736 13.9397 480.414 13.4382 481.581 13.4382H481.642C482.058 13.4382 482.33 13.5029 482.483 13.596C482.595 13.6638 482.671 13.7574 482.671 13.982C482.671 14.3258 482.491 14.9004 481.914 15.7994L481.914 15.7998C480.74 17.6311 478.473 19.966 475.419 22.7372C472.376 25.4995 468.593 28.6595 464.421 32.1408L464.421 32.141C464.056 32.4459 463.688 32.7532 463.318 33.0628C459.96 35.8681 456.376 38.862 452.755 42.0176ZM457.629 53.4229C453.913 54.1824 450.92 55.0418 448.506 55.9351C449.03 55.2899 449.517 54.7222 449.938 54.2758L449.939 54.275C451.105 53.0337 452.311 51.9552 453.429 51.1911C454.565 50.4148 455.541 50.0119 456.261 50.0119C456.648 50.0119 456.939 50.1295 457.18 50.385C457.604 50.8447 457.8 51.4489 457.8 52.1521C457.8 52.5409 457.738 52.9666 457.629 53.4229Z" fill="white" stroke="white"/>
<path d="M446.347 51.4767C446.371 51.4662 446.397 51.4545 446.425 51.4423C446.437 51.4366 446.45 51.4309 446.463 51.4252C446.472 51.4199 446.481 51.4147 446.489 51.4095C446.536 51.3808 446.552 51.3645 446.552 51.3646C446.552 51.3646 446.552 51.365 446.552 51.3656C446.549 51.3684 446.541 51.3783 446.532 51.395C446.635 51.3512 446.741 51.3129 446.816 51.3129C446.917 51.3129 446.999 51.3743 446.999 51.5381C446.997 51.6253 446.932 51.7105 446.816 51.7932C446.807 51.7993 446.798 51.8054 446.789 51.8115C446.799 51.8125 446.808 51.8129 446.816 51.8129C446.838 51.8129 446.851 51.8102 446.851 51.8102C446.851 51.8101 446.848 51.8106 446.843 51.8121C446.828 51.8161 446.806 51.8237 446.773 51.8367C446.746 51.8473 446.717 51.8595 446.686 51.8733C445.492 52.5259 441.243 53.0086 440.21 53.114C439.191 53.2163 437.968 53.3187 436.745 53.3187C435.367 53.3187 433.989 53.1925 432.804 52.8017C432.783 52.9787 432.758 53.1453 432.73 53.3031M446.347 51.4767L446.177 51.0063C446.172 51.0081 446.167 51.0099 446.162 51.0117M446.347 51.4767C445.552 51.7632 444.675 51.9269 443.778 52.0497M446.347 51.4767L446.149 51.0174C446.153 51.0157 446.157 51.0138 446.162 51.0117M446.162 51.0117C446.174 51.0066 446.188 51.0004 446.203 50.9934C446.26 50.968 446.34 50.9325 446.405 50.9068C446.487 50.8742 446.649 50.8129 446.816 50.8129C446.967 50.8129 447.161 50.8611 447.313 51.0246C447.459 51.1831 447.499 51.3788 447.499 51.5381V51.5505L447.499 51.5505C447.494 51.7502 447.404 51.9065 447.314 52.0131C447.225 52.1177 447.115 52.1988 447.012 52.2621C446.806 52.3886 446.538 52.4954 446.253 52.588C445.677 52.7753 444.914 52.94 444.136 53.0792C442.574 53.3588 440.867 53.5496 440.261 53.6114L440.26 53.6115C439.236 53.7143 437.993 53.8187 436.745 53.8187C435.377 53.8187 433.97 53.6975 432.73 53.3031M446.162 51.0117C445.42 51.2772 444.59 51.434 443.71 51.5543L443.705 51.555C443.647 51.5637 443.588 51.5723 443.53 51.5809C441.786 51.8371 440.119 52.0819 437.316 52.0819C436.279 52.0819 435.176 52.0311 434.196 51.8757C433.2 51.7179 432.397 51.4617 431.906 51.0961L431.885 51.0806L431.863 51.0674L430.762 50.4125L430.722 50.3886L430.678 50.3725C430.576 50.3351 430.438 50.3073 430.317 50.2863C430.184 50.2633 430.031 50.2416 429.876 50.223C429.572 50.1865 429.232 50.158 429.019 50.158C428.679 50.158 428.454 50.3293 428.314 50.4623C428.269 50.5055 428.219 50.5588 428.182 50.5981C428.17 50.6109 428.159 50.6222 428.15 50.6313C428.105 50.678 428.074 50.7076 428.045 50.7293L428.037 50.735L428.03 50.741C427.88 50.8635 427.731 50.9744 427.584 51.0849C427.045 51.4878 426.513 51.8855 425.909 52.8195C425.847 52.9129 425.777 53.0121 425.703 53.1175C425.523 53.3721 425.318 53.663 425.137 53.9954M432.73 53.3031C432.567 53.2515 432.408 53.1952 432.252 53.1339C432.078 54.1636 431.746 54.785 431.322 55.5291C430.996 56.1021 428.203 60.2773 426.694 60.2773C426.531 60.2773 426.389 60.2364 426.266 60.134C426.221 60.0989 426.099 60.0257 425.939 59.9295C425.444 59.6329 424.585 59.1177 424.493 58.8242M432.73 53.3031C432.537 54.3653 432.183 55.0281 431.757 55.7764C431.577 56.092 430.78 57.3031 429.836 58.4378C429.364 59.0059 428.841 59.5715 428.329 59.9996C428.073 60.2138 427.808 60.4028 427.544 60.5402C427.284 60.6757 426.994 60.7773 426.694 60.7773C426.445 60.7773 426.186 60.7131 425.958 60.5275M425.958 60.5275C425.959 60.5283 425.959 60.5285 425.959 60.5281L426.266 60.134L425.946 60.5175C425.95 60.5209 425.954 60.5242 425.958 60.5275ZM425.958 60.5275C425.957 60.5273 425.957 60.5271 425.957 60.5269C425.95 60.5224 425.928 60.5076 425.88 60.4781C425.827 60.4455 425.76 60.4054 425.68 60.3572L425.672 60.3524C425.507 60.2536 425.296 60.1269 425.086 59.9916C424.878 59.8575 424.658 59.707 424.478 59.5587C424.388 59.4847 424.299 59.4036 424.223 59.3183C424.156 59.2428 424.068 59.1294 424.02 58.9867M424.02 58.9867C424.021 58.9893 424.022 58.9919 424.023 58.9945L424.493 58.8242M424.02 58.9867C424.019 58.9825 424.017 58.9784 424.016 58.9742L424.493 58.8242M424.02 58.9867C423.915 58.6941 423.87 58.3499 423.87 58.026C423.87 57.2978 424.08 56.483 424.333 55.7735C424.586 55.0605 424.898 54.4113 425.137 53.9954M424.493 58.8242C424.411 58.599 424.37 58.3125 424.37 58.026C424.37 56.7366 425.125 55.0174 425.573 54.2397M425.573 54.2397L425.134 54.001C425.135 53.9991 425.136 53.9972 425.137 53.9954M425.573 54.2397L425.14 53.9899C425.139 53.9917 425.138 53.9935 425.137 53.9954M425.573 54.2397C425.741 53.9313 425.918 53.6806 426.091 53.4348C426.171 53.3217 426.25 53.2096 426.328 53.0935L443.778 52.0497M443.778 52.0497C443.719 52.0584 443.66 52.067 443.601 52.0757C441.851 52.3328 440.156 52.5819 437.316 52.5819C435.368 52.5819 433.141 52.4059 431.884 51.6785L443.778 52.0497ZM427.567 57.5639C427.446 57.6637 427.331 57.7535 427.224 57.8334L430.474 51.9433C430.69 51.9911 430.838 52.0587 430.937 52.1293C431.094 52.2412 431.169 52.3898 431.169 52.6228C431.169 52.9912 430.983 53.5104 430.612 54.1325C430.251 54.7394 429.749 55.3849 429.203 55.9895C428.658 56.5929 428.078 57.1442 427.567 57.5639Z" fill="white" stroke="white"/>
<path d="M427.537 52.1868C426.289 53.431 424.852 54.9322 423.306 56.548C423.109 56.7531 422.911 56.96 422.711 57.1685C420.936 59.0219 419.031 61.0016 417.098 62.9152C413.221 66.7546 409.278 70.2804 406.088 71.9923C405.82 72.1321 405.595 72.2393 405.41 72.311C405.314 72.3481 405.239 72.3715 405.182 72.3857C405.213 72.204 405.317 71.8905 405.561 71.4053C405.853 70.8235 406.314 70.0555 406.98 69.0719L406.981 69.0707C407.494 68.3101 408.024 67.5612 408.558 66.8092C410.467 64.1148 412.406 61.3806 413.623 57.9261L413.623 57.9251C413.894 57.1516 414.079 56.4329 414.079 55.7542C414.079 54.8512 413.752 54.0756 413.022 53.3192L413.022 53.3192L413.016 53.3137C412.849 53.1462 412.65 52.9795 412.465 52.825C412.452 52.8142 412.439 52.8034 412.426 52.7926C412.248 52.6445 412.079 52.504 411.926 52.3606C411.576 52.032 411.454 51.8136 411.45 51.6694C411.673 51.4282 411.984 51.1408 412.353 50.8087C412.423 50.7462 412.494 50.6823 412.567 50.6173C412.931 50.2911 413.327 49.9354 413.702 49.5706C414.15 49.1337 414.585 48.6651 414.911 48.1906C415.231 47.7244 415.486 47.1952 415.486 46.6466C415.486 46.23 415.334 45.8535 415.065 45.529L415.063 45.5271C414.887 45.3168 414.618 45.0285 414.309 44.7854C414.019 44.5567 413.612 44.3009 413.17 44.2845L413.161 44.2841H413.151C412.675 44.2841 412.146 44.5269 411.664 44.8482C411.164 45.1815 410.644 45.6476 410.173 46.195C409.241 47.2775 408.431 48.761 408.431 50.2692C408.431 50.6366 408.483 51.0048 408.596 51.372C408.507 51.4185 408.389 51.4883 408.268 51.5986L408.259 51.6066L408.251 51.615C408.078 51.789 407.889 52.0124 407.74 52.2501C407.601 52.4724 407.453 52.7759 407.453 53.0935C407.453 53.3311 407.535 53.5653 407.715 53.7395C407.892 53.9111 408.121 53.9824 408.34 53.9824C408.753 53.9824 409.053 53.7889 409.302 53.5571C409.435 53.4338 409.582 53.2709 409.739 53.0929C409.992 53.3294 410.254 53.5744 410.491 53.8122C410.668 53.9901 410.822 54.1545 410.939 54.2978C411.061 54.4451 411.116 54.538 411.134 54.5807C411.191 54.7407 411.224 54.9447 411.224 55.1607C411.224 55.9414 410.871 57.0227 410.253 58.304C409.642 59.5688 408.805 60.9653 407.905 62.3568C407.065 63.6555 406.177 64.9388 405.375 66.0967C405.319 66.1783 405.262 66.2593 405.207 66.3397C404.368 67.5514 403.629 68.626 403.179 69.3987C402.729 70.1674 402.54 70.9293 402.54 71.6158C402.54 73.268 403.671 74.6332 405.119 74.6332C405.632 74.6332 406.17 74.478 406.687 74.254C407.209 74.028 407.74 73.7187 408.248 73.38C409.263 72.703 410.227 71.8812 410.893 71.2952L410.893 71.2952L410.896 71.2922C412.045 70.2618 415.767 66.7716 419.607 62.9978C423.434 59.2375 427.421 55.156 429.081 52.9492C429.213 52.7834 429.313 52.6353 429.383 52.5019C429.449 52.3765 429.512 52.2196 429.512 52.0497C429.512 51.8362 429.395 51.6756 429.264 51.5882C429.148 51.5107 429.025 51.4883 428.93 51.4883C428.745 51.4883 428.562 51.5648 428.454 51.6139C428.324 51.6734 428.188 51.7492 428.069 51.8206C427.948 51.8929 427.836 51.9661 427.751 52.0244C427.708 52.0536 427.671 52.0801 427.641 52.1019L427.638 52.1039C427.622 52.1157 427.574 52.1506 427.537 52.1868ZM427.537 52.1868L427.89 52.5409L427.536 52.1881C427.537 52.1877 427.537 52.1872 427.537 52.1868ZM428.383 52.2157C428.429 52.1891 428.475 52.1632 428.521 52.1389C428.515 52.1107 428.512 52.0809 428.512 52.0497C428.512 52.0111 428.519 51.9899 428.518 51.9925C428.518 51.994 428.513 52.0084 428.497 52.0376C428.476 52.0789 428.44 52.1374 428.383 52.2157ZM428.97 52.4849C428.97 52.4849 428.97 52.4851 428.968 52.4853L428.97 52.4849ZM405.173 72.5294C405.173 72.5294 405.173 72.5287 405.172 72.5273L405.173 72.5294Z" fill="white" stroke="white"/>
<path d="M421.513 32.6079C415.078 38.4704 408.44 44.131 404.136 47.7664C406.37 44.5102 408.617 41.4842 410.721 38.7729C414.666 34.0156 418.652 29.4046 422.651 24.7785C424.702 22.4054 426.757 20.0283 428.812 17.6254C429.047 17.3582 430.453 15.7997 432.256 13.9979C434.07 12.1837 436.259 10.1508 438.052 8.93076L438.052 8.93061C439.162 8.17443 439.879 7.93063 440.308 7.91223C440.56 7.91429 440.686 8.00484 440.774 8.13984C440.884 8.31 440.961 8.60184 440.961 9.02905C440.961 10.262 440.329 12.12 439.618 13.3896C438.414 15.5339 435.909 18.5023 432.671 21.8724C429.443 25.232 425.52 28.9569 421.513 32.6079ZM388.761 58.329C388.532 58.5033 388.305 58.6723 388.091 58.8276C388.515 57.9674 389.135 56.943 389.859 55.9423C391.027 54.3261 392.375 52.8984 393.453 52.3526L393.453 52.3526L393.458 52.35C393.66 52.2451 394.043 52.1372 394.549 52.0546C395.04 51.9745 395.6 51.9253 396.127 51.9153C396.395 51.9154 396.64 51.9281 396.856 51.9525C396.532 52.1276 396.097 52.4308 395.625 52.7838C395.102 53.1747 394.502 53.6502 393.901 54.138C393.191 54.714 392.445 55.3365 391.828 55.8503C391.424 56.1871 391.076 56.4771 390.832 56.6766L390.832 56.6765L390.825 56.6822C390.444 57.0041 389.595 57.6946 388.761 58.329ZM391.539 49.2263L391.539 49.2262L391.526 49.229C390.563 49.4479 389.594 50.0259 388.697 50.784C387.796 51.5465 386.937 52.5158 386.194 53.5611C384.724 55.6296 383.635 58.0975 383.635 59.9498C383.635 60.8726 383.914 61.7411 384.647 62.264C384.752 62.3944 384.874 62.5273 385.022 62.6289C385.213 62.7597 385.424 62.8239 385.664 62.8239C385.934 62.8239 386.219 62.7257 386.52 62.6048C386.854 62.475 387.342 62.15 387.751 61.8589C388.177 61.555 388.585 61.2395 388.784 61.0817C388.906 60.989 389.116 60.8341 389.394 60.6291C390.436 59.8605 392.433 58.3872 394.344 56.8412C392.878 59.6915 391.575 62.6009 390.475 65.5891C389.01 69.5454 387.08 77.7087 387.08 85.0623C387.08 88.0801 387.404 90.9949 388.23 93.4398C389.057 95.8842 390.402 97.9017 392.472 99.0467C392.79 99.2288 393.083 99.3363 393.37 99.3363C393.581 99.3363 393.792 99.2612 393.945 99.0896C394.089 98.9277 394.135 98.7318 394.135 98.5702C394.135 98.3451 394.042 98.1347 393.932 97.9748C393.827 97.8216 393.681 97.6769 393.499 97.5678C390.432 94.8637 389.283 90.2172 389.283 85.1032C389.283 78.9159 390.958 72.2473 392.69 68.0616L392.691 68.0607C394.847 62.8205 397.73 57.6923 400.784 52.8744C401.721 52.0895 402.933 51.0899 404.35 49.9205C408.928 46.1446 415.649 40.5995 422.203 34.8052C426.518 30.9907 430.768 27.0617 434.294 23.45C437.81 19.8481 440.639 16.529 442.081 13.9386L442.081 13.9385C442.983 12.3165 443.429 10.8402 443.429 9.56118C443.429 8.33225 443.021 7.3027 442.264 6.58191C441.51 5.86417 440.46 5.5 439.259 5.5H439.218C437.729 5.5 435.985 6.07713 434.16 7.23564C431.888 8.67735 429.035 11.2992 425.96 14.519C422.878 17.7468 419.547 21.6043 416.318 25.5432C409.86 33.4203 403.791 41.644 400.908 45.8523L400.908 45.8523L400.905 45.8571C399.934 47.3099 398.977 48.7665 398.065 50.2398C397.835 50.0437 397.627 49.8841 397.386 49.7634C396.993 49.5663 396.533 49.4765 395.788 49.3653L395.785 49.3649C395.065 49.2616 393.814 49.1142 392.779 49.1142C392.301 49.1142 391.881 49.1577 391.539 49.2263Z" fill="white" stroke="white"/>
<path d="M388.26 52.1868C387.012 53.431 385.575 54.9322 384.028 56.548C383.832 56.7531 383.634 56.96 383.434 57.1685C381.659 59.0219 379.754 61.0016 377.821 62.9152C373.943 66.7546 370.001 70.2804 366.811 71.9923C366.543 72.1321 366.318 72.2393 366.133 72.311C366.037 72.3481 365.962 72.3715 365.905 72.3857C365.936 72.204 366.04 71.8905 366.284 71.4053C366.576 70.8235 367.037 70.0555 367.703 69.0719L367.704 69.0707C368.217 68.3101 368.747 67.5612 369.28 66.8092C371.19 64.1148 373.128 61.3806 374.346 57.9261L374.346 57.9251C374.617 57.1516 374.802 56.4329 374.802 55.7542C374.802 54.8512 374.475 54.0756 373.745 53.3192L373.745 53.3192L373.739 53.3137C373.572 53.1462 373.373 52.9795 373.188 52.825C373.175 52.8142 373.162 52.8034 373.149 52.7926C372.971 52.6445 372.802 52.504 372.649 52.3606C372.299 52.032 372.177 51.8136 372.173 51.6694C372.396 51.4282 372.707 51.1408 373.076 50.8087C373.146 50.7462 373.217 50.6823 373.29 50.6173C373.653 50.2911 374.05 49.9354 374.425 49.5706C374.873 49.1337 375.308 48.6651 375.634 48.1906C375.954 47.7244 376.209 47.1952 376.209 46.6466C376.209 46.23 376.057 45.8535 375.788 45.529L375.786 45.5271C375.61 45.3168 375.341 45.0285 375.032 44.7854C374.742 44.5567 374.335 44.3009 373.893 44.2845L373.883 44.2841H373.874C373.398 44.2841 372.869 44.5269 372.387 44.8482C371.887 45.1815 371.367 45.6476 370.896 46.195C369.964 47.2775 369.154 48.761 369.154 50.2692C369.154 50.6366 369.206 51.0048 369.319 51.372C369.23 51.4185 369.112 51.4883 368.991 51.5986L368.982 51.6066L368.974 51.615C368.8 51.789 368.612 52.0124 368.463 52.2501C368.324 52.4724 368.176 52.7759 368.176 53.0935C368.176 53.3311 368.258 53.5653 368.438 53.7395C368.615 53.9111 368.844 53.9824 369.063 53.9824C369.476 53.9824 369.775 53.7889 370.025 53.5571C370.158 53.4338 370.305 53.2709 370.462 53.0929C370.715 53.3294 370.977 53.5744 371.214 53.8122C371.391 53.9901 371.545 54.1545 371.662 54.2978C371.783 54.4451 371.839 54.538 371.857 54.5807C371.914 54.7407 371.947 54.9447 371.947 55.1607C371.947 55.9414 371.594 57.0227 370.976 58.304C370.365 59.5688 369.528 60.9653 368.628 62.3568C367.788 63.6555 366.899 64.9388 366.098 66.0967C366.041 66.1783 365.985 66.2593 365.93 66.3397C365.091 67.5514 364.352 68.626 363.902 69.3987C363.452 70.1674 363.263 70.9293 363.263 71.6158C363.263 73.268 364.394 74.6332 365.842 74.6332C366.355 74.6332 366.893 74.478 367.41 74.254C367.932 74.028 368.463 73.7187 368.971 73.38C369.986 72.703 370.95 71.8812 371.616 71.2952L371.616 71.2952L371.619 71.2922C372.768 70.2618 376.49 66.7716 380.33 62.9978C384.157 59.2375 388.143 55.156 389.804 52.9492C389.936 52.7834 390.036 52.6353 390.106 52.5019C390.172 52.3765 390.235 52.2196 390.235 52.0497C390.235 51.8362 390.118 51.6756 389.987 51.5882C389.871 51.5107 389.748 51.4883 389.653 51.4883C389.468 51.4883 389.285 51.5648 389.177 51.6139C389.047 51.6734 388.911 51.7492 388.792 51.8206C388.671 51.8929 388.559 51.9661 388.474 52.0244C388.431 52.0536 388.393 52.0801 388.364 52.1019L388.361 52.1039C388.345 52.1157 388.297 52.1506 388.26 52.1868ZM388.26 52.1868L388.613 52.5409L388.259 52.1881C388.259 52.1877 388.26 52.1872 388.26 52.1868ZM389.106 52.2157C389.151 52.1891 389.198 52.1632 389.243 52.1389C389.238 52.1107 389.235 52.0809 389.235 52.0497C389.235 52.0111 389.242 51.9899 389.241 51.9925C389.241 51.994 389.236 52.0084 389.22 52.0376C389.199 52.0789 389.163 52.1374 389.106 52.2157ZM389.693 52.4849C389.693 52.4849 389.693 52.4851 389.691 52.4853L389.693 52.4849ZM365.896 72.5294C365.896 72.5294 365.896 72.5287 365.895 72.5273L365.896 72.5294Z" fill="white" stroke="white"/>
<path d="M339.832 61.0051L339.832 61.0051V61.0141V61.1778C339.832 63.1884 340.29 64.6772 341.191 65.6646C342.101 66.6605 343.382 67.0605 344.838 67.0605C346.669 67.0605 348.862 66.4373 351.167 65.4664C357.962 62.6485 366.16 56.7178 369.5 54.3011C370.049 53.9039 370.467 53.6016 370.726 53.4237L370.726 53.4238L370.734 53.418C370.846 53.3379 370.996 53.1958 371.118 53.0556C371.181 52.9836 371.248 52.8979 371.303 52.8076C371.345 52.7373 371.432 52.5842 371.432 52.3977V52.3168L371.406 52.2401L371.386 52.1787L371.379 52.159L371.371 52.14C371.314 52.0068 371.213 51.8564 371.101 51.7363C371.042 51.674 370.967 51.6049 370.877 51.5481C370.793 51.4945 370.655 51.4269 370.483 51.4269H370.402L370.325 51.4528L370.263 51.4733L370.195 51.4962L370.136 51.5376C369.777 51.7881 369.191 52.2295 368.435 52.7977C368.077 53.067 367.681 53.3649 367.254 53.6844C365.916 54.6844 364.251 55.911 362.416 57.1855C358.736 59.7401 354.403 62.4645 350.668 63.9465C348.878 64.6533 347.274 65.0577 345.979 65.0577C344.994 65.0577 344.207 64.8299 343.613 64.3676C343.024 63.9086 342.569 63.1733 342.332 62.0444C342.301 61.873 342.3 61.676 342.3 61.4234C342.3 60.0603 342.843 58.5357 343.648 57.0929C344.363 55.813 345.264 54.6342 346.108 53.7413C346.215 53.7818 346.324 53.7982 346.428 53.7982C347.005 53.7982 347.458 53.2913 347.458 52.6842V52.6406L347.45 52.5976L347.441 52.547C347.499 52.5072 347.565 52.458 347.641 52.3963L347.741 52.3143L347.789 52.1939C347.824 52.106 347.892 51.8763 347.95 51.6201C348.009 51.3608 348.069 51.021 348.069 50.7194C348.069 50.5651 348.054 50.355 347.963 50.1668C347.914 50.0652 347.836 49.9548 347.712 49.8711C347.586 49.7851 347.443 49.7487 347.304 49.7487H347.264H347.231L347.199 49.7529C346.792 49.8061 346.313 49.9175 345.878 50.1089C345.771 50.0097 345.66 49.8898 345.535 49.7484C345.493 49.7009 345.449 49.6505 345.403 49.5982C345.233 49.4031 345.04 49.181 344.829 48.9761C344.265 48.4305 343.515 47.9476 342.35 47.9476H342.31C341.872 47.9476 341.358 48.0166 340.809 48.171L340.808 48.1711C338.368 48.8601 336.437 50.7245 335.127 52.6739C333.824 54.6119 333.064 56.7411 333.064 58.0669C333.064 58.2718 333.09 58.4469 333.112 58.5786L333.112 58.5786L333.113 58.5847C333.15 58.7955 333.194 58.9705 333.263 59.1175C333.342 59.2867 333.441 59.3887 333.528 59.4675C333.551 59.4879 333.57 59.5048 333.588 59.5203C333.634 59.5602 333.67 59.5909 333.722 59.6477C333.791 59.7217 333.886 59.8405 334.014 60.0476C334.183 60.3255 334.379 60.547 334.611 60.6986C334.85 60.8548 335.104 60.9206 335.358 60.9206C335.662 60.9206 335.941 60.8179 336.168 60.7025C336.398 60.5855 336.609 60.437 336.78 60.3083L336.78 60.3084L336.788 60.3021C337.713 59.5752 338.549 58.9887 339.384 58.4151C339.54 58.3086 339.695 58.2024 339.851 58.0957C340.118 57.9134 340.386 57.7297 340.659 57.541C340.642 57.5828 340.625 57.6252 340.607 57.6681C340.242 58.576 339.854 59.7787 339.832 61.0051ZM342.828 52.5231C342.221 53.021 340.983 54.0088 339.777 54.9143C339.256 55.3055 338.744 55.6788 338.294 55.9898C338.392 55.8253 338.5 55.6565 338.618 55.4845C339.093 54.7876 339.696 54.0672 340.349 53.417C341.002 52.7659 341.694 52.196 342.342 51.7924C343.004 51.38 343.562 51.1785 343.961 51.1785C344.124 51.1785 344.263 51.213 344.38 51.2914C344.064 51.5792 343.846 51.741 343.587 51.9333C343.382 52.0852 343.152 52.2561 342.828 52.5231Z" fill="white" stroke="white"/>
<path d="M359.914 17.3711C359.914 17.3711 359.914 17.3714 359.912 17.3717C359.913 17.3712 359.914 17.3711 359.914 17.3711ZM293.568 57.4631C289.587 60.3662 285.699 63.2015 282.954 66.4051C284.75 59.5744 288.359 52.5103 292.354 45.6208C293.967 42.8386 295.646 40.0799 297.29 37.3797C300.143 32.693 302.888 28.1827 304.994 24.0321L305 24.0195L305.006 24.0066C305.076 23.8464 305.145 23.6901 305.212 23.5374C306.626 20.3156 307.331 18.7076 307.331 16.7859C307.331 15.6106 307.071 14.3485 306.601 12.5652L306.6 12.5623C306.305 11.4657 305.705 10.6631 304.847 10.146C304.003 9.63751 302.949 9.42958 301.776 9.42958L301.774 9.42958C298.551 9.44019 294.298 10.8783 289.893 12.8449C285.469 14.8199 280.819 17.3625 276.781 19.6457C271.421 22.6748 265.977 26.3328 261.865 30.3908C257.764 34.4379 254.918 38.9551 254.918 43.6994C254.918 49.1667 258.699 54.7018 267.993 59.9748C268.489 60.2591 268.981 60.3884 269.443 60.3884C270.349 60.3884 271.268 59.8242 271.268 58.8651C271.268 58.1153 270.696 57.4301 269.707 56.944C260.357 52.2194 257.039 47.4565 257.039 43.0035C257.039 38.9657 259.766 34.9578 263.821 31.1896C267.857 27.4385 273.11 24.017 277.954 21.1459C281.631 18.9737 285.79 16.7746 289.688 15.1202C293.604 13.4582 297.194 12.3739 299.757 12.3739C300.996 12.3739 301.917 12.6304 302.522 13.1236C303.108 13.601 303.477 14.3665 303.477 15.5783C303.477 17.1818 302.825 19.5135 301.246 22.7041L301.245 22.7051C300.959 23.2862 300.113 24.7987 298.902 26.9632C298.374 27.9061 297.778 28.9726 297.128 30.1398C294.994 33.9721 292.304 38.8613 289.666 43.9317C287.029 49.0005 284.439 54.2579 282.508 58.8255C281.542 61.109 280.738 63.2275 280.174 65.0683C279.613 66.9 279.279 68.4929 279.279 69.7124C279.279 70.3499 279.381 70.9679 279.641 71.4562C279.91 71.9645 280.36 72.3407 280.996 72.4001L281.02 72.4023H281.043C281.42 72.4023 281.775 72.1582 281.875 71.757L281.88 71.7369L281.883 71.7164C282.126 70.2233 283.331 68.5096 285.261 66.5979C287.173 64.7042 289.712 62.6943 292.483 60.5994C293.372 59.9272 294.285 59.2461 295.208 58.5578C299.304 55.5035 303.59 52.307 306.801 49.1094C305.555 52.9214 303.675 58.7698 301.924 64.8775C299.808 72.2605 297.867 80.0721 297.485 85.1239C297.423 85.8346 297.402 86.4623 297.402 87.0066C297.402 88.2436 297.529 89.1749 297.801 89.8144C297.94 90.1398 298.127 90.4156 298.378 90.6108C298.637 90.8115 298.935 90.9041 299.248 90.9041C299.662 90.9041 300.081 90.7445 300.479 90.516C300.883 90.2842 301.306 89.9576 301.74 89.5687C302.607 88.7909 303.564 87.7187 304.546 86.5265C307.458 82.9962 311.63 77.0292 316.43 70.0698C317.188 68.9708 317.961 67.8468 318.749 66.7032C322.953 60.5947 327.543 53.9275 332.151 47.543C337.623 39.9613 343.111 32.794 347.999 27.4467C350.443 24.7725 352.727 22.5657 354.775 20.9919C356.837 19.4071 358.6 18.512 360.008 18.368L360.008 18.3681L360.02 18.3667C360.142 18.3513 360.292 18.3148 360.425 18.2233C360.574 18.1204 360.702 17.9424 360.702 17.7069C360.702 17.5256 360.626 17.3807 360.561 17.2883C360.492 17.1903 360.404 17.1088 360.315 17.0447C360.14 16.9194 359.898 16.818 359.631 16.818H359.59H359.571L359.551 16.8196C357.765 16.9613 355.741 17.9749 353.574 19.5731C351.394 21.1804 349.012 23.4231 346.504 26.1103C341.486 31.4858 335.917 38.6904 330.393 46.2834C326.035 52.2749 321.697 58.5194 317.674 64.3098C316.598 65.8591 315.544 67.3759 314.519 68.8466C309.653 75.8247 305.433 81.7507 302.436 85.227L302.436 85.2274C302.357 85.3193 302.28 85.4095 302.204 85.4977C301.716 86.0661 301.298 86.5537 300.94 86.9168C300.734 87.1262 300.565 87.2767 300.429 87.3721C300.399 87.3936 300.372 87.4104 300.35 87.4234C300.349 87.421 300.349 87.4184 300.348 87.4158C300.284 87.2175 300.237 86.8531 300.237 86.2493C300.237 85.9017 300.237 85.5108 300.276 85.0422L300.276 85.0423L300.277 85.0345C300.618 79.9693 303.358 70.2883 306.044 61.802C307.383 57.5718 308.701 53.6586 309.688 50.7963C310.181 49.3653 310.591 48.1972 310.879 47.3839C311.023 46.9773 311.137 46.6594 311.215 46.4417C311.269 46.2908 311.304 46.194 311.321 46.1476C311.329 46.1245 311.333 46.1139 311.332 46.1153L311.345 46.0839L311.353 46.0511C311.441 45.6958 311.49 45.3675 311.49 45.0502C311.49 44.5501 311.362 44.105 311.083 43.7768C310.796 43.44 310.395 43.2813 309.971 43.2813C309.153 43.2813 308.267 43.8522 307.585 44.8234C304.164 49.6475 299.095 53.4296 294.129 57.0542C293.942 57.1906 293.755 57.3269 293.568 57.4631Z" fill="white" stroke="white"/>
<path d="M227.947 68.8108C229.989 67.3675 232.099 65.9758 234.203 64.6354C231.716 69.4991 228.633 75.066 225.095 80.2576C221.153 86.0399 216.669 91.3231 211.84 94.659L211.839 94.6599C209.775 96.0943 207.733 96.7808 206.151 96.7808C205.195 96.7808 204.444 96.5268 203.939 96.0818C203.443 95.645 203.125 94.9731 203.125 94.0062C203.125 93.3559 203.254 92.5752 203.583 91.682L203.584 91.6786C204.23 89.8862 205.657 87.8328 207.578 85.6724C209.492 83.5201 211.864 81.296 214.358 79.1615C219.346 74.8929 224.788 71.0105 227.944 68.8129L227.947 68.8108ZM237.814 63.7904C238.159 63.1087 238.495 62.4442 238.822 61.8003C245.604 57.7959 252.101 54.5905 256.861 52.8744C256.861 52.8743 256.862 52.8741 256.862 52.8739C256.911 52.8606 257.028 52.8288 257.119 52.7803C257.184 52.7461 257.274 52.6861 257.346 52.5824C257.423 52.4716 257.453 52.3486 257.453 52.2339V52.1846L257.444 52.1362C257.409 51.9618 257.33 51.7728 257.17 51.6255C257.003 51.4723 256.795 51.4065 256.586 51.4065H256.537L256.488 51.4163L256.386 51.4367L256.35 51.4439L256.316 51.4561C251.895 53.0372 246.183 55.8396 240.128 59.3234C241.073 57.6022 242.129 55.8118 243.388 53.8779L243.388 53.878L243.394 53.8676C243.431 53.8081 243.548 53.665 243.752 53.4446C243.943 53.2367 244.182 52.9908 244.431 52.7385C244.589 52.5773 244.754 52.4118 244.912 52.2529C245.239 51.9248 245.539 51.6244 245.702 51.4461L245.702 51.4462L245.71 51.4368C245.743 51.399 245.78 51.3571 245.82 51.3115C246.29 50.7737 247.21 49.7214 247.903 48.7352C248.421 47.9993 248.687 47.3249 248.687 46.7489C248.687 46.3878 248.582 46.0425 248.328 45.7872C248.073 45.532 247.734 45.4302 247.392 45.4302C246.762 45.4302 246.039 45.7516 245.336 46.3469L245.329 46.3529L245.322 46.3591C245.066 46.5935 244.577 47.172 244.351 47.461C242.779 49.4088 241.371 51.4948 240.049 53.696C239.585 54.1261 239.118 54.576 238.652 55.0242C237.947 55.7036 237.246 56.3789 236.566 56.9746C236.002 57.4695 235.479 57.884 235.018 58.1726C234.542 58.4708 234.199 58.5902 233.978 58.5902C233.913 58.5902 233.857 58.5787 233.801 58.5398C233.855 58.1603 234.052 57.6019 234.386 56.8961C234.77 56.0868 235.299 55.1555 235.88 54.2065C236.794 52.7129 237.818 51.2045 238.574 50.0908C238.779 49.7882 238.965 49.5147 239.123 49.2786L239.124 49.2768C239.292 49.024 239.43 48.7954 239.528 48.5882C239.623 48.3848 239.697 48.1642 239.697 47.936C239.697 47.7351 239.645 47.5388 239.529 47.363C239.416 47.192 239.261 47.068 239.095 46.9763C238.776 46.8004 238.345 46.7047 237.854 46.6418L237.822 46.6378H237.79C237.33 46.6378 236.893 46.8139 236.496 47.0734C236.098 47.3335 235.713 47.6954 235.347 48.1142C234.616 48.9513 233.912 50.0722 233.292 51.2366C232.058 53.5547 231.093 56.1663 230.897 57.2845L230.894 57.3002L230.892 57.316L230.852 57.6844L230.848 57.7119V57.7394C230.848 58.7787 231.619 59.2361 231.834 59.3635C231.858 59.3774 231.874 59.3874 231.883 59.3938C231.976 59.4874 232.131 59.6429 232.29 59.7944C232.446 59.9436 232.636 60.1187 232.773 60.2156L232.795 60.2306L232.817 60.2432C233.066 60.3819 233.353 60.4703 233.672 60.4703C234.155 60.4703 234.66 60.2921 235.144 60.0429C235.635 59.7899 236.148 59.4408 236.656 59.0486C236.892 58.8666 237.13 58.6731 237.367 58.4727C236.73 59.6769 236.11 60.8979 235.492 62.1154C232.731 63.8183 229.95 65.6404 227.229 67.5424C226.946 67.7403 226.643 67.952 226.32 68.1766C223.097 70.4225 218.027 73.9562 213.32 77.7902C210.731 79.899 208.242 82.1064 206.227 84.2479C204.221 86.3792 202.647 88.4839 201.933 90.39C201.525 91.4469 201.35 92.4485 201.35 93.3717C201.35 95.2318 202.087 96.7766 203.308 97.8507C204.524 98.9195 206.191 99.5 208.027 99.5C209.866 99.5 211.876 98.914 213.804 97.6589L213.805 97.6584C219.301 94.0665 224.144 87.8548 228.315 81.1802C231.982 75.3114 235.158 69.0373 237.814 63.7904Z" fill="white" stroke="white"/>
<path d="M216.411 53.0929C216.665 53.3294 216.926 53.5744 217.163 53.8122C217.34 53.9901 217.494 54.1545 217.612 54.2978C217.733 54.4451 217.789 54.538 217.807 54.5807C217.863 54.7407 217.896 54.9447 217.896 55.1607C217.896 55.9414 217.543 57.0227 216.925 58.304C216.315 59.5688 215.478 60.9653 214.577 62.3568C213.737 63.6555 212.849 64.9387 212.047 66.0966C211.991 66.1783 211.935 66.2593 211.879 66.3397C211.041 67.5514 210.301 68.626 209.851 69.3987C209.401 70.1674 209.212 70.9293 209.212 71.6158C209.212 73.268 210.343 74.6332 211.791 74.6332C212.305 74.6332 212.842 74.478 213.359 74.254C213.881 74.028 214.412 73.7187 214.92 73.38C215.936 72.703 216.899 71.8812 217.565 71.2952L217.565 71.2952L217.568 71.2922C218.718 70.2618 222.439 66.7716 226.28 62.9978C230.106 59.2375 234.093 55.156 235.753 52.9492C235.885 52.7834 235.985 52.6353 236.055 52.5019C236.121 52.3765 236.184 52.2196 236.184 52.0497C236.184 51.8362 236.067 51.6756 235.937 51.5882C235.821 51.5107 235.697 51.4883 235.602 51.4883C235.418 51.4883 235.234 51.5648 235.127 51.6139C234.996 51.6734 234.86 51.7492 234.741 51.8206C234.621 51.8929 234.508 51.9661 234.423 52.0244C234.38 52.0536 234.343 52.0801 234.313 52.1019L234.31 52.1039C234.294 52.1157 234.246 52.1506 234.21 52.1868C234.209 52.1872 234.209 52.1877 234.208 52.1881L234.563 52.5409C233.319 53.7806 231.886 55.2772 230.339 56.8939C224.912 62.5639 218.07 69.7112 212.994 72.4344M216.411 53.0929L220.252 55.7542C220.252 56.3477 220.089 57.0026 219.824 57.7599C218.632 61.142 216.746 63.8028 214.843 66.4888C214.305 67.2487 213.765 68.0106 213.239 68.7914C211.893 70.7766 211.343 71.9432 211.343 72.4958C211.343 72.7619 211.465 72.9052 211.73 72.9052C212.016 72.9052 212.444 72.721 212.994 72.4344M216.411 53.0929C216.254 53.2709 216.107 53.4338 215.974 53.5571C215.725 53.7889 215.425 53.9824 215.012 53.9824C214.794 53.9824 214.565 53.9111 214.387 53.7395C214.207 53.5653 214.125 53.3311 214.125 53.0935C214.125 52.7759 214.274 52.4724 214.413 52.2501C214.561 52.0124 214.75 51.789 214.923 51.615L214.932 51.6066L214.94 51.5986C215.061 51.4883 215.179 51.4185 215.268 51.372L216.411 53.0929ZM212.994 72.4344L212.763 71.9909C212.762 71.9914 212.762 71.9918 212.761 71.9923C212.76 71.9928 212.759 71.9933 212.758 71.9938L212.994 72.4344ZM235.643 52.4849C235.643 52.4849 235.642 52.4851 235.641 52.4853L235.643 52.4849Z" fill="white" stroke="white"/>
<path d="M192.703 59.7851C193.581 59.059 194.39 58.2742 194.985 57.6782C195.221 58.998 195.707 59.9935 196.421 60.6911C197.317 61.5668 198.499 61.9029 199.777 61.9029C202.216 61.9029 205.191 60.6645 207.824 59.2327C210.474 57.7911 212.864 56.1046 214.163 55.1112L216.829 53.1703L216.871 53.1399L216.905 53.1017C217.011 52.9851 217.111 52.8676 217.187 52.7569C217.246 52.67 217.361 52.492 217.361 52.2749C217.361 52.1163 217.296 51.9129 217.096 51.7874C216.95 51.6956 216.797 51.693 216.738 51.693C216.628 51.693 216.519 51.7184 216.434 51.7418C216.341 51.7675 216.235 51.8034 216.118 51.8461L216.063 51.8664L216.014 51.899L212.006 54.554C211.253 55.0097 210.464 55.5357 209.66 56.0716C209.551 56.1444 209.442 56.2173 209.332 56.2903C208.407 56.9061 207.461 57.5278 206.501 58.0847C204.569 59.2051 202.647 60.0229 200.817 60.0229C200.445 60.0229 200.097 60.003 199.758 59.9314L199.735 59.9265L199.712 59.9238C198.527 59.7884 197.764 59.4329 197.303 59.0015C196.851 58.5783 196.648 58.0451 196.648 57.4529C196.648 57.1376 196.716 56.7927 196.837 56.4266C197.635 55.7889 198.41 54.819 199.039 53.8909C199.705 52.9092 200.241 51.9251 200.501 51.328L200.504 51.321L200.507 51.3138L200.509 51.3077C200.528 51.2607 200.554 51.1945 200.575 51.1278C200.596 51.061 200.624 50.9583 200.624 50.8422C200.624 50.5481 200.476 50.3095 200.25 50.1691C200.052 50.0468 199.825 50.0147 199.634 50.0147C198.033 50.0147 196.902 51.1193 196.169 52.2573C195.475 53.3347 195.062 54.5495 194.88 55.2572C194.872 55.2653 194.864 55.2735 194.856 55.2819C194.35 55.8034 193.291 56.8952 192.126 57.8915C191.492 58.4331 190.84 58.9357 190.238 59.3002C189.617 59.6758 189.124 59.8592 188.789 59.8592C188.65 59.8592 188.556 59.8255 188.486 59.7745C188.431 59.734 188.367 59.6643 188.31 59.5393C188.466 58.8414 188.804 57.9939 189.257 57.0695C189.738 56.09 190.332 55.0522 190.937 54.0564C191.453 53.2055 191.972 52.3915 192.43 51.674C192.508 51.5519 192.584 51.4326 192.658 51.3165C193.159 50.5304 193.58 49.8605 193.784 49.4459L193.835 49.3416V49.2253V49.2049C193.835 49.0779 193.797 48.9559 193.768 48.8763C193.733 48.7824 193.686 48.6805 193.631 48.5766C193.52 48.3686 193.361 48.1289 193.162 47.8998C192.779 47.458 192.163 46.9652 191.378 46.9652C190.729 46.9652 190.069 47.2831 189.469 48.0003C188.573 49.0311 187.677 50.6421 187.005 52.3924C186.331 54.1466 185.863 56.0925 185.863 57.8008C185.863 58.8525 186.049 59.849 186.456 60.6021C186.871 61.3702 187.547 61.9234 188.483 61.9234C189.18 61.9234 189.918 61.6396 190.616 61.2528C191.323 60.8608 192.04 60.3339 192.703 59.7851Z" fill="white" stroke="white"/>
<path d="M164.104 69.051C164.098 69.0399 164.091 69.029 164.084 69.0182C165.071 66.476 167.018 63.6936 169.278 61.025C170.027 61.4121 170.886 61.5346 171.74 61.5346C173.203 61.5346 174.793 61.1262 176.114 60.759L176.116 60.7583C177.49 60.3688 180.09 59.3776 182.854 57.9427C185.614 56.5095 188.582 54.6108 190.656 52.3912L191.017 52.0052L190.612 51.6662L190.367 51.4616L190.093 51.232L189.787 51.4177C189.465 51.6132 188.973 51.9899 188.36 52.4592C188.086 52.6692 187.787 52.8978 187.469 53.137C186.415 53.9294 185.085 54.885 183.531 55.8165C180.42 57.6812 176.441 59.4316 172.016 59.5931H171.964C171.655 59.5931 171.218 59.501 170.762 59.3362C174.289 55.4503 178.162 52.1452 180.088 50.7338L180.352 50.5398L180.28 50.2198C180.145 49.6247 179.981 49.1234 179.737 48.7636C179.472 48.3705 179.098 48.1318 178.61 48.1318C178.236 48.1318 177.848 48.2667 177.475 48.4587C177.096 48.6542 176.692 48.9301 176.276 49.2597C175.444 49.9193 174.519 50.8293 173.583 51.847C171.995 53.5751 170.345 55.649 169.018 57.424C169.066 57.2061 169.142 56.957 169.244 56.678C169.425 56.1791 169.668 55.6332 169.924 55.06L169.931 55.0445C170.186 54.4735 170.451 53.8766 170.656 53.3101C170.859 52.7488 171.019 52.1769 171.037 51.6578L171.037 51.6491V51.6404C171.037 51.3288 170.898 51.0816 170.733 50.9023C170.574 50.7293 170.375 50.6014 170.197 50.5062C170.016 50.4093 169.827 50.3311 169.673 50.2696C169.636 50.2548 169.602 50.2413 169.571 50.229C169.46 50.1849 169.386 50.1555 169.334 50.1293L169.084 50.0036L168.846 50.1515C168.695 50.2453 168.578 50.403 168.502 50.5124C168.412 50.6428 168.318 50.8031 168.223 50.977C168.033 51.3261 167.824 51.7647 167.626 52.2064C167.237 53.0773 166.865 54.0268 166.771 54.3774L166.771 54.3773L166.77 54.3849C166.619 54.9882 166.551 55.5003 166.551 55.9793C166.551 57.2071 166.969 58.0474 167.633 59.3587C165.636 62.2856 164.369 64.6473 163.595 66.4391C162.807 68.2637 162.514 69.537 162.514 70.224C162.514 70.3679 162.524 70.5372 162.573 70.686C162.599 70.7628 162.647 70.8718 162.744 70.9659C162.854 71.0725 163 71.1334 163.157 71.1334C163.406 71.1334 163.574 70.9785 163.643 70.9051C163.732 70.8121 163.806 70.697 163.869 70.5788C163.996 70.3389 164.116 70.0098 164.214 69.605L164.24 69.4978L164.218 69.3896C164.195 69.2744 164.164 69.1546 164.104 69.051Z" fill="white" stroke="white"/>
<path d="M146.577 59.7851C147.454 59.059 148.263 58.2742 148.858 57.6782C149.094 58.998 149.58 59.9935 150.294 60.6911C151.19 61.5668 152.372 61.9029 153.65 61.9029C156.089 61.9029 159.065 60.6645 161.697 59.2327C164.348 57.7911 166.737 56.1046 168.036 55.1112L170.702 53.1703L170.744 53.1399L170.778 53.1017C170.884 52.9851 170.984 52.8676 171.06 52.7569C171.119 52.67 171.234 52.492 171.234 52.2749C171.234 52.1163 171.169 51.9129 170.969 51.7874C170.823 51.6956 170.67 51.693 170.612 51.693C170.501 51.693 170.392 51.7184 170.307 51.7418C170.215 51.7675 170.109 51.8034 169.992 51.8461L169.936 51.8664L169.887 51.899L165.879 54.554C165.126 55.0097 164.338 55.5356 163.534 56.0716C163.425 56.1443 163.315 56.2173 163.205 56.2903C162.28 56.9061 161.334 57.5278 160.374 58.0847C158.442 59.2051 156.52 60.0229 154.69 60.0229C154.319 60.0229 153.97 60.003 153.631 59.9314L153.608 59.9265L153.585 59.9238C152.4 59.7884 151.637 59.4329 151.176 59.0015C150.724 58.5783 150.522 58.0451 150.522 57.4529C150.522 57.1376 150.589 56.7927 150.71 56.4266C151.509 55.7889 152.283 54.819 152.912 53.8909C153.578 52.9092 154.114 51.9251 154.374 51.328L154.377 51.321L154.38 51.3138L154.382 51.3077C154.401 51.2607 154.427 51.1945 154.448 51.1278C154.469 51.061 154.497 50.9583 154.497 50.8422C154.497 50.5481 154.349 50.3095 154.123 50.1691C153.926 50.0468 153.698 50.0147 153.508 50.0147C151.906 50.0147 150.776 51.1193 150.042 52.2573C149.348 53.3347 148.935 54.5495 148.753 55.2572C148.746 55.2653 148.738 55.2735 148.729 55.2819C148.224 55.8034 147.165 56.8952 145.999 57.8915C145.366 58.4331 144.713 58.9357 144.111 59.3002C143.491 59.6758 142.997 59.8592 142.662 59.8592C142.524 59.8592 142.429 59.8255 142.359 59.7745C142.304 59.734 142.24 59.6643 142.183 59.5393C142.339 58.8414 142.678 57.9939 143.131 57.0695C143.611 56.09 144.206 55.0522 144.81 54.0564C145.326 53.2055 145.846 52.3916 146.303 51.674C146.381 51.5519 146.457 51.4327 146.531 51.3165C147.032 50.5304 147.453 49.8605 147.657 49.4459L147.708 49.3416V49.2253V49.2049C147.708 49.0779 147.67 48.9559 147.641 48.8763C147.606 48.7824 147.56 48.6805 147.504 48.5766C147.393 48.3686 147.234 48.1289 147.035 47.8998C146.652 47.458 146.037 46.9652 145.251 46.9652C144.602 46.9652 143.943 47.2831 143.342 48.0003C142.446 49.0311 141.55 50.6421 140.878 52.3924C140.205 54.1466 139.736 56.0925 139.736 57.8008C139.736 58.8525 139.922 59.849 140.329 60.6021C140.744 61.3702 141.42 61.9234 142.356 61.9234C143.053 61.9234 143.792 61.6396 144.489 61.2528C145.197 60.8608 145.913 60.3339 146.577 59.7851Z" fill="white" stroke="white"/>
<path d="M99.3835 47.3906C97.1443 51.0799 93.9028 56.1132 90.1942 61.1606C85.7431 67.2185 80.6446 73.2616 75.8165 77.0376C74.4036 76.4408 72.9298 75.863 71.3803 75.3574C68.7335 74.4649 66.4777 74.0834 64.638 74.0834C63.0961 74.0834 61.8294 74.3582 60.903 74.8346M99.3835 47.3906L60.903 74.8346M99.3835 47.3906C95.4293 50.3314 91.2363 53.1133 86.9807 55.4947L86.979 55.4956C84.36 56.9483 80.3989 59.1404 76.0465 60.9685C71.7033 62.7928 66.9201 64.2771 62.6606 64.2771C60.3466 64.2771 58.1642 63.8357 56.2894 62.7517C54.409 61.6645 52.8724 59.9504 51.825 57.4669C51.6334 57.0325 51.5598 56.6166 51.5598 56.2249C51.5598 55.5618 51.797 54.9883 52.1431 54.5757C52.4794 54.1751 52.9599 53.8829 53.4665 53.8829C54.0656 53.8829 54.536 54.3087 54.7038 54.9499C55.4649 57.7363 56.7487 59.5663 58.3531 60.7063C59.9626 61.8498 61.9465 62.3356 64.1691 62.3356C68.0357 62.3356 72.5231 60.8573 76.7202 58.9645C80.906 57.0767 84.7476 54.8028 87.3146 53.2586L87.3158 53.2579C92.5024 50.1579 97.5745 46.409 102.272 42.5108C108.31 32.2666 115.286 20.8829 120.814 14.6132C122.006 13.2581 123.408 12.1781 124.775 11.4346C126.134 10.6959 127.497 10.2687 128.609 10.2687C129.278 10.2687 129.909 10.4213 130.38 10.8148C130.866 11.221 131.107 11.8206 131.107 12.5493C131.107 13.9077 130.286 15.8006 128.441 18.2908C122.606 26.1758 115.795 33.6325 108.533 40.0103C105.761 44.7498 101.178 52.2245 95.763 59.606C90.5314 66.7372 84.4963 73.8192 78.5459 78.2521C82.594 80.1486 86.1199 82.2606 89.3269 84.1815L89.6028 84.3468L89.6037 84.3473C96.0654 88.2356 100.771 90.3339 105.145 90.3339C106.972 90.3339 108.741 89.9798 110.578 89.2064L110.581 89.2049C116.8 86.6435 122.651 80.1665 128.024 72.8896C130.63 69.3596 133.107 65.6651 135.448 62.1734L135.641 61.8856C138.033 58.319 140.286 54.97 142.375 52.2643C142.461 52.1459 142.578 52.0717 142.643 52.0333C142.73 51.9828 142.826 51.9393 142.921 51.9038C143.102 51.8362 143.338 51.7749 143.552 51.7749C143.798 51.7749 144.043 51.8661 144.198 52.0899C144.327 52.2769 144.338 52.4811 144.338 52.5819C144.338 52.7322 144.302 52.9482 144.138 53.1308C141.818 56.1483 139.416 59.733 136.889 63.5053C136.553 64.0067 136.215 64.5113 135.874 65.0184C132.972 69.3411 129.906 73.8319 126.634 77.8953C120.116 85.9911 112.665 92.5414 103.902 92.5414C98.8975 92.5414 93.4225 90.5659 86.8243 86.5748C83.4563 84.5421 79.7798 82.328 75.3311 80.3817L99.3835 47.3906ZM60.903 74.8346C60.9031 74.8345 60.9032 74.8345 60.9033 74.8344L61.1307 75.2775L60.903 74.8346ZM126.916 17.3176C123.077 22.7963 117.721 28.2564 112.565 33.1941C116.482 26.8075 120.501 20.9151 124.792 16.4146L124.792 16.4143C125.426 15.7486 126.168 15.1511 126.854 14.7233C127.196 14.5095 127.516 14.343 127.795 14.2312C128.082 14.1167 128.293 14.0726 128.426 14.0726C128.468 14.0726 128.494 14.0768 128.509 14.0805C128.513 14.0957 128.517 14.123 128.517 14.1662C128.517 14.351 128.438 14.6946 128.178 15.2408C127.924 15.775 127.518 16.4612 126.916 17.317L126.916 17.3176ZM128.525 14.0861C128.525 14.0861 128.524 14.0858 128.523 14.0852L128.525 14.0861ZM70.4291 78.4745C71.1317 78.7187 71.8258 78.9721 72.5055 79.2288C70.872 80.0185 68.5269 80.6736 66.3097 80.6736C63.9923 80.6736 61.9597 79.9476 60.9429 78.0972C60.8767 77.9638 60.8325 77.8649 60.8051 77.7877C60.7915 77.7494 60.7838 77.7214 60.7795 77.7015C60.7754 77.6818 60.7754 77.6735 60.7754 77.6739C60.7754 77.6702 60.7755 77.6676 60.7757 77.6657C60.7792 77.6612 60.7875 77.6519 60.8043 77.6381C60.8743 77.5806 61.0123 77.5077 61.2776 77.4087C61.776 77.2428 62.4326 77.1099 63.2695 77.1096C65.0887 77.1297 67.1356 77.3658 70.4291 78.4745Z" fill="white" stroke="white"/>
</svg>
