<svg width="55" height="56" viewBox="0 0 55 56" fill="none" xmlns="http://www.w3.org/2000/svg">
<path d="M27.4331 4.66699V50.0929H28.1804H36.8557V51.3337H39.5676V50.0929H43.3348V4.66699H27.4331ZM31.3904 28.8963C31.3904 29.5631 30.8485 30.1044 30.1829 30.1044C29.5174 30.1044 28.976 29.5625 28.976 28.8963V24.9157C28.976 24.2501 29.5179 23.7082 30.1829 23.7082C30.8491 23.7082 31.3904 24.2501 31.3904 24.9157V28.8963Z" fill="#333333"/>
<path d="M10.6665 50.0929H14.4337V51.3337H17.1462V50.0929H25.8209H26.5682V4.66699H10.6665V50.0929ZM22.6114 24.9157C22.6114 24.2501 23.1539 23.7082 23.8195 23.7082C24.4851 23.7082 25.0264 24.2501 25.0264 24.9157V28.8963C25.0264 29.5631 24.4845 30.1044 23.8195 30.1044C23.1533 30.1044 22.6114 29.5625 22.6114 28.8963V24.9157Z" fill="#333333"/>
</svg>
