<svg width="80" height="87" viewBox="0 0 80 87" fill="none" xmlns="http://www.w3.org/2000/svg">
<g filter="url(#filter0_dd_697_4910)">
<rect x="6" y="1" width="68" height="68" rx="34" fill="white"/>
<path d="M40.9765 30.0103C39.7152 29.2261 37.5633 29.686 36.9976 30.2518C36.9565 30.2922 36.9239 30.3403 36.9015 30.3934C36.8791 30.4465 36.8674 30.5034 36.8672 30.5611C36.8669 30.6187 36.8781 30.6757 36.9 30.729C36.922 30.7823 36.9542 30.8307 36.995 30.8714C37.0357 30.9121 37.0841 30.9444 37.1374 30.9663C37.1907 30.9882 37.2477 30.9994 37.3053 30.9991C37.3629 30.9989 37.4199 30.9872 37.473 30.9648C37.5261 30.9424 37.5742 30.9098 37.6146 30.8687C37.8962 30.5871 39.591 30.1764 40.5159 30.7512C40.5645 30.7814 40.6186 30.8018 40.6752 30.8111C40.7317 30.8204 40.7895 30.8185 40.8453 30.8055C40.9011 30.7925 40.9537 30.7686 41.0003 30.7353C41.0468 30.7019 41.0864 30.6597 41.1166 30.611C41.1469 30.5624 41.1672 30.5082 41.1766 30.4517C41.1859 30.3952 41.184 30.3374 41.171 30.2816C41.1579 30.2258 41.1341 30.1732 41.1007 30.1266C41.0673 30.08 41.0251 30.0405 40.9765 30.0103Z" fill="black"/>
<path d="M33.6364 31.03C33.7259 31.03 33.8133 31.0025 33.8867 30.9512C33.96 30.8998 34.0158 30.8272 34.0465 30.743C34.0771 30.6589 34.0811 30.5674 34.0579 30.4809C34.0348 30.3944 33.9856 30.3171 33.917 30.2596C32.7794 29.3049 30.5842 29.4556 29.944 29.9356C29.8982 29.97 29.8596 30.0131 29.8304 30.0624C29.8012 30.1116 29.782 30.1662 29.7739 30.2229C29.7658 30.2796 29.769 30.3374 29.7832 30.3929C29.7974 30.4483 29.8224 30.5005 29.8568 30.5463C29.8911 30.5922 29.9342 30.6308 29.9835 30.66C30.0328 30.6891 30.0873 30.7083 30.144 30.7164C30.2007 30.7246 30.2585 30.7214 30.314 30.7072C30.3695 30.693 30.4216 30.668 30.4674 30.6336C30.786 30.3947 32.522 30.228 33.3562 30.9279C33.4346 30.9939 33.5339 31.0301 33.6364 31.03Z" fill="black"/>
<path d="M52.4806 24.1145C51.0043 22.6382 49.6697 22.2839 49.0271 21.6413C48.5275 21.1417 49.3479 19.6895 48.1804 18.5221C46.9563 17.2978 43.5284 17.9727 42.4261 17.6444C41.5585 17.3866 41.6664 15.6982 39.5958 15.6982C37.6409 15.6982 36.6816 16.8346 35.6174 16.8346C35.4848 16.8462 35.3513 16.8285 35.2264 16.7827C35.1014 16.7368 34.9881 16.664 34.8945 16.5693C34.6426 16.354 34.3499 16.1915 34.0339 16.0916C33.7179 15.9917 33.385 15.9565 33.0551 15.9879C31.9527 15.9879 31.2224 16.8802 30.6405 17.7329C30.2309 17.61 29.7985 17.5828 29.3768 17.6536C28.955 17.7243 28.5551 17.8911 28.2081 18.1411C26.0984 19.7393 26.452 24.4965 26.452 26.5521C26.456 27.1816 26.5897 27.8036 26.8447 28.3791C27.0997 28.9547 27.4706 29.4715 27.9341 29.8975C27.9947 31.6242 28.769 33.7859 28.769 36.078C28.769 38.5555 29.8364 42.3083 30.8334 44.2588C31.794 46.1384 32.5485 49.37 35.9271 49.37C36.3817 49.3641 36.8343 49.3107 37.2777 49.2107C37.5955 49.6753 38.3238 50.9881 38.3238 53.2634C38.3238 53.3791 38.3697 53.4901 38.4515 53.5719C38.5333 53.6537 38.6443 53.6996 38.76 53.6996C38.8757 53.6996 38.9866 53.6537 39.0684 53.5719C39.1502 53.4901 39.1962 53.3791 39.1962 53.2634C39.2458 51.7669 38.889 50.285 38.1637 48.9751C40.6191 48.1516 42.8391 46.7467 44.6345 44.88C46.0697 43.4551 47.1164 41.6867 47.675 39.7431C47.8971 39.7352 48.1124 39.7196 48.3208 39.6963C48.2897 41.4426 48.294 47.1061 49.511 51.033C49.528 51.0878 49.5556 51.1386 49.5922 51.1827C49.6288 51.2267 49.6737 51.2631 49.7244 51.2898C49.7751 51.3165 49.8306 51.333 49.8876 51.3383C49.9446 51.3435 50.0022 51.3375 50.0569 51.3206C50.1116 51.3036 50.1624 51.276 50.2065 51.2394C50.2506 51.2028 50.287 51.1579 50.3137 51.1072C50.3404 51.0565 50.3568 51.001 50.3621 50.944C50.3674 50.887 50.3614 50.8294 50.3444 50.7747C49.1384 46.8836 49.1689 41.0074 49.1973 39.5433C50.0909 39.3506 50.9065 38.8952 51.5394 38.2356C52.3023 37.3764 52.7065 36.2572 52.6686 35.1089C52.721 34.2025 52.504 33.3009 52.045 32.5176C52.6706 31.3002 53.0617 29.9761 53.1979 28.6142C53.3574 27.3611 53.4765 25.1104 52.4806 24.1145ZM50.8997 37.6424C50.3096 38.2414 49.5409 38.6325 48.7093 38.7567C48.701 38.7578 48.6929 38.7593 48.6848 38.7609C48.4115 38.8107 48.1354 38.8438 47.858 38.86C47.9417 38.3245 47.9753 37.7823 47.9585 37.2406C47.9549 37.1249 47.9054 37.0155 47.821 36.9363C47.7367 36.8571 47.6243 36.8147 47.5087 36.8184C47.3931 36.822 47.2836 36.8715 47.2044 36.9558C47.1253 37.0402 47.0828 37.1525 47.0865 37.2682C47.1067 37.9227 47.0454 38.5772 46.904 39.2166L46.9009 39.2299C46.4148 41.1434 45.4143 42.8874 44.0078 44.2729C41.3491 47.0169 37.8601 48.4976 35.9271 48.4976C33.18 48.4976 32.6045 45.8073 31.6102 43.8618C30.6594 42.0016 29.6414 38.43 29.6414 36.078C29.6414 33.7245 28.8877 31.5553 28.8082 29.9467C30.1414 29.1102 29.7451 27.5334 31.4245 26.7033C31.9515 26.4429 32.3733 27.4345 33.5324 27.4345C35.7382 27.4345 37.8076 27.4074 40.2164 26.6273C41.5024 26.2119 42.8359 28.3185 42.8543 29.6979C42.872 31.0466 42.6694 32.9242 43.5507 33.8169C43.711 33.9758 43.9022 34.1001 44.1124 34.1821C44.3226 34.2642 44.5475 34.3022 44.773 34.2938H46.1337C46.9961 34.3009 47.8273 33.9712 48.4503 33.3749C48.7139 33.1121 49.0272 32.9043 49.3718 32.7637C49.7165 32.6232 50.0857 32.5526 50.4579 32.5561C51.6223 32.5561 51.7961 34.1642 51.7961 35.1227C51.8359 36.0471 51.5144 36.9508 50.8997 37.6424ZM52.3324 28.5039C52.2094 29.6839 51.891 30.8352 51.3901 31.9106C51.1038 31.7567 50.7829 31.6786 50.4579 31.6837C49.4806 31.6797 48.5412 32.062 47.8444 32.7473C47.3837 33.1861 46.77 33.428 46.1337 33.4214H44.773C44.6631 33.429 44.5529 33.4137 44.4493 33.3763C44.3458 33.3388 44.2512 33.2802 44.1716 33.204C43.5825 32.6073 43.7414 30.7973 43.7266 29.6863C43.701 27.7571 41.9056 25.1633 39.9477 25.7973C37.7124 26.5211 35.7217 26.562 33.5324 26.562C32.6813 26.562 32.1801 25.3565 31.0379 25.9212C29.1358 26.8613 29.296 28.5098 28.4197 29.1554C27.7259 28.4659 27.3322 27.5303 27.3244 26.5521C27.3244 25.1816 26.9508 20.1881 28.7349 18.8365C28.931 18.6935 29.154 18.5916 29.3905 18.5372C29.627 18.4827 29.872 18.4768 30.1109 18.5197C29.9014 18.8171 29.672 19.1066 29.5584 19.1066C29.4427 19.1066 29.3318 19.1526 29.25 19.2344C29.1682 19.3162 29.1222 19.4272 29.1222 19.5429C29.1222 19.6585 29.1682 19.7695 29.25 19.8513C29.3318 19.9331 29.4427 19.9791 29.5584 19.9791C30.1982 19.9791 30.6266 19.3314 31.1227 18.5814C31.6563 17.7748 32.2611 16.8604 33.0551 16.8604C33.8736 16.8604 34.0903 17.0381 34.3412 17.2439C34.5124 17.4021 34.7135 17.5246 34.9326 17.6041C35.1518 17.6836 35.3846 17.7186 35.6174 17.707C36.9994 17.707 37.8376 16.5707 39.5958 16.5707C41.2059 16.5707 40.7514 18.0564 42.1773 18.4807C43.3694 18.8351 46.7017 18.2772 47.5635 19.1389C48.4516 20.0271 47.4981 21.3461 48.4102 22.2582C49.2052 23.0533 50.4406 23.3084 51.8637 24.7314C52.383 25.2508 52.5626 26.6963 52.3324 28.5039Z" fill="black"/>
<path d="M37.1548 40.6913C37.2654 40.6572 37.3579 40.5806 37.412 40.4784C37.4661 40.3761 37.4773 40.2565 37.4432 40.1459C37.4092 40.0354 37.3326 39.9429 37.2303 39.8888C37.128 39.8347 37.0084 39.8235 36.8979 39.8575C35.6756 40.2343 34.7198 39.9843 34.233 39.6249C34.1299 39.5624 34.0425 39.4773 33.9773 39.3759C33.9121 39.2746 33.8709 39.1598 33.8568 39.0401C33.8568 38.2137 35.2534 36.5001 35.2534 35.5563C35.2534 35.4407 35.2075 35.3297 35.1257 35.2479C35.0439 35.1661 34.9329 35.1201 34.8172 35.1201C34.7015 35.1201 34.5906 35.1661 34.5088 35.2479C34.4269 35.3297 34.381 35.4407 34.381 35.5563C34.381 36.1612 32.9844 37.9512 32.9844 39.0401C32.995 39.2972 33.0668 39.548 33.1939 39.7718C33.3209 39.9956 33.4995 40.1858 33.7148 40.3267C34.2226 40.6453 34.7965 40.8437 35.3926 40.9069C35.9888 40.9701 36.5915 40.8964 37.1548 40.6913Z" fill="black"/>
<path d="M38.8825 42.3639C36.2446 43.2799 34.8717 42.4501 34.8073 42.4096C34.7103 42.3465 34.5923 42.3244 34.4791 42.3483C34.3659 42.3721 34.2668 42.44 34.2036 42.5369C34.1404 42.6338 34.1183 42.7519 34.1422 42.8651C34.1661 42.9783 34.2339 43.0774 34.3309 43.1406C35.0179 43.5161 35.7946 43.6963 36.5768 43.6617C37.4612 43.6501 38.3373 43.49 39.1687 43.1881C39.2777 43.15 39.3672 43.0701 39.4175 42.9661C39.4677 42.8621 39.4747 42.7424 39.4368 42.6332C39.3989 42.5241 39.3193 42.4344 39.2153 42.3839C39.1114 42.3334 38.9917 42.3262 38.8825 42.3639Z" fill="black"/>
<path d="M33.4202 34.2157C33.4202 33.5734 33.1557 33.0527 32.8293 33.0527C32.5029 33.0527 32.2383 33.5734 32.2383 34.2157C32.2383 34.8579 32.5029 35.3786 32.8293 35.3786C33.1557 35.3786 33.4202 34.8579 33.4202 34.2157Z" fill="black"/>
<path d="M39.0265 33.0527C38.7001 33.0527 38.4355 33.5734 38.4355 34.2157C38.4355 34.8579 38.7001 35.3786 39.0265 35.3786C39.3529 35.3786 39.6175 34.8579 39.6175 34.2157C39.6175 33.5734 39.3529 33.0527 39.0265 33.0527Z" fill="black"/>
<path d="M50.0467 33.8914C49.8541 33.7989 49.645 33.7456 49.4316 33.7346C49.2181 33.7236 49.0047 33.7551 48.8035 33.8273C48.6959 33.8698 48.6095 33.9532 48.5635 34.0594C48.5174 34.1655 48.5153 34.2856 48.5578 34.3932C48.6002 34.5008 48.6837 34.5872 48.7898 34.6333C48.8959 34.6793 49.016 34.6814 49.1236 34.6389C49.3001 34.5849 49.4902 34.5969 49.6585 34.6727C49.8005 34.7654 49.9217 34.8864 50.0146 35.0282C50.1076 35.17 50.1701 35.3295 50.1984 35.4967C50.2296 35.6081 50.3038 35.7025 50.4046 35.7593C50.5054 35.816 50.6247 35.8304 50.7361 35.7992C50.8475 35.768 50.942 35.6938 50.9987 35.593C51.0554 35.4922 51.0698 35.3729 51.0386 35.2615C50.981 34.9754 50.8626 34.7051 50.6915 34.4687C50.5204 34.2323 50.3005 34.0355 50.0467 33.8914Z" fill="black"/>
<path d="M49.7482 35.1587C49.6427 35.1111 49.5227 35.1074 49.4145 35.1483C49.3063 35.1892 49.2187 35.2715 49.1711 35.3769C48.9539 35.9551 48.9481 36.5915 49.1549 37.1735C49.173 37.2279 49.2017 37.2781 49.2392 37.3214C49.2767 37.3647 49.3224 37.4002 49.3737 37.4258C49.4249 37.4514 49.4807 37.4667 49.5378 37.4707C49.595 37.4748 49.6524 37.4676 49.7067 37.4495C49.7611 37.4313 49.8113 37.4027 49.8546 37.3652C49.8979 37.3276 49.9333 37.2819 49.959 37.2307C49.9846 37.1795 49.9999 37.1237 50.0039 37.0665C50.008 37.0094 50.0007 36.952 49.9826 36.8977C49.8447 36.5222 49.8396 36.1108 49.9681 35.732C50.0144 35.6268 50.0173 35.5075 49.9761 35.4001C49.9349 35.2928 49.853 35.206 49.7482 35.1587Z" fill="black"/>
</g>
<defs>
<filter id="filter0_dd_697_4910" x="0" y="0" width="80" height="87" filterUnits="userSpaceOnUse" color-interpolation-filters="sRGB">
<feFlood flood-opacity="0" result="BackgroundImageFix"/>
<feColorMatrix in="SourceAlpha" type="matrix" values="0 0 0 0 0 0 0 0 0 0 0 0 0 0 0 0 0 0 127 0" result="hardAlpha"/>
<feOffset/>
<feGaussianBlur stdDeviation="0.5"/>
<feColorMatrix type="matrix" values="0 0 0 0 0 0 0 0 0 0 0 0 0 0 0 0 0 0 0.4 0"/>
<feBlend mode="normal" in2="BackgroundImageFix" result="effect1_dropShadow_697_4910"/>
<feColorMatrix in="SourceAlpha" type="matrix" values="0 0 0 0 0 0 0 0 0 0 0 0 0 0 0 0 0 0 127 0" result="hardAlpha"/>
<feMorphology radius="6" operator="erode" in="SourceAlpha" result="effect2_dropShadow_697_4910"/>
<feOffset dy="12"/>
<feGaussianBlur stdDeviation="6"/>
<feColorMatrix type="matrix" values="0 0 0 0 0 0 0 0 0 0 0 0 0 0 0 0 0 0 0.16 0"/>
<feBlend mode="normal" in2="effect1_dropShadow_697_4910" result="effect2_dropShadow_697_4910"/>
<feBlend mode="normal" in="SourceGraphic" in2="effect2_dropShadow_697_4910" result="shape"/>
</filter>
</defs>
</svg>
