<svg width="153" height="91" viewBox="0 0 153 91" fill="none" xmlns="http://www.w3.org/2000/svg">
<path d="M77.4437 28.3042C76.159 27.5054 73.9673 27.9739 73.3911 28.5502C73.3492 28.5913 73.3159 28.6403 73.2931 28.6944C73.2703 28.7485 73.2585 28.8065 73.2582 28.8652C73.258 28.9239 73.2693 28.982 73.2917 29.0363C73.314 29.0905 73.3469 29.1398 73.3884 29.1813C73.4299 29.2228 73.4792 29.2556 73.5334 29.278C73.5877 29.3003 73.6458 29.3117 73.7045 29.3114C73.7632 29.3111 73.8212 29.2993 73.8753 29.2764C73.9293 29.2536 73.9783 29.2203 74.0195 29.1785C74.3064 28.8917 76.0326 28.4734 76.9746 29.0588C77.0241 29.0896 77.0793 29.1104 77.1368 29.1199C77.1944 29.1294 77.2533 29.1274 77.3101 29.1142C77.3669 29.1009 77.4206 29.0766 77.468 29.0426C77.5154 29.0086 77.5557 28.9656 77.5865 28.9161C77.6173 28.8665 77.638 28.8114 77.6475 28.7538C77.657 28.6963 77.6551 28.6374 77.6418 28.5806C77.6286 28.5237 77.6042 28.4701 77.5703 28.4227C77.5363 28.3752 77.4933 28.335 77.4437 28.3042Z" fill="black"/>
<path d="M69.9669 29.3425C70.0581 29.3425 70.1471 29.3145 70.2219 29.2622C70.2966 29.2099 70.3534 29.1359 70.3846 29.0502C70.4158 28.9645 70.4199 28.8713 70.3963 28.7832C70.3727 28.6951 70.3226 28.6164 70.2527 28.5578C69.094 27.5854 66.8581 27.7389 66.2061 28.2278C66.1594 28.2629 66.1201 28.3067 66.0904 28.3569C66.0606 28.4071 66.0411 28.4627 66.0328 28.5204C66.0246 28.5782 66.0278 28.637 66.0422 28.6935C66.0567 28.7501 66.0822 28.8032 66.1172 28.8499C66.1522 28.8965 66.196 28.9359 66.2463 28.9656C66.2965 28.9953 66.352 29.0149 66.4098 29.0231C66.4675 29.0314 66.5264 29.0282 66.5829 29.0137C66.6394 28.9992 66.6925 28.9738 66.7392 28.9388C67.0637 28.6954 68.8319 28.5256 69.6816 29.2385C69.7614 29.3057 69.8625 29.3426 69.9669 29.3425Z" fill="black"/>
<path d="M89.1609 22.2995C87.6572 20.7958 86.2978 20.4349 85.6433 19.7804C85.1344 19.2715 85.97 17.7924 84.7809 16.6033C83.534 15.3563 80.0426 16.0437 78.9198 15.7093C78.0361 15.4467 78.146 13.7271 76.0371 13.7271C74.0459 13.7271 73.0688 14.8845 71.9849 14.8845C71.8498 14.8964 71.7138 14.8783 71.5865 14.8316C71.4593 14.7849 71.3438 14.7107 71.2485 14.6143C70.9919 14.395 70.6939 14.2295 70.372 14.1278C70.0501 14.026 69.7111 13.9901 69.375 14.0221C68.2522 14.0221 67.5083 14.931 66.9156 15.7995C66.4984 15.6743 66.058 15.6466 65.6284 15.7187C65.1988 15.7908 64.7916 15.9607 64.4381 16.2153C62.2893 17.8431 62.6494 22.6886 62.6494 24.7823C62.6535 25.4235 62.7897 26.057 63.0494 26.6432C63.3092 27.2294 63.6869 27.7559 64.159 28.1897C64.2207 29.9484 65.0094 32.1503 65.0094 34.4849C65.0094 37.0084 66.0966 40.8308 67.1121 42.8174C68.0905 44.7319 68.8591 48.0234 72.3003 48.0234C72.7633 48.0174 73.2243 47.9631 73.676 47.8612C73.9997 48.3344 74.7414 49.6716 74.7414 51.9891C74.7414 52.1069 74.7882 52.2199 74.8715 52.3033C74.9549 52.3866 75.0679 52.4334 75.1857 52.4334C75.3036 52.4334 75.4166 52.3866 75.4999 52.3033C75.5832 52.2199 75.63 52.1069 75.63 51.9891C75.6806 50.4649 75.3171 48.9554 74.5783 47.6212C77.0794 46.7825 79.3406 45.3514 81.1692 43.4502C82.631 41.9989 83.6971 40.1977 84.2661 38.2179C84.4923 38.2099 84.7116 38.1941 84.9239 38.1703C84.8922 39.949 84.8966 45.7176 86.1362 49.7174C86.1535 49.7731 86.1816 49.8249 86.2189 49.8698C86.2562 49.9146 86.3019 49.9517 86.3535 49.9789C86.4052 50.0061 86.4617 50.0229 86.5198 50.0282C86.5779 50.0336 86.6364 50.0275 86.6922 50.0102C86.7479 49.9929 86.7997 49.9648 86.8446 49.9275C86.8895 49.8903 86.9266 49.8445 86.9537 49.7929C86.9809 49.7412 86.9977 49.6848 87.0031 49.6267C87.0084 49.5686 87.0023 49.51 86.985 49.4542C85.7567 45.4909 85.7877 39.5057 85.8167 38.0144C86.7269 37.8182 87.5576 37.3544 88.2022 36.6825C88.9792 35.8074 89.3909 34.6675 89.3523 33.4978C89.4057 32.5746 89.1847 31.6563 88.7172 30.8584C89.3544 29.6185 89.7527 28.2698 89.8915 26.8826C90.054 25.6063 90.1752 23.3138 89.1609 22.2995ZM87.5506 36.0783C86.9496 36.6884 86.1666 37.0868 85.3196 37.2133C85.3112 37.2144 85.3029 37.2159 85.2946 37.2175C85.0162 37.2682 84.735 37.302 84.4525 37.3185C84.5377 36.7731 84.572 36.2208 84.5549 35.669C84.5512 35.5512 84.5008 35.4398 84.4149 35.3591C84.3289 35.2785 84.2145 35.2353 84.0967 35.239C83.9789 35.2427 83.8675 35.2931 83.7868 35.379C83.7062 35.4649 83.663 35.5794 83.6667 35.6971C83.6873 36.3638 83.6248 37.0305 83.4808 37.6817L83.4776 37.6953C82.9826 39.6443 81.9635 41.4206 80.5309 42.8318C77.8229 45.6267 74.2691 47.1348 72.3003 47.1348C69.5022 47.1348 68.9161 44.3946 67.9033 42.413C66.9349 40.5183 65.8979 36.8805 65.8979 34.4849C65.8979 32.0878 65.1303 29.8783 65.0493 28.2398C66.4073 27.3878 66.0036 25.7817 67.7142 24.9363C68.251 24.671 68.6805 25.681 69.8612 25.681C72.1079 25.681 74.2157 25.6534 76.6692 24.8588C77.979 24.4357 79.3373 26.5815 79.3559 27.9864C79.374 29.3602 79.1677 31.2726 80.0653 32.1819C80.2286 32.3437 80.4233 32.4703 80.6374 32.5539C80.8516 32.6374 81.0806 32.6761 81.3103 32.6676H82.6962C83.5746 32.6748 84.4212 32.339 85.0558 31.7317C85.3243 31.4639 85.6434 31.2523 85.9944 31.1091C86.3455 30.966 86.7215 30.8941 87.1007 30.8977C88.2866 30.8977 88.4637 32.5356 88.4637 33.5119C88.5042 34.4535 88.1767 35.3738 87.5506 36.0783ZM89.0099 26.7703C88.8847 27.9722 88.5603 29.1448 88.0501 30.2402C87.7585 30.0834 87.4317 30.0039 87.1007 30.0091C86.1052 30.005 85.1484 30.3944 84.4386 31.0924C83.9694 31.5394 83.3443 31.7857 82.6963 31.779H81.3103C81.1984 31.7868 81.0861 31.7711 80.9806 31.733C80.8751 31.6949 80.7788 31.6351 80.6977 31.5576C80.0977 30.9498 80.2595 29.1062 80.2445 27.9747C80.2184 26.0096 78.3897 23.3677 76.3954 24.0134C74.1187 24.7507 72.0911 24.7924 69.8612 24.7924C68.9942 24.7924 68.4838 23.5645 67.3204 24.1397C65.383 25.0972 65.5462 26.7763 64.6537 27.4339C63.9469 26.7316 63.546 25.7787 63.538 24.7823C63.538 23.3863 63.1575 18.3002 64.9747 16.9236C65.1744 16.7779 65.4015 16.6742 65.6424 16.6187C65.8833 16.5632 66.1329 16.5571 66.3762 16.6009C66.1628 16.9038 65.9292 17.1987 65.8135 17.1987C65.6956 17.1987 65.5826 17.2455 65.4993 17.3288C65.416 17.4122 65.3692 17.5252 65.3692 17.643C65.3692 17.7609 65.416 17.8739 65.4993 17.9572C65.5826 18.0405 65.6956 18.0873 65.8135 18.0873C66.4651 18.0873 66.9014 17.4276 67.4067 16.6638C67.9502 15.8421 68.5663 14.9108 69.375 14.9108C70.2087 14.9108 70.4294 15.0918 70.685 15.3014C70.8594 15.4625 71.0642 15.5873 71.2874 15.6683C71.5106 15.7493 71.7477 15.7849 71.9849 15.7731C73.3925 15.7731 74.2462 14.6157 76.0371 14.6157C77.677 14.6157 77.2141 16.129 78.6665 16.5612C79.8806 16.9221 83.2748 16.3539 84.1525 17.2316C85.0572 18.1363 84.0859 19.4797 85.0149 20.4087C85.8247 21.2186 87.083 21.4784 88.5325 22.9278C89.0615 23.4568 89.2444 24.9292 89.0099 26.7703Z" fill="black"/>
<path d="M73.5506 39.1834C73.6632 39.1487 73.7574 39.0707 73.8125 38.9665C73.8676 38.8623 73.879 38.7406 73.8443 38.6279C73.8096 38.5153 73.7316 38.4211 73.6274 38.366C73.5232 38.3109 73.4015 38.2995 73.2888 38.3342C72.0439 38.7179 71.0703 38.4633 70.5745 38.0972C70.4696 38.0336 70.3805 37.9469 70.3141 37.8437C70.2477 37.7405 70.2058 37.6235 70.1914 37.5016C70.1914 36.6598 71.6139 34.9144 71.6139 33.9532C71.6139 33.8354 71.5671 33.7223 71.4838 33.639C71.4004 33.5557 71.2874 33.5089 71.1696 33.5089C71.0517 33.5089 70.9387 33.5557 70.8554 33.639C70.7721 33.7223 70.7253 33.8354 70.7253 33.9532C70.7253 34.5693 69.3027 36.3925 69.3027 37.5016C69.3136 37.7635 69.3867 38.019 69.5161 38.2469C69.6455 38.4748 69.8274 38.6686 70.0467 38.8121C70.564 39.1366 71.1485 39.3387 71.7557 39.403C72.3629 39.4674 72.9768 39.3923 73.5506 39.1834Z" fill="black"/>
<path d="M75.3114 40.8869C72.6246 41.8199 71.2262 40.9747 71.1606 40.9335C71.0618 40.8692 70.9416 40.8467 70.8263 40.871C70.711 40.8953 70.6101 40.9644 70.5457 41.0631C70.4814 41.1619 70.4589 41.2821 70.4832 41.3974C70.5075 41.5127 70.5766 41.6136 70.6753 41.678C71.3751 42.0605 72.1663 42.2441 72.963 42.2088C73.8638 42.197 74.7561 42.0339 75.6029 41.7264C75.714 41.6876 75.8051 41.6063 75.8563 41.5003C75.9075 41.3943 75.9146 41.2724 75.876 41.1612C75.8374 41.0501 75.7563 40.9587 75.6504 40.9073C75.5446 40.8559 75.4227 40.8485 75.3114 40.8869Z" fill="black"/>
<path d="M69.7472 32.5879C69.7472 31.9337 69.4777 31.4034 69.1452 31.4034C68.8128 31.4034 68.5433 31.9337 68.5433 32.5879C68.5433 33.242 68.8128 33.7724 69.1452 33.7724C69.4777 33.7724 69.7472 33.242 69.7472 32.5879Z" fill="black"/>
<path d="M75.4572 31.4034C75.1248 31.4034 74.8553 31.9337 74.8553 32.5879C74.8553 33.242 75.1248 33.7724 75.4572 33.7724C75.7897 33.7724 76.0591 33.242 76.0591 32.5879C76.0591 31.9337 75.7896 31.4034 75.4572 31.4034Z" fill="black"/>
<path d="M86.6826 32.2573C86.4864 32.1631 86.2734 32.1088 86.056 32.0976C85.8386 32.0864 85.6212 32.1185 85.4163 32.1921C85.3067 32.2353 85.2188 32.3203 85.1718 32.4284C85.1249 32.5365 85.1228 32.6588 85.166 32.7684C85.2093 32.878 85.2943 32.966 85.4024 33.0129C85.5105 33.0599 85.6328 33.062 85.7424 33.0187C85.9221 32.9637 86.1158 32.9759 86.2872 33.0531C86.4318 33.1475 86.5553 33.2708 86.6499 33.4152C86.7446 33.5597 86.8083 33.7221 86.8371 33.8924C86.8689 34.0058 86.9444 34.1021 87.0471 34.1598C87.1498 34.2176 87.2713 34.2322 87.3848 34.2005C87.4983 34.1687 87.5945 34.0932 87.6523 33.9905C87.71 33.8878 87.7247 33.7663 87.6929 33.6529C87.6342 33.3615 87.5136 33.0861 87.3393 32.8454C87.165 32.6046 86.9411 32.4041 86.6826 32.2573Z" fill="black"/>
<path d="M86.3774 33.5482C86.2699 33.4997 86.1477 33.4959 86.0374 33.5376C85.9272 33.5793 85.8381 33.663 85.7896 33.7704C85.5683 34.3594 85.5624 35.0076 85.773 35.6004C85.7915 35.6557 85.8207 35.7069 85.8589 35.751C85.8971 35.7951 85.9437 35.8312 85.9959 35.8573C86.0481 35.8834 86.1049 35.899 86.1631 35.9031C86.2213 35.9073 86.2797 35.8999 86.3351 35.8814C86.3904 35.863 86.4416 35.8338 86.4857 35.7956C86.5298 35.7573 86.5659 35.7108 86.592 35.6586C86.6181 35.6064 86.6337 35.5496 86.6378 35.4914C86.6419 35.4332 86.6346 35.3748 86.6161 35.3194C86.4756 34.937 86.4704 34.518 86.6013 34.1321C86.6485 34.0249 86.6514 33.9034 86.6095 33.7941C86.5675 33.6847 86.4841 33.5964 86.3774 33.5482Z" fill="black"/>
<path d="M2.65625 77V86H1.25C1.30729 85.6875 1.34115 85.237 1.35156 84.6484C1.36198 84.0547 1.36719 83.3724 1.36719 82.6016V77.9922C1.36719 77.2214 1.36198 76.5417 1.35156 75.9531C1.34115 75.3594 1.30729 74.9062 1.25 74.5938H2.65625L8.86719 83.6328V74.5938H10.2734C10.2474 74.75 10.2266 74.9427 10.2109 75.1719C10.1953 75.401 10.1823 75.6615 10.1719 75.9531C10.1667 76.2396 10.1615 76.5547 10.1562 76.8984C10.1562 77.2422 10.1562 77.6068 10.1562 77.9922V86H8.86719L2.65625 77ZM12.9062 82.0547C12.9062 82.5078 12.9609 82.9141 13.0703 83.2734C13.1797 83.6328 13.3333 83.9375 13.5312 84.1875C13.7344 84.4323 13.974 84.6198 14.25 84.75C14.526 84.8802 14.8333 84.9453 15.1719 84.9453C15.4844 84.9453 15.7786 84.8802 16.0547 84.75C16.3307 84.6198 16.5703 84.4323 16.7734 84.1875C16.9818 83.9375 17.1432 83.6328 17.2578 83.2734C17.3776 82.9141 17.4375 82.5078 17.4375 82.0547C17.4375 81.5964 17.3828 81.1875 17.2734 80.8281C17.1641 80.4635 17.0078 80.1562 16.8047 79.9062C16.6068 79.651 16.3672 79.4583 16.0859 79.3281C15.8099 79.1927 15.5052 79.125 15.1719 79.125C14.8542 79.125 14.5573 79.1927 14.2812 79.3281C14.0052 79.4583 13.7656 79.651 13.5625 79.9062C13.3594 80.1562 13.1979 80.4635 13.0781 80.8281C12.9635 81.1875 12.9062 81.5964 12.9062 82.0547ZM11.4609 82.0547C11.4609 81.3828 11.5625 80.7891 11.7656 80.2734C11.9688 79.7526 12.2422 79.3151 12.5859 78.9609C12.9297 78.6016 13.3307 78.3307 13.7891 78.1484C14.2474 77.9661 14.7344 77.875 15.25 77.875C15.7865 77.875 16.276 77.9661 16.7188 78.1484C17.1667 78.3307 17.5495 78.6016 17.8672 78.9609C18.1901 79.3151 18.4401 79.7526 18.6172 80.2734C18.7943 80.7891 18.8828 81.3828 18.8828 82.0547C18.8828 82.7266 18.7812 83.3203 18.5781 83.8359C18.375 84.3516 18.1016 84.7839 17.7578 85.1328C17.4141 85.4818 17.013 85.7474 16.5547 85.9297C16.0964 86.1068 15.6094 86.1953 15.0938 86.1953C14.5573 86.1953 14.0651 86.1068 13.6172 85.9297C13.1745 85.7474 12.7917 85.4818 12.4688 85.1328C12.151 84.7839 11.9036 84.3516 11.7266 83.8359C11.5495 83.3203 11.4609 82.7266 11.4609 82.0547ZM29.3047 86H27.8594V81.5469C27.8594 81.0625 27.8411 80.6719 27.8047 80.375C27.7682 80.0729 27.7057 79.8385 27.6172 79.6719C27.5339 79.5 27.4193 79.3854 27.2734 79.3281C27.1276 79.2708 26.9453 79.2422 26.7266 79.2422C26.5339 79.2422 26.3411 79.2812 26.1484 79.3594C25.9557 79.4375 25.7708 79.5495 25.5938 79.6953C25.4219 79.8359 25.2604 80.0052 25.1094 80.2031C24.9635 80.3958 24.8385 80.6094 24.7344 80.8438V86H23.2891V81.1953C23.2891 80.4245 23.2448 79.7734 23.1562 79.2422C23.0677 78.7057 22.9818 78.3021 22.8984 78.0312H24.3047C24.362 78.1979 24.4115 78.3958 24.4531 78.625C24.4948 78.849 24.5286 79.0547 24.5547 79.2422C24.7943 78.9661 25.0234 78.7396 25.2422 78.5625C25.4609 78.3854 25.6771 78.2474 25.8906 78.1484C26.1094 78.0443 26.3255 77.974 26.5391 77.9375C26.7526 77.8958 26.9714 77.875 27.1953 77.875C27.4505 77.875 27.6823 77.9115 27.8906 77.9844C28.099 78.0573 28.2812 78.1536 28.4375 78.2734C28.599 78.3932 28.737 78.5339 28.8516 78.6953C28.9661 78.8516 29.0547 79.0156 29.1172 79.1875C29.362 78.9219 29.599 78.7057 29.8281 78.5391C30.0573 78.3672 30.2812 78.2344 30.5 78.1406C30.7188 78.0417 30.9323 77.974 31.1406 77.9375C31.3542 77.8958 31.5625 77.875 31.7656 77.875C32.1615 77.875 32.4948 77.9401 32.7656 78.0703C33.0365 78.1953 33.2526 78.3828 33.4141 78.6328C33.5807 78.8828 33.6979 79.1927 33.7656 79.5625C33.8385 79.9323 33.875 80.3594 33.875 80.8438V86H32.4297V81.7031C32.4297 81.1979 32.4115 80.7865 32.375 80.4688C32.3385 80.151 32.276 79.901 32.1875 79.7188C32.1042 79.5365 31.9896 79.4115 31.8438 79.3438C31.6979 79.276 31.5156 79.2422 31.2969 79.2422C31.1042 79.2422 30.9141 79.2812 30.7266 79.3594C30.5391 79.4323 30.3568 79.5391 30.1797 79.6797C30.0078 79.8151 29.8464 79.9818 29.6953 80.1797C29.5495 80.3776 29.4193 80.599 29.3047 80.8438V86ZM36.2812 82.2109C36.2969 82.6693 36.3672 83.0677 36.4922 83.4062C36.6224 83.7448 36.7969 84.026 37.0156 84.25C37.2396 84.4688 37.5 84.6328 37.7969 84.7422C38.099 84.8516 38.4271 84.9062 38.7812 84.9062C39.2865 84.9062 39.7812 84.849 40.2656 84.7344C40.75 84.6198 41.2318 84.4167 41.7109 84.125L41.8672 85.4141C41.5911 85.5547 41.3203 85.6745 41.0547 85.7734C40.7891 85.8724 40.5234 85.9531 40.2578 86.0156C39.9922 86.0781 39.7214 86.1224 39.4453 86.1484C39.1745 86.1797 38.888 86.1953 38.5859 86.1953C38.0859 86.1953 37.6094 86.1094 37.1562 85.9375C36.7031 85.7604 36.3047 85.5026 35.9609 85.1641C35.6172 84.8203 35.3438 84.3958 35.1406 83.8906C34.9375 83.3854 34.8359 82.7995 34.8359 82.1328C34.8359 81.487 34.9219 80.9036 35.0938 80.3828C35.2708 79.8568 35.5208 79.4089 35.8438 79.0391C36.1667 78.6641 36.5599 78.3776 37.0234 78.1797C37.487 77.9766 38.0078 77.875 38.5859 77.875C39.013 77.875 39.3906 77.9271 39.7188 78.0312C40.0469 78.1302 40.3307 78.2708 40.5703 78.4531C40.8099 78.6302 41.0104 78.8385 41.1719 79.0781C41.3333 79.3177 41.4609 79.5755 41.5547 79.8516C41.6536 80.1276 41.724 80.4167 41.7656 80.7188C41.8073 81.0156 41.8281 81.3099 41.8281 81.6016V81.9062C41.8281 82.0365 41.8255 82.138 41.8203 82.2109H36.2812ZM38.4688 79.0469C37.8958 79.0469 37.4271 79.2161 37.0625 79.5547C36.6979 79.888 36.4583 80.4089 36.3438 81.1172H40.4219C40.4219 80.7839 40.3724 80.4896 40.2734 80.2344C40.1797 79.974 40.0443 79.7552 39.8672 79.5781C39.6953 79.401 39.4896 79.2682 39.25 79.1797C39.0104 79.0911 38.75 79.0469 38.4688 79.0469ZM48.4141 86V81.7031C48.4141 81.2135 48.3802 80.8099 48.3125 80.4922C48.25 80.1745 48.1536 79.9245 48.0234 79.7422C47.8984 79.5547 47.737 79.4245 47.5391 79.3516C47.3464 79.2786 47.1172 79.2422 46.8516 79.2422C46.5703 79.2422 46.2943 79.3099 46.0234 79.4453C45.7578 79.5755 45.513 79.7474 45.2891 79.9609C45.0651 80.1693 44.8672 80.4062 44.6953 80.6719C44.5234 80.9375 44.3958 81.2031 44.3125 81.4688V86H42.8672V81.1953C42.8672 80.4245 42.8229 79.7734 42.7344 79.2422C42.651 78.7057 42.5651 78.3021 42.4766 78.0312H43.8828C43.9141 78.1146 43.9453 78.224 43.9766 78.3594C44.0078 78.4896 44.0365 78.6276 44.0625 78.7734C44.0885 78.9193 44.112 79.0625 44.1328 79.2031L44.1953 79.5547C44.6901 78.9609 45.1901 78.5339 45.6953 78.2734C46.2005 78.0078 46.7292 77.875 47.2812 77.875C48.1146 77.875 48.7526 78.1484 49.1953 78.6953C49.638 79.237 49.8594 80.0443 49.8594 81.1172V86H48.4141ZM55.875 83.9688C56.1406 84.1562 56.3698 84.3125 56.5625 84.4375C56.7604 84.5573 56.9401 84.6536 57.1016 84.7266C57.263 84.7943 57.4167 84.8411 57.5625 84.8672C57.7135 84.8932 57.8802 84.9062 58.0625 84.9062C58.3385 84.9062 58.6016 84.8411 58.8516 84.7109C59.1068 84.5807 59.3307 84.3932 59.5234 84.1484C59.7214 83.8984 59.8776 83.599 59.9922 83.25C60.112 82.8958 60.1719 82.4974 60.1719 82.0547C60.1719 81.6224 60.1302 81.2318 60.0469 80.8828C59.9688 80.5286 59.8516 80.2292 59.6953 79.9844C59.5391 79.7344 59.349 79.5417 59.125 79.4062C58.9062 79.2708 58.6562 79.2031 58.375 79.2031C58.151 79.2031 57.9219 79.2526 57.6875 79.3516C57.4531 79.4505 57.224 79.5964 57 79.7891C56.7812 79.9818 56.5755 80.224 56.3828 80.5156C56.1901 80.8021 56.0208 81.1328 55.875 81.5078V83.9688ZM55.4453 78.0312C55.5026 78.1667 55.5599 78.3594 55.6172 78.6094C55.6745 78.8542 55.7214 79.1562 55.7578 79.5156C55.9401 79.276 56.138 79.0547 56.3516 78.8516C56.5703 78.6484 56.7995 78.4766 57.0391 78.3359C57.2839 78.1901 57.5391 78.0781 57.8047 78C58.0755 77.9167 58.3568 77.875 58.6484 77.875C59.0911 77.875 59.4948 77.974 59.8594 78.1719C60.2292 78.3646 60.5417 78.638 60.7969 78.9922C61.0573 79.3411 61.2578 79.7578 61.3984 80.2422C61.5443 80.7214 61.6172 81.2474 61.6172 81.8203C61.6172 82.487 61.5234 83.0911 61.3359 83.6328C61.1484 84.1693 60.8932 84.6276 60.5703 85.0078C60.2526 85.388 59.8776 85.6823 59.4453 85.8906C59.013 86.0938 58.5521 86.1953 58.0625 86.1953C57.8542 86.1953 57.6562 86.1745 57.4688 86.1328C57.2865 86.0911 57.1068 86.0339 56.9297 85.9609C56.7578 85.888 56.5859 85.7995 56.4141 85.6953C56.2422 85.5859 56.0625 85.4661 55.875 85.3359V87.1719C55.875 87.4844 55.8776 87.7656 55.8828 88.0156C55.8932 88.2708 55.9062 88.5052 55.9219 88.7188C55.9375 88.9323 55.9583 89.1276 55.9844 89.3047C56.0104 89.487 56.0391 89.6615 56.0703 89.8281H54.4297V82.2109C54.4297 81.7266 54.4245 81.2786 54.4141 80.8672C54.4089 80.4505 54.3932 80.0703 54.3672 79.7266C54.3411 79.3776 54.3021 79.0625 54.25 78.7812C54.1979 78.5 54.1276 78.25 54.0391 78.0312H55.4453ZM62.5703 86V81.1953C62.5703 80.4245 62.526 79.7734 62.4375 79.2422C62.3542 78.7057 62.2682 78.3021 62.1797 78.0312H63.5859C63.6172 78.1146 63.6484 78.224 63.6797 78.3594C63.7109 78.4896 63.7396 78.6276 63.7656 78.7734C63.7917 78.9193 63.8151 79.0625 63.8359 79.2031L63.8984 79.5547C64.0859 79.2839 64.2891 79.0443 64.5078 78.8359C64.7318 78.6276 64.9557 78.4531 65.1797 78.3125C65.4089 78.1667 65.6302 78.0573 65.8438 77.9844C66.0625 77.9115 66.2604 77.875 66.4375 77.875C66.7656 77.875 67.0417 77.9479 67.2656 78.0938C67.4948 78.2344 67.6797 78.4271 67.8203 78.6719C67.9661 78.9115 68.0703 79.1901 68.1328 79.5078C68.2005 79.8203 68.2344 80.1484 68.2344 80.4922L66.9844 80.7656C66.9844 80.5729 66.9661 80.388 66.9297 80.2109C66.8932 80.0286 66.8385 79.8698 66.7656 79.7344C66.6927 79.5938 66.599 79.4844 66.4844 79.4062C66.375 79.3229 66.2422 79.2812 66.0859 79.2812C65.9193 79.2812 65.7344 79.3464 65.5312 79.4766C65.3281 79.6016 65.1276 79.7682 64.9297 79.9766C64.737 80.1849 64.5573 80.4193 64.3906 80.6797C64.224 80.9401 64.099 81.2031 64.0156 81.4688V86H62.5703ZM69.5 82.0547C69.5 82.5078 69.5547 82.9141 69.6641 83.2734C69.7734 83.6328 69.9271 83.9375 70.125 84.1875C70.3281 84.4323 70.5677 84.6198 70.8438 84.75C71.1198 84.8802 71.4271 84.9453 71.7656 84.9453C72.0781 84.9453 72.3724 84.8802 72.6484 84.75C72.9245 84.6198 73.1641 84.4323 73.3672 84.1875C73.5755 83.9375 73.737 83.6328 73.8516 83.2734C73.9714 82.9141 74.0312 82.5078 74.0312 82.0547C74.0312 81.5964 73.9766 81.1875 73.8672 80.8281C73.7578 80.4635 73.6016 80.1562 73.3984 79.9062C73.2005 79.651 72.9609 79.4583 72.6797 79.3281C72.4036 79.1927 72.099 79.125 71.7656 79.125C71.4479 79.125 71.151 79.1927 70.875 79.3281C70.599 79.4583 70.3594 79.651 70.1562 79.9062C69.9531 80.1562 69.7917 80.4635 69.6719 80.8281C69.5573 81.1875 69.5 81.5964 69.5 82.0547ZM68.0547 82.0547C68.0547 81.3828 68.1562 80.7891 68.3594 80.2734C68.5625 79.7526 68.8359 79.3151 69.1797 78.9609C69.5234 78.6016 69.9245 78.3307 70.3828 78.1484C70.8411 77.9661 71.3281 77.875 71.8438 77.875C72.3802 77.875 72.8698 77.9661 73.3125 78.1484C73.7604 78.3307 74.1432 78.6016 74.4609 78.9609C74.7839 79.3151 75.0339 79.7526 75.2109 80.2734C75.388 80.7891 75.4766 81.3828 75.4766 82.0547C75.4766 82.7266 75.375 83.3203 75.1719 83.8359C74.9688 84.3516 74.6953 84.7839 74.3516 85.1328C74.0078 85.4818 73.6068 85.7474 73.1484 85.9297C72.6901 86.1068 72.2031 86.1953 71.6875 86.1953C71.151 86.1953 70.6589 86.1068 70.2109 85.9297C69.7682 85.7474 69.3854 85.4818 69.0625 85.1328C68.7448 84.7839 68.4974 84.3516 68.3203 83.8359C68.1432 83.3203 68.0547 82.7266 68.0547 82.0547ZM81.8203 79.7891C81.6276 79.6849 81.4479 79.5964 81.2812 79.5234C81.1146 79.4505 80.9505 79.3906 80.7891 79.3438C80.6276 79.2969 80.4635 79.263 80.2969 79.2422C80.1302 79.2161 79.9479 79.2031 79.75 79.2031C79.4531 79.2031 79.1693 79.2708 78.8984 79.4062C78.6276 79.5417 78.3854 79.737 78.1719 79.9922C77.9635 80.2474 77.7969 80.5599 77.6719 80.9297C77.5469 81.2943 77.4844 81.7083 77.4844 82.1719C77.4844 83.0833 77.638 83.7734 77.9453 84.2422C78.2578 84.7109 78.7552 84.9453 79.4375 84.9453C79.6771 84.9453 79.9141 84.8854 80.1484 84.7656C80.388 84.6458 80.612 84.4896 80.8203 84.2969C81.0339 84.1042 81.2266 83.8854 81.3984 83.6406C81.5703 83.3906 81.7109 83.1354 81.8203 82.875V79.7891ZM83.2656 81.8594C83.2656 82.8438 83.3203 83.6719 83.4297 84.3438C83.5443 85.0104 83.6849 85.5625 83.8516 86H82.4453C82.388 85.8646 82.3177 85.6641 82.2344 85.3984C82.1562 85.1276 82.0833 84.8464 82.0156 84.5547C81.6406 85.0859 81.2161 85.4922 80.7422 85.7734C80.2682 86.0547 79.7422 86.1953 79.1641 86.1953C78.6849 86.1953 78.2526 86.1068 77.8672 85.9297C77.487 85.7474 77.1589 85.4922 76.8828 85.1641C76.612 84.8307 76.4036 84.4323 76.2578 83.9688C76.112 83.5 76.0391 82.9792 76.0391 82.4062C76.0391 81.7135 76.1328 81.0885 76.3203 80.5312C76.513 79.974 76.776 79.5 77.1094 79.1094C77.4427 78.7135 77.8333 78.4089 78.2812 78.1953C78.7344 77.9818 79.224 77.875 79.75 77.875C79.9167 77.875 80.0885 77.8932 80.2656 77.9297C80.4479 77.9661 80.6276 78.0156 80.8047 78.0781C80.987 78.1406 81.1641 78.2135 81.3359 78.2969C81.5078 78.375 81.6693 78.4557 81.8203 78.5391V76.3516C81.8203 75.7214 81.8047 75.1719 81.7734 74.7031C81.7474 74.2292 81.6979 73.8281 81.625 73.5H83.2656V81.8594ZM90.7031 86C90.6667 85.9115 90.6276 85.8073 90.5859 85.6875C90.5443 85.5677 90.5026 85.4401 90.4609 85.3047C90.4245 85.1693 90.388 85.0286 90.3516 84.8828C90.3203 84.7318 90.2943 84.5833 90.2734 84.4375C89.7995 85.0156 89.3099 85.4531 88.8047 85.75C88.3047 86.0469 87.7786 86.1953 87.2266 86.1953C85.5599 86.1953 84.7266 85.0755 84.7266 82.8359V80.5312C84.7266 80.2812 84.724 80.0547 84.7188 79.8516C84.7188 79.6484 84.7135 79.4531 84.7031 79.2656C84.6927 79.0729 84.6771 78.8776 84.6562 78.6797C84.6354 78.4818 84.6068 78.2656 84.5703 78.0312H86.1719V82.3672C86.1719 82.8099 86.1927 83.1927 86.2344 83.5156C86.2812 83.8333 86.3568 84.0964 86.4609 84.3047C86.5651 84.5078 86.7005 84.6589 86.8672 84.7578C87.0391 84.8568 87.25 84.9062 87.5 84.9062C87.7292 84.9062 87.974 84.8385 88.2344 84.7031C88.4948 84.5625 88.7422 84.3854 88.9766 84.1719C89.2161 83.9583 89.4323 83.724 89.625 83.4688C89.8229 83.2083 89.974 82.9583 90.0781 82.7188V80.5312C90.0781 80.276 90.0755 80.0469 90.0703 79.8438C90.0703 79.6354 90.0651 79.4375 90.0547 79.25C90.0443 79.0625 90.0286 78.8724 90.0078 78.6797C89.987 78.487 89.9583 78.2708 89.9219 78.0312H91.5234V82.4844C91.5234 83.2448 91.5651 83.9115 91.6484 84.4844C91.737 85.0521 91.8646 85.5573 92.0312 86H90.7031ZM99.0078 85.3359C98.8099 85.487 98.612 85.6172 98.4141 85.7266C98.2214 85.8307 98.0182 85.9193 97.8047 85.9922C97.5911 86.0599 97.362 86.1094 97.1172 86.1406C96.8724 86.1771 96.6042 86.1953 96.3125 86.1953C95.7865 86.1953 95.2943 86.1042 94.8359 85.9219C94.3776 85.7344 93.9766 85.4661 93.6328 85.1172C93.2891 84.7682 93.0182 84.3464 92.8203 83.8516C92.6224 83.3568 92.5234 82.7969 92.5234 82.1719C92.5234 81.5833 92.6172 81.0286 92.8047 80.5078C92.9974 79.987 93.2682 79.5312 93.6172 79.1406C93.9714 78.75 94.3984 78.4427 94.8984 78.2188C95.4036 77.9896 95.9661 77.875 96.5859 77.875C97.1068 77.875 97.5547 77.9375 97.9297 78.0625C98.3099 78.1823 98.6432 78.3411 98.9297 78.5391L98.6562 79.9453C98.3021 79.6849 97.9505 79.4896 97.6016 79.3594C97.2526 79.2292 96.875 79.1641 96.4688 79.1641C96.1198 79.1641 95.7943 79.2318 95.4922 79.3672C95.1953 79.4974 94.9349 79.6875 94.7109 79.9375C94.4922 80.1875 94.3203 80.4948 94.1953 80.8594C94.0703 81.224 94.0078 81.6354 94.0078 82.0938C94.0078 82.5156 94.0651 82.8984 94.1797 83.2422C94.2943 83.5859 94.4583 83.8828 94.6719 84.1328C94.8854 84.3776 95.1432 84.5677 95.4453 84.7031C95.7474 84.8385 96.0885 84.9062 96.4688 84.9062C96.9427 84.9062 97.3724 84.8255 97.7578 84.6641C98.1432 84.5026 98.5078 84.2708 98.8516 83.9688L99.0078 85.3359ZM98.9844 78.2266H100.547V75.6875H101.992V78.2266H104.531V79.3594H101.992V82.9531C101.992 83.3542 102.01 83.6823 102.047 83.9375C102.089 84.1927 102.148 84.3932 102.227 84.5391C102.31 84.6797 102.414 84.776 102.539 84.8281C102.664 84.8802 102.815 84.9062 102.992 84.9062C103.216 84.9062 103.469 84.8568 103.75 84.7578C104.031 84.6589 104.344 84.513 104.688 84.3203V85.5703C104.328 85.8047 103.984 85.9661 103.656 86.0547C103.328 86.1484 103.026 86.1953 102.75 86.1953C102.443 86.1953 102.156 86.1589 101.891 86.0859C101.625 86.0182 101.391 85.8958 101.188 85.7188C100.99 85.5417 100.833 85.3073 100.719 85.0156C100.604 84.7188 100.547 84.3438 100.547 83.8906V79.3594H98.9844V78.2266ZM110.531 79.8672C110.401 79.7891 110.253 79.7083 110.086 79.625C109.919 79.5365 109.737 79.4557 109.539 79.3828C109.346 79.3099 109.138 79.25 108.914 79.2031C108.695 79.151 108.466 79.125 108.227 79.125C107.94 79.125 107.698 79.1562 107.5 79.2188C107.307 79.2812 107.151 79.362 107.031 79.4609C106.917 79.5547 106.833 79.6641 106.781 79.7891C106.729 79.9089 106.703 80.026 106.703 80.1406C106.703 80.276 106.724 80.3958 106.766 80.5C106.807 80.6042 106.893 80.7005 107.023 80.7891C107.159 80.8776 107.349 80.9635 107.594 81.0469C107.839 81.1302 108.167 81.2188 108.578 81.3125C108.932 81.3906 109.266 81.4922 109.578 81.6172C109.891 81.737 110.164 81.8906 110.398 82.0781C110.633 82.2656 110.818 82.4922 110.953 82.7578C111.089 83.0182 111.156 83.3307 111.156 83.6953C111.156 84.0495 111.078 84.3776 110.922 84.6797C110.766 84.9818 110.552 85.2474 110.281 85.4766C110.01 85.7005 109.693 85.875 109.328 86C108.964 86.1302 108.57 86.1953 108.148 86.1953C107.831 86.1953 107.523 86.1719 107.227 86.125C106.935 86.0781 106.659 86.013 106.398 85.9297C106.143 85.8464 105.909 85.75 105.695 85.6406C105.482 85.5312 105.297 85.4167 105.141 85.2969L105.531 83.8906C105.708 84.0469 105.906 84.1901 106.125 84.3203C106.349 84.4505 106.578 84.5625 106.812 84.6562C107.047 84.75 107.281 84.8229 107.516 84.875C107.755 84.9219 107.979 84.9453 108.188 84.9453C108.417 84.9453 108.625 84.9167 108.812 84.8594C109.005 84.7969 109.169 84.7188 109.305 84.625C109.445 84.526 109.555 84.4141 109.633 84.2891C109.711 84.1589 109.75 84.026 109.75 83.8906C109.75 83.7448 109.719 83.6094 109.656 83.4844C109.599 83.3542 109.49 83.2318 109.328 83.1172C109.172 82.9974 108.953 82.8828 108.672 82.7734C108.396 82.6641 108.039 82.5547 107.602 82.4453C107.128 82.3307 106.74 82.1953 106.438 82.0391C106.141 81.8828 105.906 81.7109 105.734 81.5234C105.568 81.3359 105.453 81.1328 105.391 80.9141C105.328 80.6953 105.297 80.4635 105.297 80.2188C105.297 80.099 105.315 79.9583 105.352 79.7969C105.393 79.6354 105.458 79.4688 105.547 79.2969C105.641 79.1198 105.76 78.9479 105.906 78.7812C106.057 78.6094 106.245 78.4583 106.469 78.3281C106.693 78.1927 106.956 78.0833 107.258 78C107.56 77.9167 107.909 77.875 108.305 77.875C108.586 77.875 108.849 77.8932 109.094 77.9297C109.344 77.9661 109.57 78.0156 109.773 78.0781C109.982 78.1354 110.172 78.2031 110.344 78.2812C110.516 78.3542 110.669 78.4271 110.805 78.5L110.531 79.8672ZM114.438 78.2266H116V76.8594C116 75.6875 116.237 74.8099 116.711 74.2266C117.19 73.638 117.852 73.3438 118.695 73.3438C119.003 73.3438 119.305 73.3932 119.602 73.4922C119.898 73.5859 120.169 73.7188 120.414 73.8906L120.062 75.1406C119.865 74.9948 119.643 74.8802 119.398 74.7969C119.159 74.7135 118.924 74.6719 118.695 74.6719C118.289 74.6719 117.979 74.8177 117.766 75.1094C117.552 75.401 117.445 75.8802 117.445 76.5469V78.2266H119.555V79.3594H117.445V82.1406C117.445 82.5208 117.448 82.8984 117.453 83.2734C117.464 83.6432 117.477 83.9974 117.492 84.3359C117.513 84.6693 117.539 84.9792 117.57 85.2656C117.602 85.5521 117.638 85.7969 117.68 86H116V79.3594H114.438V78.2266ZM121.172 82.0547C121.172 82.5078 121.227 82.9141 121.336 83.2734C121.445 83.6328 121.599 83.9375 121.797 84.1875C122 84.4323 122.24 84.6198 122.516 84.75C122.792 84.8802 123.099 84.9453 123.438 84.9453C123.75 84.9453 124.044 84.8802 124.32 84.75C124.596 84.6198 124.836 84.4323 125.039 84.1875C125.247 83.9375 125.409 83.6328 125.523 83.2734C125.643 82.9141 125.703 82.5078 125.703 82.0547C125.703 81.5964 125.648 81.1875 125.539 80.8281C125.43 80.4635 125.273 80.1562 125.07 79.9062C124.872 79.651 124.633 79.4583 124.352 79.3281C124.076 79.1927 123.771 79.125 123.438 79.125C123.12 79.125 122.823 79.1927 122.547 79.3281C122.271 79.4583 122.031 79.651 121.828 79.9062C121.625 80.1562 121.464 80.4635 121.344 80.8281C121.229 81.1875 121.172 81.5964 121.172 82.0547ZM119.727 82.0547C119.727 81.3828 119.828 80.7891 120.031 80.2734C120.234 79.7526 120.508 79.3151 120.852 78.9609C121.195 78.6016 121.596 78.3307 122.055 78.1484C122.513 77.9661 123 77.875 123.516 77.875C124.052 77.875 124.542 77.9661 124.984 78.1484C125.432 78.3307 125.815 78.6016 126.133 78.9609C126.456 79.3151 126.706 79.7526 126.883 80.2734C127.06 80.7891 127.148 81.3828 127.148 82.0547C127.148 82.7266 127.047 83.3203 126.844 83.8359C126.641 84.3516 126.367 84.7839 126.023 85.1328C125.68 85.4818 125.279 85.7474 124.82 85.9297C124.362 86.1068 123.875 86.1953 123.359 86.1953C122.823 86.1953 122.331 86.1068 121.883 85.9297C121.44 85.7474 121.057 85.4818 120.734 85.1328C120.417 84.7839 120.169 84.3516 119.992 83.8359C119.815 83.3203 119.727 82.7266 119.727 82.0547ZM134.078 86C134.042 85.9115 134.003 85.8073 133.961 85.6875C133.919 85.5677 133.878 85.4401 133.836 85.3047C133.799 85.1693 133.763 85.0286 133.727 84.8828C133.695 84.7318 133.669 84.5833 133.648 84.4375C133.174 85.0156 132.685 85.4531 132.18 85.75C131.68 86.0469 131.154 86.1953 130.602 86.1953C128.935 86.1953 128.102 85.0755 128.102 82.8359V80.5312C128.102 80.2812 128.099 80.0547 128.094 79.8516C128.094 79.6484 128.089 79.4531 128.078 79.2656C128.068 79.0729 128.052 78.8776 128.031 78.6797C128.01 78.4818 127.982 78.2656 127.945 78.0312H129.547V82.3672C129.547 82.8099 129.568 83.1927 129.609 83.5156C129.656 83.8333 129.732 84.0964 129.836 84.3047C129.94 84.5078 130.076 84.6589 130.242 84.7578C130.414 84.8568 130.625 84.9062 130.875 84.9062C131.104 84.9062 131.349 84.8385 131.609 84.7031C131.87 84.5625 132.117 84.3854 132.352 84.1719C132.591 83.9583 132.807 83.724 133 83.4688C133.198 83.2083 133.349 82.9583 133.453 82.7188V80.5312C133.453 80.276 133.451 80.0469 133.445 79.8438C133.445 79.6354 133.44 79.4375 133.43 79.25C133.419 79.0625 133.404 78.8724 133.383 78.6797C133.362 78.487 133.333 78.2708 133.297 78.0312H134.898V82.4844C134.898 83.2448 134.94 83.9115 135.023 84.4844C135.112 85.0521 135.24 85.5573 135.406 86H134.078ZM141.914 86V81.7031C141.914 81.2135 141.88 80.8099 141.812 80.4922C141.75 80.1745 141.654 79.9245 141.523 79.7422C141.398 79.5547 141.237 79.4245 141.039 79.3516C140.846 79.2786 140.617 79.2422 140.352 79.2422C140.07 79.2422 139.794 79.3099 139.523 79.4453C139.258 79.5755 139.013 79.7474 138.789 79.9609C138.565 80.1693 138.367 80.4062 138.195 80.6719C138.023 80.9375 137.896 81.2031 137.812 81.4688V86H136.367V81.1953C136.367 80.4245 136.323 79.7734 136.234 79.2422C136.151 78.7057 136.065 78.3021 135.977 78.0312H137.383C137.414 78.1146 137.445 78.224 137.477 78.3594C137.508 78.4896 137.536 78.6276 137.562 78.7734C137.589 78.9193 137.612 79.0625 137.633 79.2031L137.695 79.5547C138.19 78.9609 138.69 78.5339 139.195 78.2734C139.701 78.0078 140.229 77.875 140.781 77.875C141.615 77.875 142.253 78.1484 142.695 78.6953C143.138 79.237 143.359 80.0443 143.359 81.1172V86H141.914ZM150.023 79.7891C149.831 79.6849 149.651 79.5964 149.484 79.5234C149.318 79.4505 149.154 79.3906 148.992 79.3438C148.831 79.2969 148.667 79.263 148.5 79.2422C148.333 79.2161 148.151 79.2031 147.953 79.2031C147.656 79.2031 147.372 79.2708 147.102 79.4062C146.831 79.5417 146.589 79.737 146.375 79.9922C146.167 80.2474 146 80.5599 145.875 80.9297C145.75 81.2943 145.688 81.7083 145.688 82.1719C145.688 83.0833 145.841 83.7734 146.148 84.2422C146.461 84.7109 146.958 84.9453 147.641 84.9453C147.88 84.9453 148.117 84.8854 148.352 84.7656C148.591 84.6458 148.815 84.4896 149.023 84.2969C149.237 84.1042 149.43 83.8854 149.602 83.6406C149.773 83.3906 149.914 83.1354 150.023 82.875V79.7891ZM151.469 81.8594C151.469 82.8438 151.523 83.6719 151.633 84.3438C151.747 85.0104 151.888 85.5625 152.055 86H150.648C150.591 85.8646 150.521 85.6641 150.438 85.3984C150.359 85.1276 150.286 84.8464 150.219 84.5547C149.844 85.0859 149.419 85.4922 148.945 85.7734C148.471 86.0547 147.945 86.1953 147.367 86.1953C146.888 86.1953 146.456 86.1068 146.07 85.9297C145.69 85.7474 145.362 85.4922 145.086 85.1641C144.815 84.8307 144.607 84.4323 144.461 83.9688C144.315 83.5 144.242 82.9792 144.242 82.4062C144.242 81.7135 144.336 81.0885 144.523 80.5312C144.716 79.974 144.979 79.5 145.312 79.1094C145.646 78.7135 146.036 78.4089 146.484 78.1953C146.938 77.9818 147.427 77.875 147.953 77.875C148.12 77.875 148.292 77.8932 148.469 77.9297C148.651 77.9661 148.831 78.0156 149.008 78.0781C149.19 78.1406 149.367 78.2135 149.539 78.2969C149.711 78.375 149.872 78.4557 150.023 78.5391V76.3516C150.023 75.7214 150.008 75.1719 149.977 74.7031C149.951 74.2292 149.901 73.8281 149.828 73.5H151.469V81.8594Z" fill="#858585"/>
</svg>
