<svg width="24" height="24" viewBox="0 0 24 24" fill="none" xmlns="http://www.w3.org/2000/svg">
<path d="M5.77778 13.98V12.27C5.77778 9.21 7.82222 6.51 10.7556 5.88L10.4889 4.8C10.3111 3.9 11.0222 3 12 3C12.9778 3 13.6 3.81 13.5111 4.8L13.3333 5.88C16.0889 6.42 18.2222 8.94 18.2222 12V13.98C18.2222 15.6 18.8444 17.13 20 18.3V19.2H14.0444C14.0444 20.19 13.2444 21 12.2667 21C11.2889 21 10.4889 20.19 10.4889 19.2H4V18.3C5.15556 17.13 5.77778 15.6 5.77778 13.98ZM8.44444 13.17C8.88889 13.17 9.33333 12.72 9.33333 12.27C9.33333 10.65 10.4889 9.3 11.9111 9.3H12C12.5333 9.3 12.8889 8.85 12.8889 8.4C12.8889 7.95 12.4444 7.5 12 7.5H11.9111C9.51111 7.59 7.55556 9.66 7.55556 12.27C7.55556 12.81 8 13.17 8.44444 13.17Z" fill="#333333"/>
</svg>
