<svg width="56" height="56" viewBox="0 0 56 56" fill="none" xmlns="http://www.w3.org/2000/svg">
<path fill-rule="evenodd" clip-rule="evenodd" d="M51.8355 28.714L28.5933 5.47196C28.2974 5.17599 27.8118 5.17599 27.5158 5.47207L4.27379 28.714C3.79462 29.1932 4.12165 30.0146 4.81257 30.0146H9.06627L26.6653 12.4156C27.4312 11.6497 28.678 11.6497 29.444 12.4157L47.043 30.0146H51.2967C51.9876 30.0146 52.3147 29.1932 51.8355 28.714ZM46.1924 30.8652V50.8234H36.1984V47.4267C36.1984 42.9964 32.5759 39.3739 28.1456 39.3739H27.9639C23.5336 39.3739 19.9111 42.9966 19.9111 47.4267V50.8234H9.91699V30.8652L27.5159 13.2664C27.8119 12.9703 28.2975 12.9703 28.5934 13.2662L46.1924 30.8652ZM30.8421 26.3745C32.3813 27.9139 32.3813 30.41 30.8421 31.9492C29.3028 33.4885 26.8066 33.4885 25.2673 31.9492C23.728 30.41 23.728 27.9137 25.2673 26.3745C26.8066 24.8352 29.3027 24.8353 30.8421 26.3745ZM28.0546 24.0168C30.896 24.0168 33.1996 26.3205 33.1996 29.1618C33.1996 32.0032 30.8961 34.3068 28.0546 34.3068C25.2133 34.3068 22.9096 32.0032 22.9096 29.1618C22.9096 26.3205 25.2133 24.0168 28.0546 24.0168Z" fill="#333333"/>
</svg>
