<svg width="24" height="24" viewBox="0 0 24 24" fill="none" xmlns="http://www.w3.org/2000/svg">
<path d="M12.1855 2V21.4683H12.5058H16.2238V22H17.386V21.4683H19.0005V2H12.1855ZM13.8815 12.384C13.8815 12.6698 13.6493 12.9017 13.364 12.9017C13.0788 12.9017 12.8468 12.6695 12.8468 12.384V10.678C12.8468 10.3928 13.079 10.1605 13.364 10.1605C13.6495 10.1605 13.8815 10.3928 13.8815 10.678V12.384Z" fill="#333333"/>
<path d="M5 21.4683H6.6145V22H7.777V21.4683H11.4948H11.815V2H5V21.4683ZM10.1192 10.678C10.1192 10.3928 10.3518 10.1605 10.637 10.1605C10.9223 10.1605 11.1543 10.3928 11.1543 10.678V12.384C11.1543 12.6698 10.922 12.9017 10.637 12.9017C10.3515 12.9017 10.1192 12.6695 10.1192 12.384V10.678Z" fill="#333333"/>
</svg>
