<svg width="24" height="24" viewBox="0 0 24 24" fill="none" xmlns="http://www.w3.org/2000/svg">
<path fill-rule="evenodd" clip-rule="evenodd" d="M22.2152 12.306L12.2543 2.34513C12.1274 2.21828 11.9194 2.21828 11.7925 2.34517L1.83162 12.306C1.62626 12.5114 1.76642 12.8634 2.06253 12.8634H3.88555L11.428 5.32099C11.7562 4.99272 12.2906 4.99272 12.6189 5.32103L20.1613 12.8634H21.9843C22.2804 12.8634 22.4206 12.5114 22.2152 12.306ZM19.7967 13.228V21.7815H15.5136V20.3257C15.5136 18.427 13.9611 16.8745 12.0624 16.8745H11.9845C10.0858 16.8745 8.53334 18.4271 8.53334 20.3257V21.7815H4.25014V13.228L11.7925 5.68558C11.9194 5.55869 12.1275 5.55869 12.2543 5.68553L19.7967 13.228ZM13.218 11.3034C13.8777 11.9631 13.8777 13.0329 13.218 13.6925C12.5584 14.3522 11.4885 14.3522 10.8289 13.6925C10.1691 13.0329 10.1691 11.963 10.8289 11.3034C11.4885 10.6436 12.5583 10.6437 13.218 11.3034ZM12.0234 10.2929C13.2411 10.2929 14.2284 11.2802 14.2284 12.4979C14.2284 13.7156 13.2412 14.7029 12.0234 14.7029C10.8057 14.7029 9.81842 13.7156 9.81842 12.4979C9.81842 11.2802 10.8057 10.2929 12.0234 10.2929Z" fill="#333333"/>
</svg>
