<svg width="72" height="72" viewBox="0 0 72 72" fill="none" xmlns="http://www.w3.org/2000/svg">
<path d="M47.5096 57.375L38.4664 48.3317M57.375 49.1538L47.5096 39.2885L38.4664 48.3317M38.4664 48.3317L24.4904 34.3558L16.2692 42.5769L14.625 44.2212M14.625 44.2212L14.625 21.2019C14.625 17.5696 17.5696 14.625 21.2019 14.625L50.7981 14.6251C54.4304 14.6251 57.375 17.5697 57.375 21.202L57.375 50.7981C57.375 54.4304 54.4304 57.375 50.7981 57.375L21.2019 57.375C17.5696 57.375 14.625 54.4304 14.625 50.7981L14.625 44.2212ZM50.7981 26.1346C50.7981 28.8589 48.5896 31.0673 45.8654 31.0673C43.1411 31.0673 40.9327 28.8589 40.9327 26.1346C40.9327 23.4104 43.1411 21.2019 45.8654 21.2019C48.5896 21.2019 50.7981 23.4104 50.7981 26.1346Z" stroke="#333333" stroke-linecap="round" stroke-linejoin="round"/>
</svg>
