<svg width="25" height="24" viewBox="0 0 25 24" fill="none" xmlns="http://www.w3.org/2000/svg">
<path d="M7.4257 6.0059C7.22188 6.19221 7.20769 6.50848 7.394 6.7123C7.58032 6.91612 7.89658 6.93031 8.1004 6.74399L7.4257 6.0059ZM16.9145 18.61C17.1401 18.4507 17.1939 18.1387 17.0347 17.9131C16.8754 17.6875 16.5634 17.6337 16.3378 17.793L16.9145 18.61ZM12.5529 18.9996C8.84612 18.9996 5.81152 15.8823 5.81152 11.9998H4.81152C4.81152 16.4013 8.26108 19.9996 12.5529 19.9996V18.9996ZM12.5529 5C16.2597 5 19.2943 8.11724 19.2943 11.9998H20.2943C20.2943 7.5983 16.8447 4 12.5529 4V5ZM8.1004 6.74399C9.28998 5.65658 10.8481 5 12.5529 5V4C10.5847 4 8.78919 4.75952 7.4257 6.0059L8.1004 6.74399ZM16.3378 17.793C15.2579 18.5553 13.9555 18.9996 12.5529 18.9996V19.9996C14.171 19.9996 15.6734 19.4861 16.9145 18.61L16.3378 17.793ZM19.2943 11.9998V14.6789H20.2943V11.9998H19.2943ZM5.81152 11.9998V10.3117H4.81152V11.9998H5.81152Z" fill="#333333"/>
<path d="M17.6572 12L19.7947 14.85L21.9322 12" stroke="#333333" stroke-linecap="round" stroke-linejoin="round"/>
<path d="M7.44922 12.8057L5.31172 9.95566L3.17422 12.8057" stroke="#333333" stroke-linecap="round" stroke-linejoin="round"/>
</svg>
