<svg width="13" height="13" viewBox="0 0 13 13" fill="none" xmlns="http://www.w3.org/2000/svg">
<path d="M8.67257 3.9621C8.73838 3.87131 8.81954 3.79044 8.8729 3.69182C9.05942 3.3471 8.82403 2.88281 8.39799 2.88281H6.20692C6.05267 2.88281 5.90583 2.95015 5.80364 3.06775L4.1987 5.53409C3.89128 5.88784 4.13801 6.44531 4.60198 6.44531H4.70274C5.10677 6.44531 5.34985 6.87078 5.19514 7.21708C5.15683 7.30283 5.10351 7.38186 5.06785 7.46875L4.3638 9.1842C4.29248 9.35798 4.15687 9.52597 4.1841 9.71183C4.20729 9.87011 4.33755 10.0078 4.51989 10.0078C4.58416 10.0078 4.64709 9.98921 4.70136 9.95418L8.00778 7.29852C8.39203 7.05048 8.21942 6.44531 7.76442 6.44531C7.38418 6.44531 7.18387 6.00712 7.39432 5.71345C7.42698 5.66787 7.46575 5.62673 7.49866 5.58134L8.67257 3.9621Z" stroke="white"/>
</svg>
