<svg width="24" height="24" viewBox="0 0 24 24" fill="none" xmlns="http://www.w3.org/2000/svg">
<path d="M23.1594 10.1285C20.2554 9.52849 17.9994 7.24849 17.3994 4.34449C17.3754 4.20049 17.2554 4.10449 17.0874 4.10449C16.9434 4.10449 16.8234 4.20049 16.7754 4.34449C16.1754 7.24849 13.8954 9.52849 11.0154 10.1285C10.8714 10.1525 10.7754 10.2725 10.7754 10.4405C10.7754 10.5845 10.8714 10.7045 11.0154 10.7525C13.9194 11.3525 16.1754 13.6325 16.7754 16.5125C16.7994 16.6565 16.9194 16.7525 17.0874 16.7525C17.2314 16.7525 17.3514 16.6565 17.3994 16.5125C17.9994 13.6085 20.2794 11.3525 23.1594 10.7525C23.3034 10.7285 23.3994 10.6085 23.3994 10.4405C23.3994 10.2725 23.3034 10.1525 23.1594 10.1285Z" fill="white"/>
<path d="M13.4868 16.8959C11.1588 16.4159 9.33478 14.5919 8.85478 12.2399C8.83078 12.1199 8.73478 12.0479 8.61478 12.0479C8.49478 12.0479 8.39878 12.1199 8.37478 12.2399C7.89478 14.5919 6.07078 16.4159 3.74278 16.8959C3.62278 16.9199 3.55078 17.0159 3.55078 17.1359C3.55078 17.2559 3.62278 17.3519 3.74278 17.3759C6.07078 17.8559 7.89478 19.6799 8.37478 22.0079C8.39878 22.1279 8.49478 22.1999 8.61478 22.1999C8.73478 22.1999 8.83078 22.1279 8.85478 22.0079C9.33478 19.6799 11.1588 17.8559 13.4868 17.3759C13.6068 17.3519 13.6788 17.2559 13.6788 17.1359C13.6788 17.0159 13.6068 16.9199 13.4868 16.8959Z" fill="white"/>
<path d="M5.20705 11.4002C5.25505 11.5442 5.37505 11.6402 5.51905 11.6402C5.66305 11.6402 5.80705 11.5442 5.83105 11.4002C6.33505 9.26422 8.06305 7.56022 10.175 7.05622C10.319 7.00822 10.415 6.88822 10.415 6.74422C10.415 6.60022 10.319 6.45622 10.175 6.43222C8.01505 5.90422 6.33505 4.22422 5.83105 2.06422C5.80705 1.92022 5.66305 1.82422 5.51905 1.82422C5.37505 1.82422 5.23105 1.92022 5.20705 2.06422C4.67905 4.22422 3.02305 5.90422 0.863047 6.43222C0.719047 6.48022 0.623047 6.60022 0.623047 6.74422C0.623047 6.88822 0.719047 7.03222 0.863047 7.05622C2.97505 7.56022 4.67905 9.26422 5.20705 11.4002Z" fill="white"/>
</svg>
