<svg width="24" height="24" viewBox="0 0 24 24" fill="none" xmlns="http://www.w3.org/2000/svg">
<path d="M18.1663 13.8099C17.2582 13.8099 16.5221 13.0738 16.5221 12.1657C16.5221 11.2576 17.2582 10.5215 18.1663 10.5215C19.0744 10.5215 19.8105 11.2576 19.8105 12.1657C19.8105 13.0738 19.0744 13.8099 18.1663 13.8099Z" stroke="#333333" stroke-width="2" stroke-linecap="round"/>
<path d="M6.12231 13.81C5.21423 13.81 4.47808 13.0739 4.47808 12.1658C4.47808 11.2577 5.21423 10.5215 6.12231 10.5215C7.0304 10.5215 7.76654 11.2577 7.76654 12.1658C7.76654 13.0739 7.0304 13.81 6.12231 13.81Z" stroke="#333333" stroke-width="2" stroke-linecap="round"/>
<path d="M12.1223 13.8099C11.2142 13.8099 10.4781 13.0738 10.4781 12.1657C10.4781 11.2576 11.2142 10.5215 12.1223 10.5215C13.0304 10.5215 13.7666 11.2576 13.7666 12.1657C13.7666 13.0738 13.0304 13.8099 12.1223 13.8099Z" stroke="#333333" stroke-width="2" stroke-linecap="round"/>
</svg>
