<svg width="24" height="22" viewBox="0 0 24 22" fill="none" xmlns="http://www.w3.org/2000/svg">
<path d="M23.1594 9.12849C20.2554 8.52849 17.9994 6.24849 17.3994 3.34449C17.3754 3.20049 17.2554 3.10449 17.0874 3.10449C16.9434 3.10449 16.8234 3.20049 16.7754 3.34449C16.1754 6.24849 13.8954 8.52849 11.0154 9.12849C10.8714 9.15249 10.7754 9.27249 10.7754 9.44049C10.7754 9.58449 10.8714 9.70449 11.0154 9.75249C13.9194 10.3525 16.1754 12.6325 16.7754 15.5125C16.7994 15.6565 16.9194 15.7525 17.0874 15.7525C17.2314 15.7525 17.3514 15.6565 17.3994 15.5125C17.9994 12.6085 20.2794 10.3525 23.1594 9.75249C23.3034 9.72849 23.3994 9.60849 23.3994 9.44049C23.3994 9.27249 23.3034 9.15249 23.1594 9.12849Z" fill="white"/>
<path d="M13.4868 15.8959C11.1588 15.4159 9.33478 13.5919 8.85478 11.2399C8.83078 11.1199 8.73478 11.0479 8.61478 11.0479C8.49478 11.0479 8.39878 11.1199 8.37478 11.2399C7.89478 13.5919 6.07078 15.4159 3.74278 15.8959C3.62278 15.9199 3.55078 16.0159 3.55078 16.1359C3.55078 16.2559 3.62278 16.3519 3.74278 16.3759C6.07078 16.8559 7.89478 18.6799 8.37478 21.0079C8.39878 21.1279 8.49478 21.1999 8.61478 21.1999C8.73478 21.1999 8.83078 21.1279 8.85478 21.0079C9.33478 18.6799 11.1588 16.8559 13.4868 16.3759C13.6068 16.3519 13.6788 16.2559 13.6788 16.1359C13.6788 16.0159 13.6068 15.9199 13.4868 15.8959Z" fill="white"/>
<path d="M5.20705 10.4002C5.25505 10.5442 5.37505 10.6402 5.51905 10.6402C5.66305 10.6402 5.80705 10.5442 5.83105 10.4002C6.33505 8.26422 8.06305 6.56022 10.175 6.05622C10.319 6.00822 10.415 5.88822 10.415 5.74422C10.415 5.60022 10.319 5.45622 10.175 5.43222C8.01505 4.90422 6.33505 3.22422 5.83105 1.06422C5.80705 0.920219 5.66305 0.824219 5.51905 0.824219C5.37505 0.824219 5.23105 0.920219 5.20705 1.06422C4.67905 3.22422 3.02305 4.90422 0.863047 5.43222C0.719047 5.48022 0.623047 5.60022 0.623047 5.74422C0.623047 5.88822 0.719047 6.03222 0.863047 6.05622C2.97505 6.56022 4.67905 8.26422 5.20705 10.4002Z" fill="white"/>
</svg>
